# MagicaVoxel @ Ephtracy

# material
mtllib sumur.mtl
usemtl palette

# normals
vn -1 0 0
vn 1 0 0
vn 0 0 1
vn 0 0 -1
vn 0 -1 0
vn 0 1 0

# texcoords
vt 0.912109 0.5
vt 0.939453 0.5
vt 0.974609 0.5
vt 0.978516 0.5

# verts
v 3 27 -31
v 3 27 -36
v 3 28 -35
v 3 28 -36
v 3 29 -32
v 3 29 -34
v 3 29 -35
v 3 29 -36
v 3 31 -32
v 3 31 -34
v 3 31 -35
v 3 31 -36
v 3 33 -35
v 3 33 -36
v 3 34 -31
v 3 34 -33
v 3 34 -35
v 3 34 -36
v 3 45 -33
v 3 45 -35
v 4 27 -30
v 4 27 -31
v 4 27 -36
v 4 27 -37
v 4 28 -36
v 4 28 -37
v 4 29 -36
v 4 29 -37
v 4 31 -36
v 4 31 -37
v 4 33 -36
v 4 33 -37
v 4 34 -30
v 4 34 -31
v 4 34 -36
v 4 34 -37
v 5 27 -29
v 5 27 -30
v 5 27 -37
v 5 27 -38
v 5 28 -37
v 5 29 -37
v 5 31 -29
v 5 31 -30
v 5 31 -37
v 5 33 -29
v 5 33 -30
v 5 33 -37
v 5 34 -29
v 5 34 -30
v 5 34 -37
v 5 34 -38
v 5 45 -33
v 5 45 -35
v 5 46 -33
v 5 46 -35
v 6 27 -28
v 6 27 -29
v 6 27 -38
v 6 27 -39
v 6 31 -29
v 6 33 -29
v 6 34 -28
v 6 34 -29
v 6 34 -38
v 6 34 -39
v 9 32 -30
v 9 32 -31
v 9 32 -36
v 9 32 -37
v 9 34 -30
v 9 34 -31
v 9 34 -36
v 9 34 -37
v 10 32 -31
v 10 32 -32
v 10 32 -35
v 10 32 -36
v 10 34 -31
v 10 34 -32
v 10 34 -35
v 10 34 -36
v 11 32 -32
v 11 32 -33
v 11 32 -34
v 11 32 -35
v 11 33 -33
v 11 33 -34
v 11 34 -32
v 11 34 -33
v 11 34 -34
v 11 34 -35
v 12 29 -34
v 12 29 -35
v 12 30 -34
v 12 30 -35
v 12 33 -33
v 12 33 -34
v 12 34 -33
v 12 34 -34
v 13 34 -33
v 13 34 -35
v 13 44 -33
v 13 44 -35
v 4 34 -33
v 4 34 -35
v 4 44 -33
v 4 44 -35
v 5 32 -33
v 5 32 -34
v 5 34 -33
v 5 34 -34
v 6 32 -32
v 6 32 -33
v 6 32 -34
v 6 32 -35
v 6 34 -32
v 6 34 -33
v 6 34 -34
v 6 34 -35
v 7 32 -31
v 7 32 -32
v 7 32 -35
v 7 32 -36
v 7 34 -31
v 7 34 -32
v 7 34 -35
v 7 34 -36
v 8 32 -30
v 8 32 -31
v 8 32 -36
v 8 32 -37
v 8 34 -30
v 8 34 -31
v 8 34 -36
v 8 34 -37
v 11 27 -28
v 11 27 -29
v 11 27 -38
v 11 27 -39
v 11 29 -34
v 11 29 -35
v 11 29 -38
v 11 29 -39
v 11 30 -34
v 11 30 -35
v 11 31 -29
v 11 32 -29
v 11 32 -38
v 11 32 -39
v 11 34 -28
v 11 34 -29
v 11 34 -38
v 11 34 -39
v 12 27 -29
v 12 27 -30
v 12 27 -37
v 12 27 -38
v 12 29 -37
v 12 29 -38
v 12 31 -29
v 12 31 -30
v 12 32 -29
v 12 32 -30
v 12 34 -29
v 12 34 -30
v 12 34 -37
v 12 34 -38
v 12 45 -33
v 12 45 -35
v 12 46 -33
v 12 46 -35
v 13 27 -30
v 13 27 -31
v 13 27 -36
v 13 27 -37
v 13 28 -31
v 13 30 -31
v 13 30 -36
v 13 31 -30
v 13 31 -31
v 13 31 -36
v 13 32 -30
v 13 32 -31
v 13 34 -30
v 13 34 -31
v 13 34 -36
v 13 34 -37
v 14 27 -31
v 14 27 -36
v 14 28 -31
v 14 28 -33
v 14 30 -31
v 14 30 -33
v 14 30 -34
v 14 30 -36
v 14 31 -31
v 14 31 -32
v 14 31 -34
v 14 31 -36
v 14 32 -31
v 14 32 -32
v 14 33 -34
v 14 33 -35
v 14 34 -31
v 14 34 -33
v 14 34 -34
v 14 34 -35
v 14 34 -36
v 14 45 -33
v 14 45 -35
v 6 27 -28
v 6 34 -28
v 7 29 -28
v 7 30 -28
v 10 29 -28
v 10 30 -28
v 11 27 -28
v 11 34 -28
v 5 27 -29
v 5 31 -29
v 5 33 -29
v 5 34 -29
v 6 27 -29
v 6 31 -29
v 6 33 -29
v 6 34 -29
v 11 27 -29
v 11 31 -29
v 11 32 -29
v 11 34 -29
v 12 27 -29
v 12 31 -29
v 12 32 -29
v 12 34 -29
v 4 27 -30
v 4 34 -30
v 5 27 -30
v 5 31 -30
v 5 33 -30
v 5 34 -30
v 12 27 -30
v 12 31 -30
v 12 32 -30
v 12 34 -30
v 13 27 -30
v 13 31 -30
v 13 32 -30
v 13 34 -30
v 3 27 -31
v 3 34 -31
v 4 27 -31
v 4 34 -31
v 13 27 -31
v 13 28 -31
v 13 30 -31
v 13 31 -31
v 13 32 -31
v 13 34 -31
v 14 27 -31
v 14 28 -31
v 14 30 -31
v 14 31 -31
v 14 32 -31
v 14 34 -31
v 3 34 -33
v 3 45 -33
v 4 34 -33
v 4 44 -33
v 5 45 -33
v 5 46 -33
v 12 45 -33
v 12 46 -33
v 13 34 -33
v 13 44 -33
v 14 34 -33
v 14 45 -33
v 5 32 -34
v 5 34 -34
v 6 32 -34
v 6 34 -34
v 11 33 -34
v 11 34 -34
v 12 33 -34
v 12 34 -34
v 6 32 -35
v 6 34 -35
v 7 32 -35
v 7 34 -35
v 10 32 -35
v 10 34 -35
v 11 29 -35
v 11 30 -35
v 11 32 -35
v 11 34 -35
v 12 29 -35
v 12 30 -35
v 7 32 -36
v 7 34 -36
v 8 32 -36
v 8 34 -36
v 9 32 -36
v 9 34 -36
v 10 32 -36
v 10 34 -36
v 8 32 -37
v 8 34 -37
v 9 32 -37
v 9 34 -37
v 8 32 -30
v 8 34 -30
v 9 32 -30
v 9 34 -30
v 7 32 -31
v 7 34 -31
v 8 32 -31
v 8 34 -31
v 9 32 -31
v 9 34 -31
v 10 32 -31
v 10 34 -31
v 6 32 -32
v 6 34 -32
v 7 32 -32
v 7 34 -32
v 10 32 -32
v 10 34 -32
v 11 32 -32
v 11 34 -32
v 5 32 -33
v 5 34 -33
v 6 32 -33
v 6 34 -33
v 11 33 -33
v 11 34 -33
v 12 33 -33
v 12 34 -33
v 11 29 -34
v 11 30 -34
v 12 29 -34
v 12 30 -34
v 3 34 -35
v 3 45 -35
v 4 34 -35
v 4 44 -35
v 5 45 -35
v 5 46 -35
v 12 45 -35
v 12 46 -35
v 13 34 -35
v 13 44 -35
v 14 34 -35
v 14 45 -35
v 3 27 -36
v 3 28 -36
v 3 29 -36
v 3 31 -36
v 3 33 -36
v 3 34 -36
v 4 27 -36
v 4 28 -36
v 4 29 -36
v 4 31 -36
v 4 33 -36
v 4 34 -36
v 13 27 -36
v 13 30 -36
v 13 31 -36
v 13 34 -36
v 14 27 -36
v 14 30 -36
v 14 31 -36
v 14 34 -36
v 4 27 -37
v 4 28 -37
v 4 29 -37
v 4 31 -37
v 4 33 -37
v 4 34 -37
v 5 27 -37
v 5 28 -37
v 5 29 -37
v 5 31 -37
v 5 33 -37
v 5 34 -37
v 12 27 -37
v 12 29 -37
v 12 34 -37
v 13 27 -37
v 13 34 -37
v 5 27 -38
v 5 34 -38
v 6 27 -38
v 6 34 -38
v 11 27 -38
v 11 29 -38
v 11 32 -38
v 11 34 -38
v 12 27 -38
v 12 29 -38
v 12 34 -38
v 6 27 -39
v 6 34 -39
v 7 30 -39
v 7 31 -39
v 9 30 -39
v 9 31 -39
v 10 27 -39
v 10 29 -39
v 10 32 -39
v 10 34 -39
v 11 27 -39
v 11 29 -39
v 11 32 -39
v 11 34 -39
v 6 27 -28
v 11 27 -28
v 5 27 -29
v 6 27 -29
v 11 27 -29
v 12 27 -29
v 4 27 -30
v 5 27 -30
v 8 27 -30
v 9 27 -30
v 12 27 -30
v 13 27 -30
v 3 27 -31
v 4 27 -31
v 13 27 -31
v 14 27 -31
v 6 27 -32
v 8 27 -32
v 9 27 -32
v 10 27 -32
v 5 27 -33
v 6 27 -33
v 10 27 -33
v 11 27 -33
v 5 27 -34
v 6 27 -34
v 6 27 -35
v 7 27 -35
v 10 27 -35
v 11 27 -35
v 3 27 -36
v 4 27 -36
v 7 27 -36
v 8 27 -36
v 9 27 -36
v 10 27 -36
v 13 27 -36
v 14 27 -36
v 4 27 -37
v 5 27 -37
v 8 27 -37
v 9 27 -37
v 10 27 -37
v 12 27 -37
v 13 27 -37
v 5 27 -38
v 6 27 -38
v 11 27 -38
v 12 27 -38
v 6 27 -39
v 10 27 -39
v 11 27 -39
v 11 30 -34
v 12 30 -34
v 11 30 -35
v 12 30 -35
v 4 44 -33
v 13 44 -33
v 4 44 -35
v 13 44 -35
v 11 29 -34
v 12 29 -34
v 11 29 -35
v 12 29 -35
v 8 32 -30
v 9 32 -30
v 7 32 -31
v 8 32 -31
v 9 32 -31
v 10 32 -31
v 6 32 -32
v 7 32 -32
v 10 32 -32
v 11 32 -32
v 5 32 -33
v 6 32 -33
v 11 32 -33
v 5 32 -34
v 6 32 -34
v 11 32 -34
v 6 32 -35
v 7 32 -35
v 10 32 -35
v 11 32 -35
v 7 32 -36
v 8 32 -36
v 9 32 -36
v 10 32 -36
v 8 32 -37
v 9 32 -37
v 11 33 -33
v 12 33 -33
v 11 33 -34
v 12 33 -34
v 6 34 -28
v 11 34 -28
v 5 34 -29
v 6 34 -29
v 11 34 -29
v 12 34 -29
v 4 34 -30
v 5 34 -30
v 8 34 -30
v 9 34 -30
v 12 34 -30
v 13 34 -30
v 3 34 -31
v 4 34 -31
v 7 34 -31
v 8 34 -31
v 9 34 -31
v 10 34 -31
v 13 34 -31
v 14 34 -31
v 6 34 -32
v 7 34 -32
v 10 34 -32
v 11 34 -32
v 3 34 -33
v 4 34 -33
v 5 34 -33
v 6 34 -33
v 11 34 -33
v 12 34 -33
v 13 34 -33
v 14 34 -33
v 5 34 -34
v 6 34 -34
v 11 34 -34
v 12 34 -34
v 3 34 -35
v 4 34 -35
v 6 34 -35
v 7 34 -35
v 10 34 -35
v 11 34 -35
v 13 34 -35
v 14 34 -35
v 3 34 -36
v 4 34 -36
v 7 34 -36
v 8 34 -36
v 9 34 -36
v 10 34 -36
v 13 34 -36
v 14 34 -36
v 4 34 -37
v 5 34 -37
v 8 34 -37
v 9 34 -37
v 12 34 -37
v 13 34 -37
v 5 34 -38
v 6 34 -38
v 10 34 -38
v 11 34 -38
v 12 34 -38
v 6 34 -39
v 10 34 -39
v 11 34 -39
v 3 45 -33
v 5 45 -33
v 12 45 -33
v 14 45 -33
v 3 45 -35
v 5 45 -35
v 12 45 -35
v 14 45 -35
v 5 46 -33
v 12 46 -33
v 5 46 -35
v 12 46 -35

# faces
f 3/2/1 2/2/1 1/2/1
f 4/2/1 2/2/1 3/2/1
f 5/2/1 3/2/1 1/2/1
f 6/2/1 3/2/1 5/2/1
f 7/1/1 4/1/1 3/1/1
f 7/2/1 3/2/1 6/2/1
f 8/1/1 4/1/1 7/1/1
f 9/1/1 6/1/1 5/1/1
f 9/2/1 5/2/1 1/2/1
f 10/2/1 8/2/1 7/2/1
f 10/1/1 6/1/1 9/1/1
f 10/2/1 7/2/1 6/2/1
f 11/2/1 8/2/1 10/2/1
f 12/2/1 8/2/1 11/2/1
f 13/2/1 10/2/1 9/2/1
f 13/2/1 11/2/1 10/2/1
f 13/1/1 12/1/1 11/1/1
f 14/1/1 12/1/1 13/1/1
f 15/2/1 9/2/1 1/2/1
f 15/2/1 13/2/1 9/2/1
f 15/2/1 14/2/1 13/2/1
f 16/2/1 14/2/1 15/2/1
f 17/2/1 14/2/1 16/2/1
f 18/2/1 14/2/1 17/2/1
f 19/3/1 17/3/1 16/3/1
f 20/3/1 17/3/1 19/3/1
f 25/2/1 24/2/1 23/2/1
f 26/2/1 24/2/1 25/2/1
f 27/1/1 26/1/1 25/1/1
f 28/1/1 26/1/1 27/1/1
f 29/2/1 28/2/1 27/2/1
f 30/2/1 28/2/1 29/2/1
f 31/1/1 30/1/1 29/1/1
f 32/1/1 30/1/1 31/1/1
f 33/2/1 22/2/1 21/2/1
f 34/2/1 22/2/1 33/2/1
f 35/2/1 32/2/1 31/2/1
f 36/2/1 32/2/1 35/2/1
f 41/2/1 40/2/1 39/2/1
f 42/2/1 40/2/1 41/2/1
f 43/2/1 38/2/1 37/2/1
f 44/2/1 38/2/1 43/2/1
f 45/2/1 40/2/1 42/2/1
f 46/1/1 44/1/1 43/1/1
f 47/1/1 44/1/1 46/1/1
f 48/2/1 40/2/1 45/2/1
f 49/2/1 47/2/1 46/2/1
f 50/2/1 47/2/1 49/2/1
f 51/2/1 40/2/1 48/2/1
f 52/2/1 40/2/1 51/2/1
f 55/3/1 54/3/1 53/3/1
f 56/3/1 54/3/1 55/3/1
f 61/2/1 58/2/1 57/2/1
f 62/2/1 61/2/1 57/2/1
f 63/2/1 62/2/1 57/2/1
f 64/2/1 62/2/1 63/2/1
f 65/2/1 60/2/1 59/2/1
f 66/2/1 60/2/1 65/2/1
f 71/2/1 68/2/1 67/2/1
f 72/2/1 68/2/1 71/2/1
f 73/2/1 70/2/1 69/2/1
f 74/2/1 70/2/1 73/2/1
f 79/2/1 76/2/1 75/2/1
f 80/2/1 76/2/1 79/2/1
f 81/2/1 78/2/1 77/2/1
f 82/2/1 78/2/1 81/2/1
f 87/2/1 84/2/1 83/2/1
f 87/4/1 85/4/1 84/4/1
f 88/2/1 86/2/1 85/2/1
f 88/4/1 85/4/1 87/4/1
f 89/2/1 87/2/1 83/2/1
f 90/2/1 87/2/1 89/2/1
f 91/2/1 86/2/1 88/2/1
f 92/2/1 86/2/1 91/2/1
f 95/2/1 94/2/1 93/2/1
f 96/2/1 94/2/1 95/2/1
f 99/2/1 98/2/1 97/2/1
f 100/2/1 98/2/1 99/2/1
f 103/3/1 102/3/1 101/3/1
f 104/3/1 102/3/1 103/3/1
f 105/3/2 106/3/2 107/3/2
f 107/3/2 106/3/2 108/3/2
f 109/2/2 110/2/2 111/2/2
f 111/2/2 110/2/2 112/2/2
f 113/2/2 114/2/2 117/2/2
f 117/2/2 114/2/2 118/2/2
f 115/2/2 116/2/2 119/2/2
f 119/2/2 116/2/2 120/2/2
f 121/2/2 122/2/2 125/2/2
f 125/2/2 122/2/2 126/2/2
f 123/2/2 124/2/2 127/2/2
f 127/2/2 124/2/2 128/2/2
f 129/2/2 130/2/2 133/2/2
f 133/2/2 130/2/2 134/2/2
f 131/2/2 132/2/2 135/2/2
f 135/2/2 132/2/2 136/2/2
f 139/1/2 140/1/2 143/1/2
f 143/1/2 140/1/2 144/1/2
f 141/4/2 142/4/2 145/4/2
f 145/4/2 142/4/2 146/4/2
f 137/2/2 138/2/2 147/2/2
f 137/2/2 147/2/2 148/2/2
f 143/2/2 144/2/2 149/2/2
f 149/2/2 144/2/2 150/2/2
f 137/2/2 148/2/2 151/2/2
f 151/2/2 148/2/2 152/2/2
f 149/1/2 150/1/2 153/1/2
f 153/1/2 150/1/2 154/1/2
f 157/1/2 158/1/2 159/1/2
f 159/1/2 158/1/2 160/1/2
f 155/2/2 156/2/2 161/2/2
f 161/2/2 156/2/2 162/2/2
f 161/1/2 162/1/2 163/1/2
f 163/1/2 162/1/2 164/1/2
f 163/2/2 164/2/2 165/2/2
f 165/2/2 164/2/2 166/2/2
f 159/2/2 160/2/2 167/2/2
f 167/2/2 160/2/2 168/2/2
f 169/3/2 170/3/2 171/3/2
f 171/3/2 170/3/2 172/3/2
f 173/2/2 174/2/2 177/2/2
f 173/2/2 177/2/2 178/2/2
f 175/2/2 176/2/2 179/2/2
f 173/2/2 178/2/2 180/2/2
f 180/2/2 178/2/2 181/2/2
f 179/2/2 176/2/2 182/2/2
f 180/1/2 181/1/2 183/1/2
f 183/1/2 181/1/2 184/1/2
f 183/2/2 184/2/2 185/2/2
f 185/2/2 184/2/2 186/2/2
f 182/2/2 176/2/2 187/2/2
f 187/2/2 176/2/2 188/2/2
f 189/2/2 190/2/2 191/2/2
f 191/2/2 190/2/2 192/2/2
f 191/1/2 192/1/2 193/1/2
f 192/2/2 190/2/2 194/2/2
f 193/1/2 192/1/2 194/1/2
f 194/2/2 190/2/2 195/2/2
f 195/2/2 190/2/2 196/2/2
f 193/2/2 194/2/2 197/2/2
f 194/2/2 195/2/2 197/2/2
f 197/2/2 195/2/2 198/2/2
f 195/1/2 196/1/2 199/1/2
f 198/2/2 195/2/2 199/2/2
f 199/1/2 196/1/2 200/1/2
f 197/1/2 198/1/2 201/1/2
f 198/2/2 199/2/2 202/2/2
f 201/1/2 198/1/2 202/1/2
f 199/2/2 200/2/2 202/2/2
f 201/2/2 202/2/2 203/2/2
f 202/2/2 200/2/2 203/2/2
f 203/2/2 200/2/2 204/2/2
f 201/2/2 203/2/2 205/2/2
f 205/2/2 203/2/2 206/2/2
f 203/1/2 204/1/2 207/1/2
f 206/2/2 203/2/2 207/2/2
f 204/2/2 200/2/2 208/2/2
f 207/1/2 204/1/2 208/1/2
f 208/2/2 200/2/2 209/2/2
f 206/3/2 207/3/2 210/3/2
f 207/3/2 208/3/2 210/3/2
f 210/3/2 208/3/2 211/3/2
f 214/2/3 213/2/3 212/2/3
f 215/2/3 213/2/3 214/2/3
f 216/2/3 214/2/3 212/2/3
f 216/1/3 215/1/3 214/1/3
f 217/2/3 213/2/3 215/2/3
f 217/1/3 215/1/3 216/1/3
f 218/2/3 216/2/3 212/2/3
f 218/2/3 217/2/3 216/2/3
f 219/2/3 213/2/3 217/2/3
f 219/2/3 217/2/3 218/2/3
f 224/2/3 221/2/3 220/2/3
f 225/1/3 222/1/3 221/1/3
f 225/2/3 221/2/3 224/2/3
f 226/2/3 223/2/3 222/2/3
f 226/1/3 222/1/3 225/1/3
f 227/2/3 223/2/3 226/2/3
f 232/2/3 229/2/3 228/2/3
f 233/1/3 230/1/3 229/1/3
f 233/2/3 229/2/3 232/2/3
f 234/2/3 231/2/3 230/2/3
f 234/1/3 230/1/3 233/1/3
f 235/2/3 231/2/3 234/2/3
f 238/2/3 237/2/3 236/2/3
f 239/2/3 237/2/3 238/2/3
f 240/2/3 237/2/3 239/2/3
f 241/2/3 237/2/3 240/2/3
f 246/2/3 243/2/3 242/2/3
f 247/1/3 244/1/3 243/1/3
f 247/2/3 243/2/3 246/2/3
f 248/2/3 245/2/3 244/2/3
f 248/1/3 244/1/3 247/1/3
f 249/2/3 245/2/3 248/2/3
f 252/2/3 251/2/3 250/2/3
f 253/2/3 251/2/3 252/2/3
f 260/2/3 255/2/3 254/2/3
f 261/1/3 256/1/3 255/1/3
f 261/2/3 255/2/3 260/2/3
f 262/2/3 257/2/3 256/2/3
f 262/1/3 256/1/3 261/1/3
f 263/1/3 258/1/3 257/1/3
f 263/2/3 257/2/3 262/2/3
f 264/2/3 259/2/3 258/2/3
f 264/1/3 258/1/3 263/1/3
f 265/2/3 259/2/3 264/2/3
f 268/3/3 267/3/3 266/3/3
f 269/3/3 267/3/3 268/3/3
f 270/3/3 267/3/3 269/3/3
f 272/3/3 270/3/3 269/3/3
f 272/3/3 271/3/3 270/3/3
f 273/3/3 271/3/3 272/3/3
f 275/3/3 272/3/3 269/3/3
f 276/3/3 275/3/3 274/3/3
f 277/3/3 272/3/3 275/3/3
f 277/3/3 275/3/3 276/3/3
f 280/2/3 279/2/3 278/2/3
f 281/2/3 279/2/3 280/2/3
f 284/2/3 283/2/3 282/2/3
f 285/2/3 283/2/3 284/2/3
f 288/2/3 287/2/3 286/2/3
f 289/2/3 287/2/3 288/2/3
f 294/2/3 291/2/3 290/2/3
f 295/2/3 291/2/3 294/2/3
f 296/2/3 293/2/3 292/2/3
f 297/2/3 293/2/3 296/2/3
f 300/2/3 299/2/3 298/2/3
f 301/2/3 299/2/3 300/2/3
f 304/2/3 303/2/3 302/2/3
f 305/2/3 303/2/3 304/2/3
f 308/2/3 307/2/3 306/2/3
f 309/2/3 307/2/3 308/2/3
f 310/2/4 311/2/4 312/2/4
f 312/2/4 311/2/4 313/2/4
f 314/2/4 315/2/4 316/2/4
f 316/2/4 315/2/4 317/2/4
f 318/2/4 319/2/4 320/2/4
f 320/2/4 319/2/4 321/2/4
f 322/2/4 323/2/4 324/2/4
f 324/2/4 323/2/4 325/2/4
f 326/2/4 327/2/4 328/2/4
f 328/2/4 327/2/4 329/2/4
f 330/2/4 331/2/4 332/2/4
f 332/2/4 331/2/4 333/2/4
f 334/2/4 335/2/4 336/2/4
f 336/2/4 335/2/4 337/2/4
f 338/2/4 339/2/4 340/2/4
f 340/2/4 339/2/4 341/2/4
f 342/3/4 343/3/4 344/3/4
f 344/3/4 343/3/4 345/3/4
f 345/3/4 343/3/4 346/3/4
f 345/3/4 346/3/4 348/3/4
f 346/3/4 347/3/4 348/3/4
f 348/3/4 347/3/4 349/3/4
f 345/3/4 348/3/4 351/3/4
f 350/3/4 351/3/4 352/3/4
f 351/3/4 348/3/4 353/3/4
f 352/3/4 351/3/4 353/3/4
f 354/2/4 355/2/4 360/2/4
f 355/1/4 356/1/4 361/1/4
f 360/2/4 355/2/4 361/2/4
f 356/2/4 357/2/4 362/2/4
f 361/1/4 356/1/4 362/1/4
f 357/1/4 358/1/4 363/1/4
f 362/2/4 357/2/4 363/2/4
f 358/2/4 359/2/4 364/2/4
f 363/1/4 358/1/4 364/1/4
f 364/2/4 359/2/4 365/2/4
f 366/2/4 367/2/4 370/2/4
f 367/1/4 368/1/4 371/1/4
f 370/2/4 367/2/4 371/2/4
f 368/2/4 369/2/4 372/2/4
f 371/1/4 368/1/4 372/1/4
f 372/2/4 369/2/4 373/2/4
f 374/2/4 375/2/4 380/2/4
f 375/1/4 376/1/4 381/1/4
f 380/2/4 375/2/4 381/2/4
f 376/2/4 377/2/4 382/2/4
f 381/1/4 376/1/4 382/1/4
f 377/1/4 378/1/4 383/1/4
f 382/2/4 377/2/4 383/2/4
f 378/2/4 379/2/4 384/2/4
f 383/1/4 378/1/4 384/1/4
f 384/2/4 379/2/4 385/2/4
f 386/2/4 387/2/4 389/2/4
f 387/2/4 388/2/4 389/2/4
f 389/2/4 388/2/4 390/2/4
f 391/2/4 392/2/4 393/2/4
f 393/2/4 392/2/4 394/2/4
f 395/1/4 396/1/4 399/1/4
f 397/2/4 398/2/4 400/2/4
f 399/1/4 396/1/4 400/1/4
f 396/2/4 397/2/4 400/2/4
f 400/2/4 398/2/4 401/2/4
f 402/2/4 403/2/4 404/2/4
f 404/2/4 403/2/4 405/2/4
f 402/2/4 404/2/4 406/2/4
f 404/1/4 405/1/4 406/1/4
f 405/2/4 403/2/4 407/2/4
f 406/1/4 405/1/4 407/1/4
f 402/2/4 406/2/4 408/2/4
f 406/2/4 407/2/4 408/2/4
f 408/2/4 407/2/4 409/2/4
f 407/2/4 403/2/4 410/2/4
f 409/2/4 407/2/4 410/2/4
f 410/2/4 403/2/4 411/2/4
f 408/1/4 409/1/4 412/1/4
f 409/2/4 410/2/4 413/2/4
f 412/1/4 409/1/4 413/1/4
f 410/1/4 411/1/4 414/1/4
f 413/2/4 410/2/4 414/2/4
f 414/1/4 411/1/4 415/1/4
f 419/2/5 417/2/5 416/2/5
f 420/2/5 417/2/5 419/2/5
f 423/2/5 419/2/5 418/2/5
f 423/2/5 421/2/5 420/2/5
f 423/2/5 420/2/5 419/2/5
f 424/2/5 421/2/5 423/2/5
f 425/2/5 421/2/5 424/2/5
f 426/2/5 421/2/5 425/2/5
f 429/2/5 423/2/5 422/2/5
f 429/2/5 424/2/5 423/2/5
f 430/2/5 427/2/5 426/2/5
f 430/2/5 426/2/5 425/2/5
f 432/2/5 429/2/5 428/2/5
f 432/2/5 424/2/5 429/2/5
f 433/4/5 425/4/5 424/4/5
f 433/2/5 424/2/5 432/2/5
f 434/2/5 431/2/5 430/2/5
f 434/4/5 425/4/5 433/4/5
f 434/2/5 430/2/5 425/2/5
f 435/2/5 431/2/5 434/2/5
f 436/2/5 432/2/5 428/2/5
f 437/4/5 433/4/5 432/4/5
f 437/2/5 432/2/5 436/2/5
f 437/4/5 434/4/5 433/4/5
f 437/4/5 435/4/5 434/4/5
f 438/2/5 431/2/5 435/2/5
f 438/4/5 435/4/5 437/4/5
f 439/2/5 431/2/5 438/2/5
f 440/2/5 436/2/5 428/2/5
f 440/4/5 437/4/5 436/4/5
f 440/4/5 439/4/5 438/4/5
f 440/4/5 438/4/5 437/4/5
f 441/4/5 439/4/5 440/4/5
f 442/2/5 441/2/5 440/2/5
f 442/4/5 439/4/5 441/4/5
f 443/4/5 439/4/5 442/4/5
f 444/4/5 439/4/5 443/4/5
f 445/2/5 431/2/5 439/2/5
f 445/4/5 439/4/5 444/4/5
f 446/2/5 440/2/5 428/2/5
f 446/2/5 442/2/5 440/2/5
f 446/2/5 443/2/5 442/2/5
f 447/2/5 443/2/5 446/2/5
f 448/4/5 444/4/5 443/4/5
f 448/2/5 443/2/5 447/2/5
f 449/4/5 444/4/5 448/4/5
f 450/4/5 444/4/5 449/4/5
f 451/2/5 445/2/5 444/2/5
f 451/4/5 444/4/5 450/4/5
f 452/2/5 431/2/5 445/2/5
f 452/2/5 445/2/5 451/2/5
f 453/2/5 431/2/5 452/2/5
f 454/2/5 448/2/5 447/2/5
f 454/2/5 449/2/5 448/2/5
f 455/2/5 449/2/5 454/2/5
f 456/4/5 450/4/5 449/4/5
f 456/2/5 449/2/5 455/2/5
f 457/2/5 451/2/5 450/2/5
f 457/4/5 450/4/5 456/4/5
f 457/2/5 452/2/5 451/2/5
f 458/2/5 452/2/5 457/2/5
f 459/2/5 452/2/5 458/2/5
f 460/2/5 452/2/5 459/2/5
f 461/2/5 456/2/5 455/2/5
f 461/2/5 457/2/5 456/2/5
f 461/2/5 458/2/5 457/2/5
f 462/2/5 458/2/5 461/2/5
f 463/1/5 459/1/5 458/1/5
f 464/1/5 459/1/5 463/1/5
f 465/2/5 458/2/5 462/2/5
f 466/1/5 463/1/5 458/1/5
f 466/2/5 458/2/5 465/2/5
f 467/1/5 463/1/5 466/1/5
f 470/2/5 469/2/5 468/2/5
f 471/2/5 469/2/5 470/2/5
f 474/3/5 473/3/5 472/3/5
f 475/3/5 473/3/5 474/3/5
f 476/2/6 477/2/6 478/2/6
f 478/2/6 477/2/6 479/2/6
f 480/4/6 481/4/6 483/4/6
f 483/4/6 481/4/6 484/4/6
f 482/4/6 483/4/6 487/4/6
f 484/4/6 485/4/6 487/4/6
f 483/4/6 484/4/6 487/4/6
f 487/4/6 485/4/6 488/4/6
f 486/4/6 487/4/6 491/4/6
f 488/4/6 489/4/6 491/4/6
f 487/4/6 488/4/6 491/4/6
f 491/4/6 489/4/6 492/4/6
f 490/4/6 491/4/6 493/4/6
f 491/4/6 492/4/6 493/4/6
f 493/4/6 492/4/6 494/4/6
f 494/4/6 492/4/6 495/4/6
f 494/4/6 495/4/6 496/4/6
f 496/4/6 495/4/6 497/4/6
f 497/4/6 495/4/6 498/4/6
f 498/4/6 495/4/6 499/4/6
f 497/4/6 498/4/6 500/4/6
f 500/4/6 498/4/6 501/4/6
f 501/4/6 498/4/6 502/4/6
f 502/4/6 498/4/6 503/4/6
f 501/4/6 502/4/6 504/4/6
f 504/4/6 502/4/6 505/4/6
f 506/4/6 507/4/6 508/4/6
f 508/4/6 507/4/6 509/4/6
f 510/2/6 511/2/6 513/2/6
f 513/2/6 511/2/6 514/2/6
f 512/2/6 513/2/6 517/2/6
f 514/2/6 515/2/6 517/2/6
f 513/2/6 514/2/6 517/2/6
f 517/2/6 515/2/6 518/2/6
f 518/2/6 515/2/6 519/2/6
f 519/2/6 515/2/6 520/2/6
f 516/2/6 517/2/6 523/2/6
f 517/2/6 518/2/6 523/2/6
f 523/2/6 518/2/6 524/2/6
f 524/2/6 518/2/6 525/2/6
f 519/2/6 520/2/6 526/2/6
f 520/2/6 521/2/6 526/2/6
f 526/2/6 521/2/6 527/2/6
f 527/2/6 521/2/6 528/2/6
f 523/2/6 524/2/6 530/2/6
f 522/2/6 523/2/6 530/2/6
f 530/2/6 524/2/6 531/2/6
f 528/2/6 529/2/6 532/2/6
f 527/2/6 528/2/6 532/2/6
f 532/2/6 529/2/6 533/2/6
f 522/2/6 530/2/6 534/2/6
f 534/2/6 530/2/6 535/2/6
f 535/2/6 530/2/6 536/2/6
f 536/2/6 530/2/6 537/2/6
f 533/2/6 529/2/6 538/2/6
f 538/2/6 529/2/6 539/2/6
f 539/2/6 529/2/6 540/2/6
f 540/2/6 529/2/6 541/2/6
f 535/2/6 536/2/6 542/2/6
f 539/2/6 540/2/6 545/2/6
f 542/2/6 543/2/6 547/2/6
f 535/2/6 542/2/6 547/2/6
f 547/2/6 543/2/6 548/2/6
f 544/2/6 545/2/6 551/2/6
f 545/2/6 540/2/6 552/2/6
f 551/2/6 545/2/6 552/2/6
f 548/2/6 549/2/6 554/2/6
f 546/2/6 547/2/6 554/2/6
f 547/2/6 548/2/6 554/2/6
f 554/2/6 549/2/6 555/2/6
f 555/2/6 549/2/6 556/2/6
f 552/2/6 553/2/6 559/2/6
f 550/2/6 551/2/6 559/2/6
f 551/2/6 552/2/6 559/2/6
f 559/2/6 553/2/6 560/2/6
f 560/2/6 553/2/6 561/2/6
f 556/2/6 557/2/6 562/2/6
f 555/2/6 556/2/6 562/2/6
f 562/2/6 557/2/6 563/2/6
f 563/2/6 557/2/6 564/2/6
f 559/2/6 560/2/6 565/2/6
f 558/2/6 559/2/6 565/2/6
f 565/2/6 560/2/6 566/2/6
f 566/2/6 560/2/6 567/2/6
f 563/2/6 564/2/6 568/2/6
f 565/2/6 566/2/6 568/2/6
f 564/2/6 565/2/6 568/2/6
f 568/2/6 566/2/6 569/2/6
f 569/2/6 566/2/6 570/2/6
f 570/2/6 566/2/6 571/2/6
f 571/2/6 566/2/6 572/2/6
f 569/2/6 570/2/6 573/2/6
f 570/1/6 571/1/6 574/1/6
f 573/2/6 570/2/6 574/2/6
f 574/1/6 571/1/6 575/1/6
f 576/3/6 577/3/6 580/3/6
f 580/3/6 577/3/6 581/3/6
f 578/3/6 579/3/6 582/3/6
f 582/3/6 579/3/6 583/3/6
f 584/3/6 585/3/6 586/3/6
f 586/3/6 585/3/6 587/3/6
