# MagicaVoxel @ Ephtracy

# material
mtllib rumput.mtl
usemtl palette

# normals
vn -1 0 0
vn 1 0 0
vn 0 0 1
vn 0 0 -1
vn 0 -1 0
vn 0 1 0

# texcoords
vt 0.970703 0.5

# verts
v -41 27 -44
v -41 27 -45
v -41 29 -44
v -41 29 -45
v -40 27 -26
v -40 27 -27
v -40 29 -26
v -40 29 -27
v -39 27 -35
v -39 27 -36
v -39 31 -35
v -39 31 -36
v -38 27 -33
v -38 27 -35
v -38 27 -36
v -38 27 -38
v -38 30 -33
v -38 30 -35
v -38 30 -36
v -38 30 -38
v -37 27 -38
v -37 27 -39
v -37 28 -38
v -37 28 -39
v -37 29 -38
v -37 29 -39
v -37 30 -34
v -37 30 -35
v -37 30 -37
v -37 30 -38
v -37 31 -35
v -37 31 -36
v -37 31 -37
v -37 31 -39
v -37 32 -34
v -37 32 -37
v -36 27 -31
v -36 27 -33
v -36 28 -31
v -36 28 -32
v -36 28 -38
v -36 28 -39
v -36 28 -40
v -36 29 -38
v -36 29 -39
v -36 29 -40
v -36 30 -32
v -36 30 -33
v -36 30 -36
v -36 30 -37
v -36 31 -36
v -36 31 -37
v -36 31 -38
v -36 32 -36
v -36 32 -37
v -36 32 -38
v -36 33 -36
v -36 33 -37
v -35 27 -30
v -35 27 -31
v -35 27 -38
v -35 27 -40
v -35 28 -30
v -35 28 -31
v -35 28 -38
v -35 28 -40
v -35 32 -35
v -35 32 -36
v -35 33 -35
v -35 33 -36
v -34 28 -38
v -34 28 -39
v -34 29 -32
v -34 29 -33
v -34 30 -33
v -34 30 -34
v -34 30 -36
v -34 30 -37
v -34 30 -38
v -34 30 -39
v -34 31 -32
v -34 31 -34
v -34 31 -36
v -34 31 -37
v -34 33 -35
v -34 33 -37
v -34 34 -35
v -34 34 -37
v -33 28 -32
v -33 28 -33
v -33 29 -31
v -33 29 -32
v -33 29 -33
v -33 29 -39
v -33 29 -40
v -33 30 -31
v -33 30 -32
v -33 30 -37
v -33 30 -38
v -33 30 -39
v -33 30 -40
v -33 31 -37
v -33 31 -38
v -32 27 -38
v -32 27 -39
v -32 28 -38
v -32 28 -39
v -31 27 -35
v -31 27 -36
v -31 29 -35
v -31 29 -36
v -27 27 -38
v -27 27 -39
v -27 29 -38
v -27 29 -39
v -26 27 -29
v -26 27 -30
v -26 29 -29
v -26 29 -30
v -40 27 -44
v -40 27 -45
v -40 29 -44
v -40 29 -45
v -39 27 -26
v -39 27 -27
v -39 29 -26
v -39 29 -27
v -36 27 -38
v -36 27 -39
v -36 28 -38
v -36 28 -39
v -36 29 -38
v -36 29 -39
v -36 31 -38
v -36 31 -39
v -35 28 -32
v -35 28 -33
v -35 28 -38
v -35 28 -40
v -35 29 -38
v -35 29 -40
v -35 30 -32
v -35 30 -33
v -35 30 -36
v -35 30 -37
v -35 31 -36
v -35 31 -37
v -35 31 -38
v -35 32 -37
v -35 32 -38
v -34 27 -30
v -34 27 -31
v -34 27 -38
v -34 27 -40
v -34 28 -30
v -34 28 -31
v -34 28 -38
v -34 28 -39
v -34 28 -40
v -34 30 -37
v -34 30 -38
v -34 31 -34
v -34 31 -35
v -34 31 -37
v -34 31 -38
v -34 32 -34
v -34 32 -35
v -33 27 -31
v -33 27 -32
v -33 28 -31
v -33 28 -32
v -33 30 -34
v -33 30 -35
v -33 31 -34
v -33 31 -35
v -33 31 -36
v -33 31 -37
v -33 33 -35
v -33 33 -36
v -33 34 -35
v -33 34 -37
v -32 27 -35
v -32 27 -36
v -32 28 -37
v -32 28 -39
v -32 29 -31
v -32 29 -32
v -32 29 -33
v -32 29 -34
v -32 29 -35
v -32 29 -36
v -32 29 -37
v -32 29 -38
v -32 29 -39
v -32 29 -40
v -32 30 -31
v -32 30 -32
v -32 30 -34
v -32 30 -35
v -32 30 -37
v -32 30 -38
v -32 30 -40
v -32 31 -32
v -32 31 -33
v -32 31 -35
v -32 31 -36
v -32 31 -37
v -32 31 -38
v -32 33 -35
v -32 33 -36
v -31 27 -32
v -31 27 -35
v -31 27 -36
v -31 27 -39
v -31 28 -34
v -31 28 -35
v -31 28 -36
v -31 28 -37
v -31 28 -39
v -31 29 -32
v -31 29 -33
v -31 29 -34
v -31 29 -35
v -31 29 -36
v -31 29 -37
v -31 29 -38
v -31 30 -36
v -31 30 -37
v -31 30 -38
v -31 31 -33
v -31 31 -34
v -31 31 -35
v -31 31 -37
v -30 28 -34
v -30 28 -35
v -30 28 -36
v -30 28 -37
v -30 29 -34
v -30 29 -36
v -30 30 -36
v -30 30 -37
v -29 27 -35
v -29 27 -36
v -29 28 -35
v -29 28 -36
v -26 27 -38
v -26 27 -39
v -26 29 -38
v -26 29 -39
v -25 27 -29
v -25 27 -30
v -25 29 -29
v -25 29 -30
v -40 27 -26
v -40 29 -26
v -39 27 -26
v -39 29 -26
v -26 27 -29
v -26 29 -29
v -25 27 -29
v -25 29 -29
v -35 27 -30
v -35 28 -30
v -34 27 -30
v -34 28 -30
v -36 27 -31
v -36 28 -31
v -35 27 -31
v -35 28 -31
v -34 27 -31
v -34 28 -31
v -33 27 -31
v -33 28 -31
v -33 29 -31
v -33 30 -31
v -32 29 -31
v -32 30 -31
v -36 28 -32
v -36 30 -32
v -35 28 -32
v -35 30 -32
v -34 29 -32
v -34 31 -32
v -33 27 -32
v -33 28 -32
v -33 29 -32
v -33 30 -32
v -32 29 -32
v -32 30 -32
v -32 31 -32
v -31 27 -32
v -31 29 -32
v -38 27 -33
v -38 30 -33
v -36 27 -33
v -36 30 -33
v -35 28 -33
v -35 30 -33
v -34 29 -33
v -34 30 -33
v -33 28 -33
v -33 29 -33
v -32 29 -33
v -32 31 -33
v -31 29 -33
v -31 31 -33
v -37 30 -34
v -37 32 -34
v -34 30 -34
v -34 31 -34
v -34 32 -34
v -31 28 -34
v -31 29 -34
v -30 28 -34
v -30 29 -34
v -39 27 -35
v -39 31 -35
v -38 27 -35
v -38 30 -35
v -37 30 -35
v -37 31 -35
v -35 32 -35
v -35 33 -35
v -34 31 -35
v -34 32 -35
v -34 33 -35
v -34 34 -35
v -33 30 -35
v -33 31 -35
v -33 33 -35
v -33 34 -35
v -32 29 -35
v -32 30 -35
v -32 31 -35
v -32 33 -35
v -31 27 -35
v -31 28 -35
v -31 29 -35
v -31 31 -35
v -30 28 -35
v -29 27 -35
v -29 28 -35
v -36 32 -36
v -36 33 -36
v -35 32 -36
v -35 33 -36
v -32 27 -36
v -32 29 -36
v -31 27 -36
v -31 29 -36
v -31 30 -36
v -30 29 -36
v -30 30 -36
v -37 30 -37
v -37 31 -37
v -36 30 -37
v -36 31 -37
v -35 30 -37
v -35 31 -37
v -34 30 -37
v -34 31 -37
v -27 27 -38
v -27 29 -38
v -26 27 -38
v -26 29 -38
v -41 27 -44
v -41 29 -44
v -40 27 -44
v -40 29 -44
v -40 27 -27
v -40 29 -27
v -39 27 -27
v -39 29 -27
v -26 27 -30
v -26 29 -30
v -25 27 -30
v -25 29 -30
v -33 30 -34
v -33 31 -34
v -32 29 -34
v -32 30 -34
v -31 29 -34
v -31 31 -34
v -32 27 -35
v -32 29 -35
v -31 27 -35
v -31 29 -35
v -39 27 -36
v -39 31 -36
v -38 27 -36
v -38 30 -36
v -37 31 -36
v -36 30 -36
v -36 31 -36
v -35 30 -36
v -35 31 -36
v -34 30 -36
v -34 31 -36
v -33 31 -36
v -33 33 -36
v -32 31 -36
v -32 33 -36
v -31 27 -36
v -31 28 -36
v -30 28 -36
v -29 27 -36
v -29 28 -36
v -37 31 -37
v -37 32 -37
v -36 31 -37
v -36 32 -37
v -36 33 -37
v -35 31 -37
v -35 32 -37
v -34 30 -37
v -34 31 -37
v -34 33 -37
v -34 34 -37
v -33 30 -37
v -33 31 -37
v -33 34 -37
v -32 28 -37
v -32 29 -37
v -32 30 -37
v -32 31 -37
v -31 28 -37
v -31 29 -37
v -31 30 -37
v -31 31 -37
v -30 28 -37
v -30 30 -37
v -38 27 -38
v -38 30 -38
v -37 27 -38
v -37 28 -38
v -37 29 -38
v -37 30 -38
v -36 27 -38
v -36 28 -38
v -36 29 -38
v -36 31 -38
v -36 32 -38
v -35 27 -38
v -35 28 -38
v -35 29 -38
v -35 31 -38
v -35 32 -38
v -34 27 -38
v -34 28 -38
v -34 30 -38
v -34 31 -38
v -33 30 -38
v -33 31 -38
v -32 27 -38
v -32 28 -38
v -32 29 -38
v -32 30 -38
v -32 31 -38
v -31 29 -38
v -31 30 -38
v -37 27 -39
v -37 28 -39
v -37 29 -39
v -37 31 -39
v -36 27 -39
v -36 28 -39
v -36 29 -39
v -36 31 -39
v -34 28 -39
v -34 30 -39
v -33 29 -39
v -33 30 -39
v -32 27 -39
v -32 28 -39
v -32 29 -39
v -31 27 -39
v -31 28 -39
v -27 27 -39
v -27 29 -39
v -26 27 -39
v -26 29 -39
v -36 28 -40
v -36 29 -40
v -35 27 -40
v -35 28 -40
v -35 29 -40
v -34 27 -40
v -34 28 -40
v -33 29 -40
v -33 30 -40
v -32 29 -40
v -32 30 -40
v -41 27 -45
v -41 29 -45
v -40 27 -45
v -40 29 -45
v -40 27 -26
v -39 27 -26
v -40 27 -27
v -39 27 -27
v -26 27 -29
v -25 27 -29
v -35 27 -30
v -34 27 -30
v -26 27 -30
v -25 27 -30
v -36 27 -31
v -35 27 -31
v -34 27 -31
v -33 27 -31
v -33 27 -32
v -31 27 -32
v -38 27 -33
v -36 27 -33
v -39 27 -35
v -38 27 -35
v -32 27 -35
v -31 27 -35
v -29 27 -35
v -39 27 -36
v -38 27 -36
v -32 27 -36
v -31 27 -36
v -29 27 -36
v -38 27 -38
v -37 27 -38
v -36 27 -38
v -35 27 -38
v -34 27 -38
v -32 27 -38
v -27 27 -38
v -26 27 -38
v -37 27 -39
v -36 27 -39
v -32 27 -39
v -31 27 -39
v -27 27 -39
v -26 27 -39
v -35 27 -40
v -34 27 -40
v -41 27 -44
v -40 27 -44
v -41 27 -45
v -40 27 -45
v -31 28 -34
v -30 28 -34
v -31 28 -35
v -30 28 -35
v -31 28 -36
v -30 28 -36
v -31 28 -37
v -30 28 -37
v -36 28 -38
v -35 28 -38
v -34 28 -38
v -32 28 -38
v -36 28 -39
v -34 28 -39
v -32 28 -39
v -36 28 -40
v -35 28 -40
v -33 29 -31
v -32 29 -31
v -34 29 -32
v -33 29 -32
v -32 29 -32
v -34 29 -33
v -33 29 -33
v -32 29 -35
v -31 29 -35
v -32 29 -36
v -31 29 -36
v -32 29 -37
v -31 29 -37
v -37 29 -38
v -36 29 -38
v -32 29 -38
v -31 29 -38
v -37 29 -39
v -36 29 -39
v -33 29 -39
v -32 29 -39
v -33 29 -40
v -32 29 -40
v -37 31 -36
v -36 31 -36
v -35 31 -36
v -34 31 -36
v -37 31 -37
v -36 31 -37
v -35 31 -37
v -34 31 -37
v -35 28 -30
v -34 28 -30
v -36 28 -31
v -35 28 -31
v -34 28 -31
v -33 28 -31
v -36 28 -32
v -35 28 -32
v -33 28 -32
v -35 28 -33
v -33 28 -33
v -30 28 -35
v -29 28 -35
v -30 28 -36
v -29 28 -36
v -32 28 -37
v -31 28 -37
v -37 28 -38
v -36 28 -38
v -35 28 -38
v -34 28 -38
v -37 28 -39
v -36 28 -39
v -34 28 -39
v -32 28 -39
v -31 28 -39
v -35 28 -40
v -34 28 -40
v -40 29 -26
v -39 29 -26
v -40 29 -27
v -39 29 -27
v -26 29 -29
v -25 29 -29
v -26 29 -30
v -25 29 -30
v -32 29 -32
v -31 29 -32
v -32 29 -33
v -31 29 -33
v -32 29 -34
v -31 29 -34
v -30 29 -34
v -32 29 -35
v -31 29 -35
v -31 29 -36
v -30 29 -36
v -36 29 -38
v -35 29 -38
v -27 29 -38
v -26 29 -38
v -36 29 -39
v -27 29 -39
v -26 29 -39
v -36 29 -40
v -35 29 -40
v -41 29 -44
v -40 29 -44
v -41 29 -45
v -40 29 -45
v -33 30 -31
v -32 30 -31
v -36 30 -32
v -35 30 -32
v -33 30 -32
v -32 30 -32
v -38 30 -33
v -36 30 -33
v -35 30 -33
v -34 30 -33
v -37 30 -34
v -34 30 -34
v -33 30 -34
v -32 30 -34
v -38 30 -35
v -37 30 -35
v -33 30 -35
v -32 30 -35
v -38 30 -36
v -36 30 -36
v -35 30 -36
v -34 30 -36
v -31 30 -36
v -30 30 -36
v -37 30 -37
v -36 30 -37
v -35 30 -37
v -34 30 -37
v -33 30 -37
v -32 30 -37
v -31 30 -37
v -30 30 -37
v -38 30 -38
v -37 30 -38
v -34 30 -38
v -33 30 -38
v -32 30 -38
v -31 30 -38
v -34 30 -39
v -33 30 -39
v -33 30 -40
v -32 30 -40
v -34 31 -32
v -32 31 -32
v -32 31 -33
v -31 31 -33
v -34 31 -34
v -33 31 -34
v -31 31 -34
v -39 31 -35
v -37 31 -35
v -34 31 -35
v -33 31 -35
v -32 31 -35
v -31 31 -35
v -39 31 -36
v -37 31 -36
v -33 31 -36
v -32 31 -36
v -37 31 -37
v -36 31 -37
v -35 31 -37
v -34 31 -37
v -33 31 -37
v -32 31 -37
v -31 31 -37
v -36 31 -38
v -35 31 -38
v -34 31 -38
v -33 31 -38
v -32 31 -38
v -37 31 -39
v -36 31 -39
v -37 32 -34
v -34 32 -34
v -35 32 -35
v -34 32 -35
v -36 32 -36
v -35 32 -36
v -37 32 -37
v -36 32 -37
v -35 32 -37
v -36 32 -38
v -35 32 -38
v -35 33 -35
v -34 33 -35
v -33 33 -35
v -32 33 -35
v -36 33 -36
v -35 33 -36
v -33 33 -36
v -32 33 -36
v -36 33 -37
v -34 33 -37
v -34 34 -35
v -33 34 -35
v -34 34 -37
v -33 34 -37

# faces
f 3/1/1 2/1/1 1/1/1
f 4/1/1 2/1/1 3/1/1
f 7/1/1 6/1/1 5/1/1
f 8/1/1 6/1/1 7/1/1
f 11/1/1 10/1/1 9/1/1
f 12/1/1 10/1/1 11/1/1
f 17/1/1 14/1/1 13/1/1
f 18/1/1 14/1/1 17/1/1
f 19/1/1 16/1/1 15/1/1
f 20/1/1 16/1/1 19/1/1
f 23/1/1 22/1/1 21/1/1
f 24/1/1 22/1/1 23/1/1
f 30/1/1 26/1/1 25/1/1
f 31/1/1 28/1/1 27/1/1
f 33/1/1 30/1/1 29/1/1
f 34/1/1 26/1/1 30/1/1
f 34/1/1 30/1/1 33/1/1
f 35/1/1 32/1/1 31/1/1
f 35/1/1 33/1/1 32/1/1
f 35/1/1 31/1/1 27/1/1
f 36/1/1 33/1/1 35/1/1
f 39/1/1 38/1/1 37/1/1
f 40/1/1 38/1/1 39/1/1
f 44/1/1 43/1/1 42/1/1
f 44/1/1 42/1/1 41/1/1
f 45/1/1 43/1/1 44/1/1
f 46/1/1 43/1/1 45/1/1
f 47/1/1 38/1/1 40/1/1
f 48/1/1 38/1/1 47/1/1
f 51/1/1 50/1/1 49/1/1
f 52/1/1 50/1/1 51/1/1
f 55/1/1 53/1/1 52/1/1
f 56/1/1 53/1/1 55/1/1
f 57/1/1 55/1/1 54/1/1
f 58/1/1 55/1/1 57/1/1
f 63/1/1 60/1/1 59/1/1
f 64/1/1 60/1/1 63/1/1
f 65/1/1 62/1/1 61/1/1
f 66/1/1 62/1/1 65/1/1
f 69/1/1 68/1/1 67/1/1
f 70/1/1 68/1/1 69/1/1
f 75/1/1 74/1/1 73/1/1
f 79/1/1 72/1/1 71/1/1
f 80/1/1 72/1/1 79/1/1
f 81/1/1 75/1/1 73/1/1
f 81/1/1 76/1/1 75/1/1
f 82/1/1 76/1/1 81/1/1
f 83/1/1 78/1/1 77/1/1
f 84/1/1 78/1/1 83/1/1
f 87/1/1 86/1/1 85/1/1
f 88/1/1 86/1/1 87/1/1
f 92/1/1 90/1/1 89/1/1
f 93/1/1 90/1/1 92/1/1
f 96/1/1 92/1/1 91/1/1
f 97/1/1 92/1/1 96/1/1
f 100/1/1 95/1/1 94/1/1
f 101/1/1 95/1/1 100/1/1
f 102/1/1 99/1/1 98/1/1
f 103/1/1 99/1/1 102/1/1
f 106/1/1 105/1/1 104/1/1
f 107/1/1 105/1/1 106/1/1
f 110/1/1 109/1/1 108/1/1
f 111/1/1 109/1/1 110/1/1
f 114/1/1 113/1/1 112/1/1
f 115/1/1 113/1/1 114/1/1
f 118/1/1 117/1/1 116/1/1
f 119/1/1 117/1/1 118/1/1
f 120/1/2 121/1/2 122/1/2
f 122/1/2 121/1/2 123/1/2
f 124/1/2 125/1/2 126/1/2
f 126/1/2 125/1/2 127/1/2
f 128/1/2 129/1/2 130/1/2
f 130/1/2 129/1/2 131/1/2
f 132/1/2 133/1/2 134/1/2
f 134/1/2 133/1/2 135/1/2
f 138/1/2 139/1/2 140/1/2
f 140/1/2 139/1/2 141/1/2
f 136/1/2 137/1/2 142/1/2
f 142/1/2 137/1/2 143/1/2
f 144/1/2 145/1/2 146/1/2
f 146/1/2 145/1/2 147/1/2
f 147/1/2 148/1/2 149/1/2
f 149/1/2 148/1/2 150/1/2
f 151/1/2 152/1/2 155/1/2
f 155/1/2 152/1/2 156/1/2
f 153/1/2 154/1/2 157/1/2
f 157/1/2 154/1/2 158/1/2
f 158/1/2 154/1/2 159/1/2
f 160/1/2 161/1/2 164/1/2
f 164/1/2 161/1/2 165/1/2
f 162/1/2 163/1/2 166/1/2
f 166/1/2 163/1/2 167/1/2
f 168/1/2 169/1/2 170/1/2
f 170/1/2 169/1/2 171/1/2
f 172/1/2 173/1/2 174/1/2
f 174/1/2 173/1/2 175/1/2
f 176/1/2 177/1/2 179/1/2
f 178/1/2 179/1/2 180/1/2
f 179/1/2 177/1/2 181/1/2
f 180/1/2 179/1/2 181/1/2
f 182/1/2 183/1/2 190/1/2
f 190/1/2 183/1/2 191/1/2
f 184/1/2 185/1/2 192/1/2
f 192/1/2 185/1/2 193/1/2
f 193/1/2 185/1/2 194/1/2
f 187/1/2 188/1/2 196/1/2
f 186/1/2 187/1/2 196/1/2
f 196/1/2 188/1/2 197/1/2
f 189/1/2 190/1/2 198/1/2
f 198/1/2 190/1/2 199/1/2
f 194/1/2 195/1/2 201/1/2
f 193/1/2 194/1/2 201/1/2
f 201/1/2 195/1/2 202/1/2
f 197/1/2 188/1/2 203/1/2
f 203/1/2 188/1/2 204/1/2
f 200/1/2 201/1/2 207/1/2
f 207/1/2 201/1/2 208/1/2
f 205/1/2 206/1/2 209/1/2
f 209/1/2 206/1/2 210/1/2
f 211/1/2 212/1/2 215/1/2
f 215/1/2 212/1/2 216/1/2
f 213/1/2 214/1/2 217/1/2
f 217/1/2 214/1/2 218/1/2
f 218/1/2 214/1/2 219/1/2
f 211/1/2 215/1/2 220/1/2
f 220/1/2 215/1/2 221/1/2
f 221/1/2 215/1/2 222/1/2
f 223/1/2 224/1/2 227/1/2
f 225/1/2 226/1/2 228/1/2
f 228/1/2 226/1/2 229/1/2
f 221/1/2 222/1/2 230/1/2
f 230/1/2 222/1/2 231/1/2
f 223/1/2 227/1/2 232/1/2
f 227/1/2 228/1/2 232/1/2
f 232/1/2 228/1/2 233/1/2
f 234/1/2 235/1/2 238/1/2
f 236/1/2 237/1/2 238/1/2
f 235/1/2 236/1/2 238/1/2
f 238/1/2 237/1/2 239/1/2
f 239/1/2 237/1/2 240/1/2
f 240/1/2 237/1/2 241/1/2
f 242/1/2 243/1/2 244/1/2
f 244/1/2 243/1/2 245/1/2
f 246/1/2 247/1/2 248/1/2
f 248/1/2 247/1/2 249/1/2
f 250/1/2 251/1/2 252/1/2
f 252/1/2 251/1/2 253/1/2
f 256/1/3 255/1/3 254/1/3
f 257/1/3 255/1/3 256/1/3
f 260/1/3 259/1/3 258/1/3
f 261/1/3 259/1/3 260/1/3
f 264/1/3 263/1/3 262/1/3
f 265/1/3 263/1/3 264/1/3
f 268/1/3 267/1/3 266/1/3
f 269/1/3 267/1/3 268/1/3
f 272/1/3 271/1/3 270/1/3
f 273/1/3 271/1/3 272/1/3
f 276/1/3 275/1/3 274/1/3
f 277/1/3 275/1/3 276/1/3
f 280/1/3 279/1/3 278/1/3
f 281/1/3 279/1/3 280/1/3
f 286/1/3 283/1/3 282/1/3
f 287/1/3 283/1/3 286/1/3
f 288/1/3 285/1/3 284/1/3
f 288/1/3 286/1/3 285/1/3
f 289/1/3 283/1/3 287/1/3
f 290/1/3 283/1/3 289/1/3
f 291/1/3 288/1/3 284/1/3
f 292/1/3 288/1/3 291/1/3
f 295/1/3 294/1/3 293/1/3
f 296/1/3 294/1/3 295/1/3
f 299/1/3 298/1/3 297/1/3
f 300/1/3 298/1/3 299/1/3
f 301/1/3 299/1/3 297/1/3
f 302/1/3 299/1/3 301/1/3
f 305/1/3 304/1/3 303/1/3
f 306/1/3 304/1/3 305/1/3
f 309/1/3 308/1/3 307/1/3
f 310/1/3 308/1/3 309/1/3
f 311/1/3 308/1/3 310/1/3
f 314/1/3 313/1/3 312/1/3
f 315/1/3 313/1/3 314/1/3
f 318/1/3 317/1/3 316/1/3
f 319/1/3 317/1/3 318/1/3
f 320/1/3 317/1/3 319/1/3
f 321/1/3 317/1/3 320/1/3
f 325/1/3 323/1/3 322/1/3
f 326/1/3 323/1/3 325/1/3
f 329/1/3 325/1/3 324/1/3
f 329/1/3 327/1/3 326/1/3
f 329/1/3 326/1/3 325/1/3
f 330/1/3 327/1/3 329/1/3
f 331/1/3 327/1/3 330/1/3
f 333/1/3 329/1/3 328/1/3
f 333/1/3 330/1/3 329/1/3
f 334/1/3 330/1/3 333/1/3
f 335/1/3 330/1/3 334/1/3
f 338/1/3 333/1/3 332/1/3
f 338/1/3 334/1/3 333/1/3
f 339/1/3 334/1/3 338/1/3
f 340/1/3 337/1/3 336/1/3
f 341/1/3 340/1/3 336/1/3
f 342/1/3 340/1/3 341/1/3
f 345/1/3 344/1/3 343/1/3
f 346/1/3 344/1/3 345/1/3
f 349/1/3 348/1/3 347/1/3
f 350/1/3 348/1/3 349/1/3
f 352/1/3 351/1/3 350/1/3
f 353/1/3 351/1/3 352/1/3
f 356/1/3 355/1/3 354/1/3
f 357/1/3 355/1/3 356/1/3
f 360/1/3 359/1/3 358/1/3
f 361/1/3 359/1/3 360/1/3
f 364/1/3 363/1/3 362/1/3
f 365/1/3 363/1/3 364/1/3
f 368/1/3 367/1/3 366/1/3
f 369/1/3 367/1/3 368/1/3
f 370/1/4 371/1/4 372/1/4
f 372/1/4 371/1/4 373/1/4
f 374/1/4 375/1/4 376/1/4
f 376/1/4 375/1/4 377/1/4
f 378/1/4 379/1/4 381/1/4
f 380/1/4 381/1/4 382/1/4
f 381/1/4 379/1/4 383/1/4
f 382/1/4 381/1/4 383/1/4
f 384/1/4 385/1/4 386/1/4
f 386/1/4 385/1/4 387/1/4
f 388/1/4 389/1/4 390/1/4
f 390/1/4 389/1/4 391/1/4
f 391/1/4 389/1/4 392/1/4
f 391/1/4 392/1/4 393/1/4
f 393/1/4 392/1/4 394/1/4
f 395/1/4 396/1/4 397/1/4
f 397/1/4 396/1/4 398/1/4
f 399/1/4 400/1/4 401/1/4
f 401/1/4 400/1/4 402/1/4
f 403/1/4 404/1/4 405/1/4
f 403/1/4 405/1/4 406/1/4
f 406/1/4 405/1/4 407/1/4
f 408/1/4 409/1/4 410/1/4
f 410/1/4 409/1/4 411/1/4
f 411/1/4 412/1/4 414/1/4
f 413/1/4 414/1/4 416/1/4
f 414/1/4 412/1/4 417/1/4
f 416/1/4 414/1/4 417/1/4
f 415/1/4 416/1/4 419/1/4
f 417/1/4 418/1/4 419/1/4
f 416/1/4 417/1/4 419/1/4
f 419/1/4 418/1/4 420/1/4
f 420/1/4 418/1/4 421/1/4
f 422/1/4 423/1/4 426/1/4
f 426/1/4 423/1/4 427/1/4
f 424/1/4 425/1/4 428/1/4
f 428/1/4 425/1/4 429/1/4
f 426/1/4 427/1/4 430/1/4
f 427/1/4 428/1/4 430/1/4
f 430/1/4 428/1/4 431/1/4
f 432/1/4 433/1/4 434/1/4
f 434/1/4 433/1/4 435/1/4
f 435/1/4 433/1/4 436/1/4
f 436/1/4 433/1/4 437/1/4
f 435/1/4 436/1/4 439/1/4
f 439/1/4 436/1/4 440/1/4
f 438/1/4 439/1/4 443/1/4
f 443/1/4 439/1/4 444/1/4
f 441/1/4 442/1/4 445/1/4
f 440/1/4 441/1/4 445/1/4
f 445/1/4 442/1/4 446/1/4
f 446/1/4 442/1/4 447/1/4
f 444/1/4 445/1/4 449/1/4
f 445/1/4 446/1/4 449/1/4
f 449/1/4 446/1/4 450/1/4
f 450/1/4 446/1/4 451/1/4
f 448/1/4 449/1/4 454/1/4
f 454/1/4 449/1/4 455/1/4
f 452/1/4 453/1/4 457/1/4
f 457/1/4 453/1/4 458/1/4
f 456/1/4 457/1/4 459/1/4
f 459/1/4 457/1/4 460/1/4
f 461/1/4 462/1/4 465/1/4
f 465/1/4 462/1/4 466/1/4
f 463/1/4 464/1/4 467/1/4
f 467/1/4 464/1/4 468/1/4
f 469/1/4 470/1/4 471/1/4
f 471/1/4 470/1/4 472/1/4
f 469/1/4 471/1/4 474/1/4
f 474/1/4 471/1/4 475/1/4
f 473/1/4 474/1/4 476/1/4
f 476/1/4 474/1/4 477/1/4
f 478/1/4 479/1/4 480/1/4
f 480/1/4 479/1/4 481/1/4
f 482/1/4 483/1/4 485/1/4
f 485/1/4 483/1/4 486/1/4
f 484/1/4 485/1/4 487/1/4
f 487/1/4 485/1/4 488/1/4
f 489/1/4 490/1/4 491/1/4
f 491/1/4 490/1/4 492/1/4
f 493/1/4 494/1/4 495/1/4
f 495/1/4 494/1/4 496/1/4
f 499/1/5 498/1/5 497/1/5
f 500/1/5 498/1/5 499/1/5
f 505/1/5 502/1/5 501/1/5
f 506/1/5 502/1/5 505/1/5
f 508/1/5 504/1/5 503/1/5
f 509/1/5 504/1/5 508/1/5
f 511/1/5 508/1/5 507/1/5
f 511/1/5 510/1/5 509/1/5
f 511/1/5 509/1/5 508/1/5
f 514/1/5 511/1/5 507/1/5
f 514/1/5 512/1/5 511/1/5
f 516/1/5 514/1/5 513/1/5
f 517/1/5 512/1/5 514/1/5
f 517/1/5 514/1/5 516/1/5
f 518/1/5 512/1/5 517/1/5
f 520/1/5 516/1/5 515/1/5
f 520/1/5 517/1/5 516/1/5
f 521/1/5 517/1/5 520/1/5
f 522/1/5 517/1/5 521/1/5
f 523/1/5 519/1/5 518/1/5
f 524/1/5 519/1/5 523/1/5
f 525/1/5 522/1/5 521/1/5
f 525/1/5 523/1/5 522/1/5
f 526/1/5 523/1/5 525/1/5
f 527/1/5 523/1/5 526/1/5
f 528/1/5 523/1/5 527/1/5
f 529/1/5 523/1/5 528/1/5
f 530/1/5 523/1/5 529/1/5
f 533/1/5 527/1/5 526/1/5
f 534/1/5 527/1/5 533/1/5
f 535/1/5 523/1/5 530/1/5
f 536/1/5 523/1/5 535/1/5
f 537/1/5 532/1/5 531/1/5
f 538/1/5 532/1/5 537/1/5
f 539/1/5 529/1/5 528/1/5
f 540/1/5 529/1/5 539/1/5
f 543/1/5 542/1/5 541/1/5
f 544/1/5 542/1/5 543/1/5
f 547/1/5 546/1/5 545/1/5
f 548/1/5 546/1/5 547/1/5
f 551/1/5 550/1/5 549/1/5
f 552/1/5 550/1/5 551/1/5
f 557/1/5 554/1/5 553/1/5
f 558/1/5 556/1/5 555/1/5
f 559/1/5 556/1/5 558/1/5
f 560/1/5 554/1/5 557/1/5
f 561/1/5 554/1/5 560/1/5
f 565/1/5 563/1/5 562/1/5
f 566/1/5 563/1/5 565/1/5
f 567/1/5 565/1/5 564/1/5
f 568/1/5 565/1/5 567/1/5
f 571/1/5 570/1/5 569/1/5
f 572/1/5 570/1/5 571/1/5
f 577/1/5 574/1/5 573/1/5
f 578/1/5 574/1/5 577/1/5
f 579/1/5 576/1/5 575/1/5
f 580/1/5 576/1/5 579/1/5
f 583/1/5 582/1/5 581/1/5
f 584/1/5 582/1/5 583/1/5
f 589/1/5 586/1/5 585/1/5
f 590/1/5 586/1/5 589/1/5
f 591/1/5 588/1/5 587/1/5
f 592/1/5 588/1/5 591/1/5
f 593/1/6 594/1/6 596/1/6
f 596/1/6 594/1/6 597/1/6
f 595/1/6 596/1/6 599/1/6
f 597/1/6 598/1/6 599/1/6
f 596/1/6 597/1/6 599/1/6
f 599/1/6 598/1/6 600/1/6
f 600/1/6 598/1/6 601/1/6
f 600/1/6 601/1/6 602/1/6
f 602/1/6 601/1/6 603/1/6
f 604/1/6 605/1/6 606/1/6
f 606/1/6 605/1/6 607/1/6
f 610/1/6 611/1/6 614/1/6
f 614/1/6 611/1/6 615/1/6
f 612/1/6 613/1/6 616/1/6
f 608/1/6 609/1/6 617/1/6
f 617/1/6 609/1/6 618/1/6
f 612/1/6 616/1/6 619/1/6
f 619/1/6 616/1/6 620/1/6
f 621/1/6 622/1/6 623/1/6
f 623/1/6 622/1/6 624/1/6
f 625/1/6 626/1/6 627/1/6
f 627/1/6 626/1/6 628/1/6
f 629/1/6 630/1/6 631/1/6
f 631/1/6 630/1/6 632/1/6
f 633/1/6 634/1/6 636/1/6
f 634/1/6 635/1/6 636/1/6
f 636/1/6 635/1/6 637/1/6
f 637/1/6 635/1/6 638/1/6
f 638/1/6 635/1/6 639/1/6
f 640/1/6 641/1/6 644/1/6
f 642/1/6 643/1/6 645/1/6
f 645/1/6 643/1/6 646/1/6
f 644/1/6 641/1/6 647/1/6
f 647/1/6 641/1/6 648/1/6
f 649/1/6 650/1/6 651/1/6
f 651/1/6 650/1/6 652/1/6
f 653/1/6 654/1/6 657/1/6
f 657/1/6 654/1/6 658/1/6
f 655/1/6 656/1/6 660/1/6
f 660/1/6 656/1/6 661/1/6
f 659/1/6 660/1/6 663/1/6
f 661/1/6 662/1/6 663/1/6
f 660/1/6 661/1/6 663/1/6
f 663/1/6 662/1/6 664/1/6
f 659/1/6 663/1/6 667/1/6
f 667/1/6 663/1/6 668/1/6
f 665/1/6 666/1/6 669/1/6
f 669/1/6 666/1/6 670/1/6
f 671/1/6 672/1/6 677/1/6
f 677/1/6 672/1/6 678/1/6
f 673/1/6 674/1/6 679/1/6
f 679/1/6 674/1/6 680/1/6
f 675/1/6 676/1/6 683/1/6
f 683/1/6 676/1/6 684/1/6
f 671/1/6 677/1/6 685/1/6
f 685/1/6 677/1/6 686/1/6
f 680/1/6 681/1/6 687/1/6
f 687/1/6 681/1/6 688/1/6
f 682/1/6 683/1/6 689/1/6
f 689/1/6 683/1/6 690/1/6
f 687/1/6 688/1/6 691/1/6
f 688/1/6 689/1/6 691/1/6
f 691/1/6 689/1/6 692/1/6
f 692/1/6 689/1/6 693/1/6
f 693/1/6 689/1/6 694/1/6
f 695/1/6 696/1/6 697/1/6
f 695/1/6 697/1/6 699/1/6
f 697/1/6 698/1/6 699/1/6
f 699/1/6 698/1/6 700/1/6
f 700/1/6 698/1/6 701/1/6
f 699/1/6 700/1/6 704/1/6
f 704/1/6 700/1/6 705/1/6
f 702/1/6 703/1/6 708/1/6
f 708/1/6 703/1/6 709/1/6
f 706/1/6 707/1/6 711/1/6
f 710/1/6 711/1/6 716/1/6
f 711/1/6 707/1/6 717/1/6
f 716/1/6 711/1/6 717/1/6
f 717/1/6 707/1/6 718/1/6
f 712/1/6 713/1/6 719/1/6
f 714/1/6 715/1/6 720/1/6
f 720/1/6 715/1/6 721/1/6
f 716/1/6 717/1/6 722/1/6
f 722/1/6 717/1/6 723/1/6
f 712/1/6 719/1/6 724/1/6
f 724/1/6 719/1/6 725/1/6
f 726/1/6 727/1/6 728/1/6
f 728/1/6 727/1/6 729/1/6
f 726/1/6 728/1/6 730/1/6
f 730/1/6 728/1/6 731/1/6
f 726/1/6 730/1/6 732/1/6
f 732/1/6 730/1/6 733/1/6
f 733/1/6 734/1/6 735/1/6
f 735/1/6 734/1/6 736/1/6
f 737/1/6 738/1/6 742/1/6
f 739/1/6 740/1/6 743/1/6
f 743/1/6 740/1/6 744/1/6
f 741/1/6 742/1/6 745/1/6
f 742/1/6 738/1/6 746/1/6
f 745/1/6 742/1/6 746/1/6
f 747/1/6 748/1/6 749/1/6
f 749/1/6 748/1/6 750/1/6
