# MagicaVoxel @ Ephtracy

# material
mtllib meriam_towerlevel3.mtl
usemtl palette

# normals
vn -1 0 0
vn 1 0 0
vn 0 0 1
vn 0 0 -1
vn 0 -1 0
vn 0 1 0

# texcoords
vt 0.845703 0.5
vt 0.876953 0.5
vt 0.912109 0.5
vt 0.951172 0.5

# verts
v -52 58 -16
v -52 58 -21
v -52 66 -16
v -52 66 -21
v -51 58 -15
v -51 58 -16
v -51 58 -21
v -51 58 -22
v -51 61 -15
v -51 61 -16
v -51 61 -21
v -51 61 -22
v -50 58 -14
v -50 58 -15
v -50 58 -22
v -50 58 -23
v -50 61 -15
v -50 61 -22
v -50 66 -14
v -50 66 -15
v -50 66 -22
v -50 66 -23
v -45 59 -15
v -45 59 -16
v -45 59 -21
v -45 59 -22
v -45 60 -15
v -45 60 -16
v -45 60 -21
v -45 61 -21
v -45 61 -22
v -44 59 -16
v -44 59 -21
v -44 60 -16
v -44 60 -17
v -44 60 -20
v -44 60 -21
v -38 59 -17
v -38 59 -20
v -38 60 -16
v -38 60 -17
v -38 60 -20
v -38 60 -21
v -38 61 -15
v -38 61 -16
v -38 61 -17
v -38 61 -20
v -38 61 -21
v -38 61 -22
v -38 64 -15
v -38 64 -16
v -38 64 -17
v -38 64 -20
v -38 64 -21
v -38 64 -22
v -38 65 -16
v -38 65 -17
v -38 65 -20
v -38 65 -21
v -38 66 -17
v -38 66 -20
v -51 59 -16
v -51 59 -21
v -51 60 -16
v -51 60 -21
v -51 62 -18
v -51 62 -19
v -51 63 -18
v -51 63 -19
v -51 64 -16
v -51 64 -17
v -51 64 -20
v -51 64 -21
v -51 65 -17
v -51 65 -20
v -51 66 -16
v -51 66 -21
v -50 59 -15
v -50 59 -16
v -50 59 -21
v -50 59 -22
v -50 60 -15
v -50 60 -16
v -50 60 -21
v -50 61 -21
v -50 61 -22
v -45 58 -14
v -45 58 -15
v -45 58 -22
v -45 58 -23
v -45 61 -15
v -45 61 -22
v -45 66 -14
v -45 66 -15
v -45 66 -22
v -45 66 -23
v -44 58 -15
v -44 58 -16
v -44 58 -21
v -44 58 -22
v -44 61 -15
v -44 61 -16
v -44 61 -21
v -44 61 -22
v -43 58 -16
v -43 58 -21
v -43 60 -17
v -43 60 -20
v -43 61 -16
v -43 61 -17
v -43 61 -20
v -43 61 -21
v -36 61 -18
v -36 61 -19
v -36 62 -17
v -36 62 -18
v -36 62 -19
v -36 62 -20
v -36 63 -17
v -36 63 -18
v -36 63 -19
v -36 63 -20
v -36 64 -18
v -36 64 -19
v -35 59 -17
v -35 59 -20
v -35 60 -16
v -35 60 -17
v -35 60 -20
v -35 60 -21
v -35 61 -15
v -35 61 -16
v -35 61 -18
v -35 61 -19
v -35 61 -21
v -35 61 -22
v -35 62 -17
v -35 62 -18
v -35 62 -19
v -35 62 -20
v -35 63 -17
v -35 63 -18
v -35 63 -19
v -35 63 -20
v -35 64 -15
v -35 64 -16
v -35 64 -18
v -35 64 -19
v -35 64 -21
v -35 64 -22
v -35 65 -16
v -35 65 -17
v -35 65 -20
v -35 65 -21
v -35 66 -17
v -35 66 -20
v -50 58 -14
v -50 66 -14
v -45 58 -14
v -45 66 -14
v -51 58 -15
v -51 61 -15
v -50 58 -15
v -50 61 -15
v -45 58 -15
v -45 61 -15
v -44 58 -15
v -44 61 -15
v -38 61 -15
v -38 64 -15
v -35 61 -15
v -35 64 -15
v -52 58 -16
v -52 66 -16
v -51 58 -16
v -51 61 -16
v -51 64 -16
v -51 66 -16
v -44 58 -16
v -44 61 -16
v -43 58 -16
v -43 61 -16
v -38 60 -16
v -38 61 -16
v -38 64 -16
v -38 65 -16
v -35 60 -16
v -35 61 -16
v -35 64 -16
v -35 65 -16
v -51 64 -17
v -51 65 -17
v -43 60 -17
v -43 61 -17
v -38 59 -17
v -38 60 -17
v -38 61 -17
v -38 64 -17
v -38 65 -17
v -38 66 -17
v -35 59 -17
v -35 60 -17
v -35 65 -17
v -35 66 -17
v -51 62 -19
v -51 63 -19
v -36 61 -19
v -36 62 -19
v -36 63 -19
v -36 64 -19
v -35 61 -19
v -35 62 -19
v -35 63 -19
v -35 64 -19
v -36 62 -20
v -36 63 -20
v -35 62 -20
v -35 63 -20
v -51 59 -21
v -51 60 -21
v -50 59 -21
v -50 60 -21
v -45 59 -21
v -45 60 -21
v -44 59 -21
v -44 60 -21
v -50 59 -22
v -50 61 -22
v -50 66 -22
v -45 59 -22
v -45 61 -22
v -45 66 -22
v -50 59 -15
v -50 60 -15
v -50 61 -15
v -50 66 -15
v -45 59 -15
v -45 60 -15
v -45 61 -15
v -45 66 -15
v -51 59 -16
v -51 60 -16
v -50 59 -16
v -50 60 -16
v -45 59 -16
v -45 60 -16
v -44 59 -16
v -44 60 -16
v -36 62 -17
v -36 63 -17
v -35 62 -17
v -35 63 -17
v -51 62 -18
v -51 63 -18
v -36 61 -18
v -36 62 -18
v -36 63 -18
v -36 64 -18
v -35 61 -18
v -35 62 -18
v -35 63 -18
v -35 64 -18
v -51 64 -20
v -51 65 -20
v -43 60 -20
v -43 61 -20
v -38 59 -20
v -38 60 -20
v -38 61 -20
v -38 64 -20
v -38 65 -20
v -38 66 -20
v -35 59 -20
v -35 60 -20
v -35 65 -20
v -35 66 -20
v -52 58 -21
v -52 66 -21
v -51 58 -21
v -51 61 -21
v -51 64 -21
v -51 66 -21
v -50 60 -21
v -50 61 -21
v -45 60 -21
v -45 61 -21
v -44 58 -21
v -44 61 -21
v -43 58 -21
v -43 61 -21
v -38 60 -21
v -38 61 -21
v -38 64 -21
v -38 65 -21
v -35 60 -21
v -35 61 -21
v -35 64 -21
v -35 65 -21
v -51 58 -22
v -51 61 -22
v -50 58 -22
v -50 61 -22
v -45 58 -22
v -45 61 -22
v -44 58 -22
v -44 61 -22
v -38 61 -22
v -38 64 -22
v -35 61 -22
v -35 64 -22
v -50 58 -23
v -50 66 -23
v -45 58 -23
v -45 66 -23
v -50 58 -14
v -45 58 -14
v -51 58 -15
v -50 58 -15
v -45 58 -15
v -44 58 -15
v -52 58 -16
v -51 58 -16
v -44 58 -16
v -43 58 -16
v -52 58 -21
v -51 58 -21
v -44 58 -21
v -43 58 -21
v -51 58 -22
v -50 58 -22
v -45 58 -22
v -44 58 -22
v -50 58 -23
v -45 58 -23
v -38 59 -17
v -35 59 -17
v -38 59 -20
v -35 59 -20
v -50 60 -15
v -45 60 -15
v -51 60 -16
v -50 60 -16
v -45 60 -16
v -44 60 -16
v -38 60 -16
v -35 60 -16
v -50 60 -17
v -45 60 -17
v -44 60 -17
v -43 60 -17
v -38 60 -17
v -35 60 -17
v -50 60 -20
v -45 60 -20
v -44 60 -20
v -43 60 -20
v -38 60 -20
v -35 60 -20
v -51 60 -21
v -50 60 -21
v -45 60 -21
v -44 60 -21
v -38 60 -21
v -35 60 -21
v -38 61 -15
v -35 61 -15
v -43 61 -16
v -38 61 -16
v -35 61 -16
v -43 61 -17
v -38 61 -17
v -43 61 -20
v -38 61 -20
v -43 61 -21
v -38 61 -21
v -35 61 -21
v -38 61 -22
v -35 61 -22
v -36 63 -17
v -35 63 -17
v -51 63 -18
v -36 63 -18
v -35 63 -18
v -51 63 -19
v -36 63 -19
v -35 63 -19
v -36 63 -20
v -35 63 -20
v -36 64 -18
v -35 64 -18
v -36 64 -19
v -35 64 -19
v -50 59 -15
v -45 59 -15
v -51 59 -16
v -50 59 -16
v -45 59 -16
v -44 59 -16
v -51 59 -21
v -50 59 -21
v -45 59 -21
v -44 59 -21
v -50 59 -22
v -45 59 -22
v -51 61 -15
v -50 61 -15
v -45 61 -15
v -44 61 -15
v -51 61 -16
v -44 61 -16
v -36 61 -18
v -35 61 -18
v -36 61 -19
v -35 61 -19
v -51 61 -21
v -50 61 -21
v -45 61 -21
v -44 61 -21
v -51 61 -22
v -50 61 -22
v -45 61 -22
v -44 61 -22
v -36 62 -17
v -35 62 -17
v -51 62 -18
v -36 62 -18
v -35 62 -18
v -51 62 -19
v -36 62 -19
v -35 62 -19
v -36 62 -20
v -35 62 -20
v -38 64 -15
v -35 64 -15
v -51 64 -16
v -38 64 -16
v -35 64 -16
v -51 64 -17
v -38 64 -17
v -51 64 -20
v -38 64 -20
v -51 64 -21
v -38 64 -21
v -35 64 -21
v -38 64 -22
v -35 64 -22
v -38 65 -16
v -35 65 -16
v -51 65 -17
v -38 65 -17
v -35 65 -17
v -51 65 -20
v -38 65 -20
v -35 65 -20
v -38 65 -21
v -35 65 -21
v -50 66 -14
v -45 66 -14
v -50 66 -15
v -45 66 -15
v -52 66 -16
v -51 66 -16
v -38 66 -17
v -35 66 -17
v -38 66 -20
v -35 66 -20
v -52 66 -21
v -51 66 -21
v -50 66 -22
v -45 66 -22
v -50 66 -23
v -45 66 -23

# faces
f 3/1/1 2/1/1 1/1/1
f 4/1/1 2/1/1 3/1/1
f 9/1/1 6/1/1 5/1/1
f 10/1/1 6/1/1 9/1/1
f 11/1/1 8/1/1 7/1/1
f 12/1/1 8/1/1 11/1/1
f 17/1/1 14/1/1 13/1/1
f 18/1/1 16/1/1 15/1/1
f 19/1/1 17/1/1 13/1/1
f 20/1/1 17/1/1 19/1/1
f 21/1/1 16/1/1 18/1/1
f 22/1/1 16/1/1 21/1/1
f 27/1/1 24/1/1 23/1/1
f 28/1/1 24/1/1 27/1/1
f 29/1/1 26/1/1 25/1/1
f 30/1/1 26/1/1 29/1/1
f 31/1/1 26/1/1 30/1/1
f 34/1/1 33/1/1 32/1/1
f 35/1/1 33/1/1 34/1/1
f 36/1/1 33/1/1 35/1/1
f 37/1/1 33/1/1 36/1/1
f 41/2/1 39/2/1 38/2/1
f 42/2/1 39/2/1 41/2/1
f 45/2/1 41/2/1 40/2/1
f 46/2/1 41/2/1 45/2/1
f 47/2/1 43/2/1 42/2/1
f 48/2/1 43/2/1 47/2/1
f 50/2/1 45/2/1 44/2/1
f 51/2/1 45/2/1 50/2/1
f 54/2/1 49/2/1 48/2/1
f 55/2/1 49/2/1 54/2/1
f 56/2/1 52/2/1 51/2/1
f 57/2/1 52/2/1 56/2/1
f 58/2/1 54/2/1 53/2/1
f 59/2/1 54/2/1 58/2/1
f 60/2/1 58/2/1 57/2/1
f 61/2/1 58/2/1 60/2/1
f 62/1/2 63/1/2 64/1/2
f 64/1/2 63/1/2 65/1/2
f 66/1/2 67/1/2 68/1/2
f 68/1/2 67/1/2 69/1/2
f 70/1/2 71/1/2 74/1/2
f 72/1/2 73/1/2 75/1/2
f 70/1/2 74/1/2 76/1/2
f 74/1/2 75/1/2 76/1/2
f 75/1/2 73/1/2 77/1/2
f 76/1/2 75/1/2 77/1/2
f 78/1/2 79/1/2 82/1/2
f 82/1/2 79/1/2 83/1/2
f 80/1/2 81/1/2 84/1/2
f 84/1/2 81/1/2 85/1/2
f 85/1/2 81/1/2 86/1/2
f 87/1/2 88/1/2 91/1/2
f 89/1/2 90/1/2 92/1/2
f 87/1/2 91/1/2 93/1/2
f 93/1/2 91/1/2 94/1/2
f 92/1/2 90/1/2 95/1/2
f 95/1/2 90/1/2 96/1/2
f 97/1/2 98/1/2 101/1/2
f 101/1/2 98/1/2 102/1/2
f 99/1/2 100/1/2 103/1/2
f 103/1/2 100/1/2 104/1/2
f 105/1/2 106/1/2 107/1/2
f 107/1/2 106/1/2 108/1/2
f 105/1/2 107/1/2 109/1/2
f 109/1/2 107/1/2 110/1/2
f 108/1/2 106/1/2 111/1/2
f 111/1/2 106/1/2 112/1/2
f 113/2/2 114/2/2 116/2/2
f 116/2/2 114/2/2 117/2/2
f 115/2/2 116/2/2 119/2/2
f 119/2/2 116/2/2 120/2/2
f 117/2/2 118/2/2 121/2/2
f 121/2/2 118/2/2 122/2/2
f 120/2/2 121/2/2 123/2/2
f 123/2/2 121/2/2 124/2/2
f 125/2/2 126/2/2 128/2/2
f 128/2/2 126/2/2 129/2/2
f 127/2/2 128/2/2 132/2/2
f 129/2/2 130/2/2 132/2/2
f 128/2/2 129/2/2 132/2/2
f 132/2/2 130/2/2 133/2/2
f 133/2/2 130/2/2 134/2/2
f 134/2/2 130/2/2 135/2/2
f 131/2/2 132/2/2 137/2/2
f 132/2/2 133/2/2 137/2/2
f 137/2/2 133/2/2 138/2/2
f 135/2/2 136/2/2 139/2/2
f 134/2/2 135/2/2 139/2/2
f 139/2/2 136/2/2 140/2/2
f 131/2/2 137/2/2 141/2/2
f 140/2/2 136/2/2 144/2/2
f 141/2/2 142/2/2 145/2/2
f 131/2/2 141/2/2 145/2/2
f 145/2/2 142/2/2 146/2/2
f 146/2/2 142/2/2 147/2/2
f 143/2/2 144/2/2 148/2/2
f 144/2/2 136/2/2 149/2/2
f 148/2/2 144/2/2 149/2/2
f 149/2/2 136/2/2 150/2/2
f 146/2/2 147/2/2 151/2/2
f 147/2/2 148/2/2 151/2/2
f 148/2/2 149/2/2 151/2/2
f 151/2/2 149/2/2 152/2/2
f 152/2/2 149/2/2 153/2/2
f 153/2/2 149/2/2 154/2/2
f 152/2/2 153/2/2 155/2/2
f 155/2/2 153/2/2 156/2/2
f 159/1/3 158/1/3 157/1/3
f 160/1/3 158/1/3 159/1/3
f 163/1/3 162/1/3 161/1/3
f 164/1/3 162/1/3 163/1/3
f 167/1/3 166/1/3 165/1/3
f 168/1/3 166/1/3 167/1/3
f 171/2/3 170/2/3 169/2/3
f 172/2/3 170/2/3 171/2/3
f 175/1/3 174/1/3 173/1/3
f 176/1/3 174/1/3 175/1/3
f 177/1/3 174/1/3 176/1/3
f 178/1/3 174/1/3 177/1/3
f 180/2/3 177/2/3 176/2/3
f 181/1/3 180/1/3 179/1/3
f 182/2/3 177/2/3 180/2/3
f 182/1/3 180/1/3 181/1/3
f 184/2/3 177/2/3 182/2/3
f 185/2/3 177/2/3 184/2/3
f 187/2/3 184/2/3 183/2/3
f 188/2/3 184/2/3 187/2/3
f 189/2/3 186/2/3 185/2/3
f 190/2/3 186/2/3 189/2/3
f 196/2/3 194/2/3 193/2/3
f 197/2/3 194/2/3 196/2/3
f 198/2/3 192/2/3 191/2/3
f 199/2/3 192/2/3 198/2/3
f 201/2/3 196/2/3 195/2/3
f 202/2/3 196/2/3 201/2/3
f 203/2/3 200/2/3 199/2/3
f 204/2/3 200/2/3 203/2/3
f 208/2/3 206/2/3 205/2/3
f 209/2/3 206/2/3 208/2/3
f 211/2/3 208/2/3 207/2/3
f 212/2/3 208/2/3 211/2/3
f 213/2/3 210/2/3 209/2/3
f 214/2/3 210/2/3 213/2/3
f 217/2/3 216/2/3 215/2/3
f 218/2/3 216/2/3 217/2/3
f 221/1/3 220/1/3 219/1/3
f 222/1/3 220/1/3 221/1/3
f 225/1/3 224/1/3 223/1/3
f 226/1/3 224/1/3 225/1/3
f 230/1/3 228/1/3 227/1/3
f 230/1/3 229/1/3 228/1/3
f 231/1/3 229/1/3 230/1/3
f 232/1/3 229/1/3 231/1/3
f 233/1/4 234/1/4 237/1/4
f 237/1/4 234/1/4 238/1/4
f 235/1/4 236/1/4 239/1/4
f 239/1/4 236/1/4 240/1/4
f 241/1/4 242/1/4 243/1/4
f 243/1/4 242/1/4 244/1/4
f 245/1/4 246/1/4 247/1/4
f 247/1/4 246/1/4 248/1/4
f 249/2/4 250/2/4 251/2/4
f 251/2/4 250/2/4 252/2/4
f 253/2/4 254/2/4 256/2/4
f 256/2/4 254/2/4 257/2/4
f 255/2/4 256/2/4 259/2/4
f 259/2/4 256/2/4 260/2/4
f 257/2/4 258/2/4 261/2/4
f 261/2/4 258/2/4 262/2/4
f 265/2/4 266/2/4 268/2/4
f 268/2/4 266/2/4 269/2/4
f 263/2/4 264/2/4 270/2/4
f 270/2/4 264/2/4 271/2/4
f 267/2/4 268/2/4 273/2/4
f 273/2/4 268/2/4 274/2/4
f 271/2/4 272/2/4 275/2/4
f 275/2/4 272/2/4 276/2/4
f 277/1/4 278/1/4 279/1/4
f 279/1/4 278/1/4 280/1/4
f 280/1/4 278/1/4 281/1/4
f 281/1/4 278/1/4 282/1/4
f 280/2/4 281/2/4 284/2/4
f 283/1/4 284/1/4 285/1/4
f 284/2/4 281/2/4 286/2/4
f 285/1/4 284/1/4 286/1/4
f 286/2/4 281/2/4 288/2/4
f 287/1/4 288/1/4 289/1/4
f 288/2/4 281/2/4 290/2/4
f 289/1/4 288/1/4 290/1/4
f 290/2/4 281/2/4 292/2/4
f 292/2/4 281/2/4 293/2/4
f 291/2/4 292/2/4 295/2/4
f 295/2/4 292/2/4 296/2/4
f 293/2/4 294/2/4 297/2/4
f 297/2/4 294/2/4 298/2/4
f 299/1/4 300/1/4 301/1/4
f 301/1/4 300/1/4 302/1/4
f 303/1/4 304/1/4 305/1/4
f 305/1/4 304/1/4 306/1/4
f 307/2/4 308/2/4 309/2/4
f 309/2/4 308/2/4 310/2/4
f 311/1/4 312/1/4 313/1/4
f 313/1/4 312/1/4 314/1/4
f 318/1/5 316/1/5 315/1/5
f 319/1/5 316/1/5 318/1/5
f 322/1/5 318/1/5 317/1/5
f 322/1/5 320/1/5 319/1/5
f 322/1/5 319/1/5 318/1/5
f 323/1/5 320/1/5 322/1/5
f 325/1/5 322/1/5 321/1/5
f 325/1/5 324/1/5 323/1/5
f 325/1/5 323/1/5 322/1/5
f 326/1/5 324/1/5 325/1/5
f 327/1/5 324/1/5 326/1/5
f 328/1/5 324/1/5 327/1/5
f 329/1/5 327/1/5 326/1/5
f 330/1/5 327/1/5 329/1/5
f 331/1/5 327/1/5 330/1/5
f 332/1/5 327/1/5 331/1/5
f 333/1/5 331/1/5 330/1/5
f 334/1/5 331/1/5 333/1/5
f 337/2/5 336/2/5 335/2/5
f 338/2/5 336/2/5 337/2/5
f 342/1/5 340/1/5 339/1/5
f 343/1/5 340/1/5 342/1/5
f 347/1/5 342/1/5 341/1/5
f 347/3/5 343/3/5 342/3/5
f 348/4/5 344/4/5 343/4/5
f 348/3/5 343/3/5 347/3/5
f 349/4/5 344/4/5 348/4/5
f 351/2/5 346/2/5 345/2/5
f 352/2/5 346/2/5 351/2/5
f 353/2/5 349/2/5 348/2/5
f 353/1/5 347/1/5 341/1/5
f 353/2/5 348/2/5 347/2/5
f 354/2/5 349/2/5 353/2/5
f 355/2/5 349/2/5 354/2/5
f 356/2/5 351/2/5 350/2/5
f 357/2/5 351/2/5 356/2/5
f 359/1/5 353/1/5 341/1/5
f 359/1/5 354/1/5 353/1/5
f 360/1/5 354/1/5 359/1/5
f 361/3/5 355/3/5 354/3/5
f 361/1/5 354/1/5 360/1/5
f 362/3/5 355/3/5 361/3/5
f 363/2/5 358/2/5 357/2/5
f 364/2/5 358/2/5 363/2/5
f 368/2/5 366/2/5 365/2/5
f 369/2/5 366/2/5 368/2/5
f 370/2/5 368/2/5 367/2/5
f 371/2/5 368/2/5 370/2/5
f 374/2/5 373/2/5 372/2/5
f 375/2/5 373/2/5 374/2/5
f 377/2/5 376/2/5 375/2/5
f 378/2/5 376/2/5 377/2/5
f 382/2/5 380/2/5 379/2/5
f 383/2/5 380/2/5 382/2/5
f 384/2/5 382/2/5 381/2/5
f 385/2/5 382/2/5 384/2/5
f 387/2/5 386/2/5 385/2/5
f 388/2/5 386/2/5 387/2/5
f 391/2/5 390/2/5 389/2/5
f 392/2/5 390/2/5 391/2/5
f 393/1/6 394/1/6 396/1/6
f 396/1/6 394/1/6 397/1/6
f 395/1/6 396/1/6 399/1/6
f 397/1/6 398/1/6 399/1/6
f 396/1/6 397/1/6 399/1/6
f 399/1/6 398/1/6 400/1/6
f 400/1/6 398/1/6 401/1/6
f 401/1/6 398/1/6 402/1/6
f 400/1/6 401/1/6 403/1/6
f 403/1/6 401/1/6 404/1/6
f 405/1/6 406/1/6 409/1/6
f 407/1/6 408/1/6 409/1/6
f 406/1/6 407/1/6 409/1/6
f 409/1/6 408/1/6 410/1/6
f 411/2/6 412/2/6 413/2/6
f 413/2/6 412/2/6 414/2/6
f 415/1/6 416/1/6 419/1/6
f 419/1/6 416/1/6 420/1/6
f 417/1/6 418/1/6 421/1/6
f 421/1/6 418/1/6 422/1/6
f 423/2/6 424/2/6 426/2/6
f 426/2/6 424/2/6 427/2/6
f 425/2/6 426/2/6 428/2/6
f 428/2/6 426/2/6 429/2/6
f 429/2/6 430/2/6 431/2/6
f 431/2/6 430/2/6 432/2/6
f 433/2/6 434/2/6 436/2/6
f 436/2/6 434/2/6 437/2/6
f 435/2/6 436/2/6 438/2/6
f 438/2/6 436/2/6 439/2/6
f 440/2/6 441/2/6 442/2/6
f 442/2/6 441/2/6 443/2/6
f 443/2/6 444/2/6 445/2/6
f 445/2/6 444/2/6 446/2/6
f 447/2/6 448/2/6 450/2/6
f 450/2/6 448/2/6 451/2/6
f 449/2/6 450/2/6 452/2/6
f 452/2/6 450/2/6 453/2/6
f 453/2/6 454/2/6 455/2/6
f 455/2/6 454/2/6 456/2/6
f 457/1/6 458/1/6 459/1/6
f 459/1/6 458/1/6 460/1/6
f 463/2/6 464/2/6 465/2/6
f 465/2/6 464/2/6 466/2/6
f 461/1/6 462/1/6 467/1/6
f 467/1/6 462/1/6 468/1/6
f 469/1/6 470/1/6 471/1/6
f 471/1/6 470/1/6 472/1/6
