# MagicaVoxel @ Ephtracy

# material
mtllib badan_towerlevel3.mtl
usemtl palette

# normals
vn -1 0 0
vn 1 0 0
vn 0 0 1
vn 0 0 -1
vn 0 -1 0
vn 0 1 0

# texcoords
vt 0.845703 0.5
vt 0.876953 0.5
vt 0.880859 0.5
vt 0.912109 0.5
vt 0.939453 0.5
vt 0.947266 0.5

# verts
v -56 48 -10
v -56 48 -28
v -56 53 -10
v -56 53 -28
v -55 28 -11
v -55 28 -27
v -55 31 -11
v -55 31 -14
v -55 31 -16
v -55 31 -20
v -55 31 -22
v -55 31 -26
v -55 32 -11
v -55 32 -14
v -55 32 -16
v -55 32 -20
v -55 32 -22
v -55 32 -26
v -55 32 -27
v -55 43 -11
v -55 43 -27
v -55 46 -11
v -55 46 -27
v -55 55 -11
v -55 55 -27
v -55 58 -11
v -55 58 -27
v -54 40 -12
v -54 40 -26
v -54 41 -12
v -54 41 -26
v -53 32 -13
v -53 32 -18
v -53 32 -19
v -53 32 -25
v -53 33 -13
v -53 33 -14
v -53 34 -16
v -53 34 -19
v -53 36 -13
v -53 36 -14
v -53 36 -16
v -53 36 -19
v -53 36 -24
v -53 36 -25
v -53 38 -24
v -53 38 -25
v -53 39 -14
v -53 39 -18
v -53 40 -13
v -53 40 -14
v -53 40 -18
v -53 40 -25
v -53 41 -13
v -53 41 -14
v -53 41 -18
v -53 41 -25
v -53 42 -14
v -53 42 -18
v -53 43 -13
v -53 43 -25
v -53 46 -13
v -53 46 -14
v -53 46 -19
v -53 46 -23
v -53 46 -25
v -53 47 -13
v -53 47 -14
v -53 47 -19
v -53 47 -23
v -53 48 -13
v -53 48 -25
v -53 53 -13
v -53 53 -24
v -53 53 -25
v -53 54 -24
v -53 54 -25
v -53 56 -13
v -53 56 -25
v -53 57 -13
v -53 57 -25
v -44 55 -15
v -44 55 -23
v -44 56 -15
v -44 56 -23
v -42 56 -14
v -42 56 -15
v -42 56 -21
v -42 56 -24
v -42 57 -14
v -42 57 -15
v -42 57 -21
v -42 57 -24
v -40 55 -12
v -40 55 -26
v -40 57 -12
v -40 57 -26
v -54 55 -12
v -54 55 -26
v -54 57 -12
v -54 57 -26
v -52 56 -23
v -52 56 -24
v -52 57 -23
v -52 57 -24
v -46 56 -14
v -46 56 -15
v -46 57 -14
v -46 57 -15
v -45 55 -15
v -45 55 -23
v -45 56 -15
v -45 56 -23
v -43 56 -21
v -43 56 -23
v -43 57 -21
v -43 57 -23
v -41 32 -13
v -41 32 -25
v -41 36 -14
v -41 36 -19
v -41 38 -14
v -41 38 -19
v -41 38 -23
v -41 38 -25
v -41 40 -12
v -41 40 -13
v -41 40 -23
v -41 40 -25
v -41 41 -12
v -41 41 -13
v -41 41 -25
v -41 42 -18
v -41 42 -21
v -41 43 -13
v -41 43 -18
v -41 43 -21
v -41 43 -25
v -41 46 -13
v -41 46 -25
v -41 47 -17
v -41 47 -19
v -41 48 -13
v -41 48 -17
v -41 48 -19
v -41 48 -25
v -41 53 -13
v -41 53 -25
v -41 56 -13
v -41 56 -25
v -41 57 -13
v -41 57 -25
v -40 40 -13
v -40 40 -26
v -40 41 -13
v -40 41 -26
v -39 28 -11
v -39 28 -17
v -39 28 -21
v -39 28 -27
v -39 30 -17
v -39 30 -21
v -39 31 -13
v -39 31 -18
v -39 31 -21
v -39 31 -25
v -39 32 -11
v -39 32 -13
v -39 32 -18
v -39 32 -21
v -39 32 -25
v -39 32 -27
v -39 43 -11
v -39 43 -27
v -39 46 -11
v -39 46 -27
v -39 55 -11
v -39 55 -27
v -39 58 -11
v -39 58 -27
v -38 48 -10
v -38 48 -28
v -38 53 -10
v -38 53 -28
v -56 48 -10
v -56 53 -10
v -38 48 -10
v -38 53 -10
v -55 28 -11
v -55 31 -11
v -55 32 -11
v -55 43 -11
v -55 46 -11
v -55 55 -11
v -55 58 -11
v -53 31 -11
v -53 32 -11
v -51 29 -11
v -51 31 -11
v -46 29 -11
v -46 31 -11
v -44 31 -11
v -44 32 -11
v -41 31 -11
v -41 32 -11
v -39 28 -11
v -39 32 -11
v -39 43 -11
v -39 46 -11
v -39 55 -11
v -39 58 -11
v -54 40 -12
v -54 41 -12
v -41 40 -12
v -41 41 -12
v -53 32 -13
v -53 33 -13
v -53 36 -13
v -53 40 -13
v -53 41 -13
v -53 43 -13
v -53 46 -13
v -53 47 -13
v -53 48 -13
v -53 53 -13
v -53 56 -13
v -53 57 -13
v -50 46 -13
v -50 47 -13
v -48 41 -13
v -48 43 -13
v -47 33 -13
v -47 36 -13
v -47 38 -13
v -47 39 -13
v -47 47 -13
v -47 48 -13
v -46 41 -13
v -46 43 -13
v -44 38 -13
v -44 39 -13
v -43 47 -13
v -43 48 -13
v -41 32 -13
v -41 40 -13
v -41 41 -13
v -41 43 -13
v -41 46 -13
v -41 48 -13
v -41 53 -13
v -41 56 -13
v -41 57 -13
v -40 40 -13
v -40 41 -13
v -46 56 -15
v -46 57 -15
v -45 57 -15
v -42 56 -15
v -42 57 -15
v -45 55 -23
v -45 56 -23
v -44 55 -23
v -44 56 -23
v -52 56 -24
v -52 57 -24
v -42 56 -24
v -42 57 -24
v -54 55 -26
v -54 57 -26
v -40 55 -26
v -40 57 -26
v -54 55 -12
v -54 57 -12
v -40 55 -12
v -40 57 -12
v -46 56 -14
v -46 57 -14
v -45 57 -14
v -42 56 -14
v -42 57 -14
v -45 55 -15
v -45 56 -15
v -44 55 -15
v -44 56 -15
v -43 56 -21
v -43 57 -21
v -42 56 -21
v -42 57 -21
v -52 56 -23
v -52 57 -23
v -43 56 -23
v -43 57 -23
v -53 32 -25
v -53 36 -25
v -53 38 -25
v -53 40 -25
v -53 41 -25
v -53 43 -25
v -53 46 -25
v -53 48 -25
v -53 53 -25
v -53 54 -25
v -53 56 -25
v -53 57 -25
v -51 36 -25
v -51 38 -25
v -50 53 -25
v -50 54 -25
v -47 34 -25
v -47 35 -25
v -46 38 -25
v -46 40 -25
v -46 53 -25
v -46 54 -25
v -43 34 -25
v -43 35 -25
v -42 53 -25
v -42 54 -25
v -41 32 -25
v -41 38 -25
v -41 40 -25
v -41 41 -25
v -41 43 -25
v -41 46 -25
v -41 48 -25
v -41 53 -25
v -41 56 -25
v -41 57 -25
v -54 40 -26
v -54 41 -26
v -40 40 -26
v -40 41 -26
v -55 28 -27
v -55 32 -27
v -55 43 -27
v -55 46 -27
v -55 55 -27
v -55 58 -27
v -54 30 -27
v -54 32 -27
v -50 30 -27
v -50 32 -27
v -49 31 -27
v -49 32 -27
v -45 31 -27
v -45 32 -27
v -43 29 -27
v -43 31 -27
v -40 29 -27
v -40 31 -27
v -39 28 -27
v -39 32 -27
v -39 43 -27
v -39 46 -27
v -39 55 -27
v -39 58 -27
v -56 48 -28
v -56 53 -28
v -38 48 -28
v -38 53 -28
v -55 28 -11
v -39 28 -11
v -54 28 -12
v -47 28 -12
v -46 28 -12
v -40 28 -12
v -52 28 -14
v -47 28 -14
v -46 28 -14
v -42 28 -14
v -40 28 -17
v -39 28 -17
v -54 28 -18
v -52 28 -18
v -54 28 -19
v -52 28 -19
v -42 28 -19
v -40 28 -19
v -42 28 -20
v -40 28 -20
v -40 28 -21
v -39 28 -21
v -52 28 -24
v -47 28 -24
v -46 28 -24
v -42 28 -24
v -54 28 -26
v -47 28 -26
v -46 28 -26
v -40 28 -26
v -55 28 -27
v -39 28 -27
v -54 40 -12
v -41 40 -12
v -53 40 -13
v -41 40 -13
v -40 40 -13
v -53 40 -14
v -53 40 -18
v -41 40 -23
v -53 40 -25
v -46 40 -25
v -41 40 -25
v -54 40 -26
v -40 40 -26
v -55 43 -11
v -39 43 -11
v -53 43 -13
v -48 43 -13
v -46 43 -13
v -41 43 -13
v -41 43 -18
v -41 43 -21
v -53 43 -25
v -41 43 -25
v -55 43 -27
v -39 43 -27
v -56 48 -10
v -38 48 -10
v -53 48 -13
v -47 48 -13
v -43 48 -13
v -41 48 -13
v -41 48 -17
v -41 48 -19
v -53 48 -25
v -41 48 -25
v -56 48 -28
v -38 48 -28
v -55 55 -11
v -39 55 -11
v -54 55 -12
v -40 55 -12
v -54 55 -26
v -40 55 -26
v -55 55 -27
v -39 55 -27
v -45 56 -15
v -44 56 -15
v -45 56 -23
v -44 56 -23
v -54 57 -12
v -40 57 -12
v -53 57 -13
v -41 57 -13
v -46 57 -14
v -45 57 -14
v -42 57 -14
v -46 57 -15
v -45 57 -15
v -42 57 -15
v -43 57 -21
v -42 57 -21
v -52 57 -23
v -43 57 -23
v -52 57 -24
v -42 57 -24
v -53 57 -25
v -41 57 -25
v -54 57 -26
v -40 57 -26
v -55 32 -11
v -53 32 -11
v -44 32 -11
v -41 32 -11
v -39 32 -11
v -53 32 -12
v -44 32 -12
v -41 32 -12
v -40 32 -12
v -53 32 -13
v -41 32 -13
v -40 32 -13
v -39 32 -13
v -55 32 -14
v -54 32 -14
v -55 32 -16
v -54 32 -16
v -54 32 -18
v -53 32 -18
v -40 32 -18
v -39 32 -18
v -54 32 -19
v -53 32 -19
v -55 32 -20
v -54 32 -20
v -40 32 -21
v -39 32 -21
v -55 32 -22
v -54 32 -22
v -53 32 -25
v -41 32 -25
v -40 32 -25
v -39 32 -25
v -55 32 -26
v -54 32 -26
v -50 32 -26
v -49 32 -26
v -45 32 -26
v -40 32 -26
v -55 32 -27
v -54 32 -27
v -50 32 -27
v -49 32 -27
v -45 32 -27
v -39 32 -27
v -54 41 -12
v -41 41 -12
v -53 41 -13
v -48 41 -13
v -46 41 -13
v -41 41 -13
v -40 41 -13
v -53 41 -14
v -53 41 -18
v -53 41 -25
v -41 41 -25
v -54 41 -26
v -40 41 -26
v -55 46 -11
v -39 46 -11
v -53 46 -13
v -50 46 -13
v -41 46 -13
v -53 46 -14
v -53 46 -19
v -53 46 -23
v -53 46 -25
v -41 46 -25
v -55 46 -27
v -39 46 -27
v -56 53 -10
v -38 53 -10
v -53 53 -13
v -41 53 -13
v -53 53 -24
v -53 53 -25
v -50 53 -25
v -46 53 -25
v -42 53 -25
v -41 53 -25
v -56 53 -28
v -38 53 -28
v -45 55 -15
v -44 55 -15
v -45 55 -23
v -44 55 -23
v -46 56 -14
v -42 56 -14
v -46 56 -15
v -42 56 -15
v -43 56 -21
v -42 56 -21
v -52 56 -23
v -43 56 -23
v -52 56 -24
v -42 56 -24
v -55 58 -11
v -39 58 -11
v -50 58 -14
v -45 58 -14
v -51 58 -15
v -50 58 -15
v -45 58 -15
v -44 58 -15
v -52 58 -16
v -51 58 -16
v -44 58 -16
v -43 58 -16
v -52 58 -21
v -51 58 -21
v -44 58 -21
v -43 58 -21
v -51 58 -22
v -50 58 -22
v -45 58 -22
v -44 58 -22
v -50 58 -23
v -45 58 -23
v -55 58 -27
v -39 58 -27

# faces
f 3/6/1 2/6/1 1/6/1
f 4/6/1 2/6/1 3/6/1
f 7/1/1 6/1/1 5/1/1
f 8/1/1 6/1/1 7/1/1
f 9/1/1 6/1/1 8/1/1
f 10/1/1 6/1/1 9/1/1
f 11/1/1 6/1/1 10/1/1
f 12/1/1 6/1/1 11/1/1
f 13/2/1 8/2/1 7/2/1
f 14/1/1 9/1/1 8/1/1
f 14/2/1 8/2/1 13/2/1
f 15/2/1 10/2/1 9/2/1
f 15/1/1 9/1/1 14/1/1
f 16/1/1 11/1/1 10/1/1
f 16/2/1 10/2/1 15/2/1
f 17/2/1 12/2/1 11/2/1
f 17/1/1 11/1/1 16/1/1
f 18/1/1 6/1/1 12/1/1
f 18/2/1 12/2/1 17/2/1
f 19/1/1 6/1/1 18/1/1
f 22/6/1 21/6/1 20/6/1
f 23/6/1 21/6/1 22/6/1
f 26/6/1 25/6/1 24/6/1
f 27/6/1 25/6/1 26/6/1
f 30/6/1 29/6/1 28/6/1
f 31/6/1 29/6/1 30/6/1
f 36/1/1 33/1/1 32/1/1
f 36/1/1 35/1/1 34/1/1
f 36/1/1 34/1/1 33/1/1
f 37/1/1 35/1/1 36/1/1
f 38/1/1 35/1/1 37/1/1
f 39/1/1 35/1/1 38/1/1
f 40/2/1 37/2/1 36/2/1
f 41/1/1 38/1/1 37/1/1
f 41/2/1 37/2/1 40/2/1
f 42/2/1 39/2/1 38/2/1
f 42/1/1 38/1/1 41/1/1
f 43/1/1 35/1/1 39/1/1
f 43/2/1 39/2/1 42/2/1
f 44/1/1 35/1/1 43/1/1
f 45/1/1 35/1/1 44/1/1
f 46/1/1 42/1/1 41/1/1
f 46/1/1 41/1/1 40/1/1
f 46/2/1 45/2/1 44/2/1
f 46/1/1 44/1/1 43/1/1
f 46/1/1 43/1/1 42/1/1
f 47/2/1 45/2/1 46/2/1
f 48/1/1 46/1/1 40/1/1
f 48/1/1 47/1/1 46/1/1
f 49/1/1 47/1/1 48/1/1
f 50/1/1 48/1/1 40/1/1
f 51/2/1 49/2/1 48/2/1
f 51/1/1 48/1/1 50/1/1
f 52/1/1 47/1/1 49/1/1
f 52/2/1 49/2/1 51/2/1
f 53/1/1 47/1/1 52/1/1
f 58/1/1 55/1/1 54/1/1
f 58/2/1 56/2/1 55/2/1
f 59/1/1 57/1/1 56/1/1
f 59/2/1 56/2/1 58/2/1
f 60/1/1 58/1/1 54/1/1
f 60/1/1 59/1/1 58/1/1
f 61/1/1 57/1/1 59/1/1
f 61/1/1 59/1/1 60/1/1
f 67/2/1 63/2/1 62/2/1
f 68/1/1 64/1/1 63/1/1
f 68/2/1 63/2/1 67/2/1
f 69/2/1 65/2/1 64/2/1
f 69/1/1 64/1/1 68/1/1
f 70/1/1 66/1/1 65/1/1
f 70/2/1 65/2/1 69/2/1
f 71/1/1 69/1/1 68/1/1
f 71/1/1 68/1/1 67/1/1
f 71/1/1 70/1/1 69/1/1
f 72/1/1 66/1/1 70/1/1
f 72/1/1 70/1/1 71/1/1
f 76/1/1 74/1/1 73/1/1
f 76/2/1 75/2/1 74/2/1
f 77/2/1 75/2/1 76/2/1
f 78/1/1 76/1/1 73/1/1
f 78/1/1 77/1/1 76/1/1
f 79/1/1 77/1/1 78/1/1
f 80/2/1 79/2/1 78/2/1
f 81/2/1 79/2/1 80/2/1
f 84/1/1 83/1/1 82/1/1
f 85/1/1 83/1/1 84/1/1
f 90/2/1 87/2/1 86/2/1
f 91/2/1 87/2/1 90/2/1
f 92/2/1 89/2/1 88/2/1
f 93/2/1 89/2/1 92/2/1
f 96/6/1 95/6/1 94/6/1
f 97/6/1 95/6/1 96/6/1
f 98/6/2 99/6/2 100/6/2
f 100/6/2 99/6/2 101/6/2
f 102/2/2 103/2/2 104/2/2
f 104/2/2 103/2/2 105/2/2
f 106/3/2 107/3/2 108/3/2
f 108/3/2 107/3/2 109/3/2
f 110/1/2 111/1/2 112/1/2
f 112/1/2 111/1/2 113/1/2
f 114/3/2 115/3/2 116/3/2
f 116/3/2 115/3/2 117/3/2
f 118/1/2 119/1/2 120/1/2
f 120/1/2 119/1/2 121/1/2
f 118/1/2 120/1/2 122/1/2
f 120/2/2 121/2/2 122/2/2
f 121/1/2 119/1/2 123/1/2
f 122/2/2 121/2/2 123/2/2
f 123/1/2 119/1/2 124/1/2
f 124/1/2 119/1/2 125/1/2
f 118/1/2 122/1/2 127/1/2
f 122/1/2 123/1/2 127/1/2
f 123/1/2 124/1/2 127/1/2
f 124/2/2 125/2/2 128/2/2
f 127/1/2 124/1/2 128/1/2
f 128/2/2 125/2/2 129/2/2
f 126/6/2 127/6/2 130/6/2
f 130/6/2 127/6/2 131/6/2
f 131/1/2 132/1/2 133/1/2
f 133/1/2 132/1/2 134/1/2
f 131/1/2 133/1/2 135/1/2
f 133/2/2 134/2/2 136/2/2
f 135/1/2 133/1/2 136/1/2
f 134/1/2 132/1/2 137/1/2
f 136/2/2 134/2/2 137/2/2
f 137/1/2 132/1/2 138/1/2
f 139/1/2 140/1/2 141/1/2
f 141/1/2 140/1/2 142/1/2
f 139/1/2 141/1/2 143/1/2
f 141/2/2 142/2/2 144/2/2
f 143/1/2 141/1/2 144/1/2
f 142/1/2 140/1/2 145/1/2
f 144/2/2 142/2/2 145/2/2
f 145/1/2 140/1/2 146/1/2
f 147/1/2 148/1/2 149/1/2
f 149/1/2 148/1/2 150/1/2
f 149/2/2 150/2/2 151/2/2
f 151/2/2 150/2/2 152/2/2
f 153/6/2 154/6/2 155/6/2
f 155/6/2 154/6/2 156/6/2
f 157/1/2 158/1/2 161/1/2
f 158/2/2 159/2/2 161/2/2
f 159/1/2 160/1/2 162/1/2
f 161/2/2 159/2/2 162/2/2
f 157/1/2 161/1/2 163/1/2
f 161/1/2 162/1/2 163/1/2
f 163/1/2 162/1/2 164/1/2
f 162/1/2 160/1/2 165/1/2
f 164/1/2 162/1/2 165/1/2
f 165/1/2 160/1/2 166/1/2
f 157/1/2 163/1/2 167/1/2
f 163/2/2 164/2/2 168/2/2
f 167/1/2 163/1/2 168/1/2
f 164/1/2 165/1/2 169/1/2
f 168/2/2 164/2/2 169/2/2
f 165/2/2 166/2/2 170/2/2
f 169/1/2 165/1/2 170/1/2
f 166/1/2 160/1/2 171/1/2
f 170/2/2 166/2/2 171/2/2
f 171/1/2 160/1/2 172/1/2
f 173/6/2 174/6/2 175/6/2
f 175/6/2 174/6/2 176/6/2
f 177/6/2 178/6/2 179/6/2
f 179/6/2 178/6/2 180/6/2
f 181/6/2 182/6/2 183/6/2
f 183/6/2 182/6/2 184/6/2
f 187/6/3 186/6/3 185/6/3
f 188/6/3 186/6/3 187/6/3
f 196/1/3 190/1/3 189/1/3
f 196/2/3 191/2/3 190/2/3
f 197/2/3 191/2/3 196/2/3
f 198/1/3 196/1/3 189/1/3
f 198/1/3 197/1/3 196/1/3
f 199/1/3 197/1/3 198/1/3
f 200/1/3 198/1/3 189/1/3
f 200/2/3 199/2/3 198/2/3
f 201/1/3 197/1/3 199/1/3
f 201/2/3 199/2/3 200/2/3
f 202/1/3 201/1/3 200/1/3
f 202/1/3 197/1/3 201/1/3
f 203/1/3 197/1/3 202/1/3
f 204/1/3 202/1/3 200/1/3
f 204/2/3 203/2/3 202/2/3
f 205/2/3 203/2/3 204/2/3
f 206/1/3 200/1/3 189/1/3
f 206/1/3 204/1/3 200/1/3
f 206/1/3 205/1/3 204/1/3
f 207/1/3 205/1/3 206/1/3
f 208/6/3 193/6/3 192/6/3
f 209/6/3 193/6/3 208/6/3
f 210/6/3 195/6/3 194/6/3
f 211/6/3 195/6/3 210/6/3
f 214/6/3 213/6/3 212/6/3
f 215/6/3 213/6/3 214/6/3
f 228/2/3 223/2/3 222/2/3
f 229/1/3 224/1/3 223/1/3
f 229/2/3 223/2/3 228/2/3
f 230/1/3 221/1/3 220/1/3
f 231/1/3 221/1/3 230/1/3
f 232/1/3 217/1/3 216/1/3
f 232/2/3 218/2/3 217/2/3
f 233/1/3 219/1/3 218/1/3
f 233/2/3 218/2/3 232/2/3
f 234/1/3 219/1/3 233/1/3
f 235/1/3 219/1/3 234/1/3
f 236/1/3 224/1/3 229/1/3
f 236/1/3 229/1/3 228/1/3
f 237/1/3 224/1/3 236/1/3
f 238/2/3 231/2/3 230/2/3
f 239/2/3 231/2/3 238/2/3
f 240/2/3 235/2/3 234/2/3
f 240/1/3 234/1/3 233/1/3
f 240/1/3 233/1/3 232/1/3
f 241/1/3 219/1/3 235/1/3
f 241/2/3 235/2/3 240/2/3
f 242/1/3 236/1/3 228/1/3
f 242/2/3 237/2/3 236/2/3
f 243/2/3 237/2/3 242/2/3
f 244/1/3 240/1/3 232/1/3
f 244/1/3 232/1/3 216/1/3
f 244/1/3 241/1/3 240/1/3
f 245/1/3 219/1/3 241/1/3
f 245/1/3 241/1/3 244/1/3
f 246/1/3 239/1/3 238/1/3
f 247/1/3 239/1/3 246/1/3
f 248/1/3 243/1/3 242/1/3
f 248/1/3 242/1/3 228/1/3
f 249/1/3 243/1/3 248/1/3
f 250/1/3 226/1/3 225/1/3
f 251/2/3 227/2/3 226/2/3
f 251/1/3 226/1/3 250/1/3
f 252/2/3 227/2/3 251/2/3
f 253/6/3 246/6/3 245/6/3
f 254/6/3 246/6/3 253/6/3
f 257/3/3 256/3/3 255/3/3
f 258/3/3 257/3/3 255/3/3
f 259/3/3 257/3/3 258/3/3
f 262/1/3 261/1/3 260/1/3
f 263/1/3 261/1/3 262/1/3
f 266/2/3 265/2/3 264/2/3
f 267/2/3 265/2/3 266/2/3
f 270/6/3 269/6/3 268/6/3
f 271/6/3 269/6/3 270/6/3
f 272/6/4 273/6/4 274/6/4
f 274/6/4 273/6/4 275/6/4
f 276/2/4 277/2/4 278/2/4
f 276/2/4 278/2/4 279/2/4
f 279/2/4 278/2/4 280/2/4
f 281/1/4 282/1/4 283/1/4
f 283/1/4 282/1/4 284/1/4
f 285/5/4 286/5/4 287/5/4
f 287/5/4 286/5/4 288/5/4
f 289/3/4 290/3/4 291/3/4
f 291/3/4 290/3/4 292/3/4
f 293/1/4 294/1/4 305/1/4
f 294/2/4 295/2/4 305/2/4
f 295/1/4 296/1/4 306/1/4
f 305/2/4 295/2/4 306/2/4
f 301/2/4 302/2/4 307/2/4
f 302/1/4 303/1/4 308/1/4
f 307/2/4 302/2/4 308/2/4
f 293/1/4 305/1/4 309/1/4
f 305/1/4 306/1/4 309/1/4
f 309/1/4 306/1/4 310/1/4
f 306/1/4 296/1/4 311/1/4
f 310/1/4 306/1/4 311/1/4
f 311/1/4 296/1/4 312/1/4
f 307/1/4 308/1/4 313/1/4
f 308/1/4 303/1/4 314/1/4
f 313/1/4 308/1/4 314/1/4
f 309/2/4 310/2/4 315/2/4
f 293/1/4 309/1/4 315/1/4
f 310/1/4 311/1/4 316/1/4
f 315/2/4 310/2/4 316/2/4
f 313/2/4 314/2/4 317/2/4
f 314/1/4 303/1/4 318/1/4
f 317/2/4 314/2/4 318/2/4
f 293/1/4 315/1/4 319/1/4
f 315/1/4 316/1/4 319/1/4
f 311/2/4 312/2/4 320/2/4
f 319/1/4 316/1/4 320/1/4
f 316/1/4 311/1/4 320/1/4
f 320/2/4 312/2/4 321/2/4
f 297/1/4 298/1/4 322/1/4
f 322/1/4 298/1/4 323/1/4
f 299/1/4 300/1/4 324/1/4
f 324/1/4 300/1/4 325/1/4
f 317/1/4 318/1/4 326/1/4
f 303/2/4 304/2/4 327/2/4
f 326/1/4 318/1/4 327/1/4
f 318/1/4 303/1/4 327/1/4
f 327/2/4 304/2/4 328/2/4
f 329/6/4 330/6/4 331/6/4
f 331/6/4 330/6/4 332/6/4
f 333/1/4 334/1/4 339/1/4
f 339/1/4 334/1/4 340/1/4
f 333/1/4 339/1/4 341/1/4
f 339/2/4 340/2/4 341/2/4
f 341/2/4 340/2/4 342/2/4
f 341/1/4 342/1/4 343/1/4
f 343/1/4 342/1/4 344/1/4
f 341/1/4 343/1/4 345/1/4
f 343/2/4 344/2/4 345/2/4
f 345/2/4 344/2/4 346/2/4
f 333/1/4 341/1/4 347/1/4
f 341/1/4 345/1/4 347/1/4
f 345/1/4 346/1/4 347/1/4
f 347/1/4 346/1/4 348/1/4
f 333/1/4 347/1/4 349/1/4
f 347/2/4 348/2/4 349/2/4
f 348/1/4 346/1/4 350/1/4
f 349/2/4 348/2/4 350/2/4
f 333/1/4 349/1/4 351/1/4
f 349/1/4 350/1/4 351/1/4
f 350/1/4 346/1/4 352/1/4
f 351/1/4 350/1/4 352/1/4
f 335/6/4 336/6/4 353/6/4
f 353/6/4 336/6/4 354/6/4
f 337/6/4 338/6/4 355/6/4
f 355/6/4 338/6/4 356/6/4
f 357/6/4 358/6/4 359/6/4
f 359/6/4 358/6/4 360/6/4
f 363/1/5 362/1/5 361/1/5
f 364/1/5 362/1/5 363/1/5
f 365/1/5 362/1/5 364/1/5
f 366/1/5 362/1/5 365/1/5
f 367/4/5 364/4/5 363/4/5
f 368/5/5 365/5/5 364/5/5
f 368/4/5 364/4/5 367/4/5
f 369/4/5 366/4/5 365/4/5
f 369/5/5 365/5/5 368/5/5
f 370/4/5 366/4/5 369/4/5
f 371/1/5 362/1/5 366/1/5
f 371/4/5 366/4/5 370/4/5
f 372/1/5 362/1/5 371/1/5
f 373/1/5 363/1/5 361/1/5
f 373/4/5 367/4/5 363/4/5
f 374/6/5 370/6/5 369/6/5
f 374/4/5 367/4/5 373/4/5
f 374/6/5 368/6/5 367/6/5
f 374/6/5 369/6/5 368/6/5
f 375/1/5 373/1/5 361/1/5
f 375/5/5 374/5/5 373/5/5
f 376/6/5 370/6/5 374/6/5
f 376/5/5 374/5/5 375/5/5
f 377/4/5 371/4/5 370/4/5
f 377/6/5 370/6/5 376/6/5
f 378/2/5 372/2/5 371/2/5
f 378/4/5 371/4/5 377/4/5
f 379/6/5 377/6/5 376/6/5
f 379/5/5 378/5/5 377/5/5
f 380/2/5 372/2/5 378/2/5
f 380/5/5 378/5/5 379/5/5
f 381/4/5 380/4/5 379/4/5
f 381/2/5 372/2/5 380/2/5
f 382/2/5 372/2/5 381/2/5
f 383/6/5 379/6/5 376/6/5
f 383/4/5 376/4/5 375/4/5
f 384/6/5 379/6/5 383/6/5
f 385/6/5 379/6/5 384/6/5
f 386/4/5 381/4/5 379/4/5
f 386/6/5 379/6/5 385/6/5
f 387/1/5 375/1/5 361/1/5
f 387/4/5 383/4/5 375/4/5
f 387/4/5 384/4/5 383/4/5
f 388/5/5 385/5/5 384/5/5
f 388/4/5 384/4/5 387/4/5
f 389/4/5 386/4/5 385/4/5
f 389/5/5 385/5/5 388/5/5
f 390/4/5 381/4/5 386/4/5
f 390/4/5 386/4/5 389/4/5
f 390/1/5 382/1/5 381/1/5
f 391/1/5 389/1/5 388/1/5
f 391/1/5 388/1/5 387/1/5
f 391/1/5 390/1/5 389/1/5
f 391/1/5 387/1/5 361/1/5
f 392/1/5 382/1/5 390/1/5
f 392/1/5 390/1/5 391/1/5
f 395/6/5 394/6/5 393/6/5
f 396/6/5 394/6/5 395/6/5
f 398/6/5 395/6/5 393/6/5
f 399/6/5 398/6/5 393/6/5
f 400/6/5 397/6/5 396/6/5
f 401/6/5 399/6/5 393/6/5
f 403/6/5 397/6/5 400/6/5
f 404/6/5 402/6/5 401/6/5
f 404/6/5 403/6/5 402/6/5
f 404/6/5 401/6/5 393/6/5
f 405/6/5 397/6/5 403/6/5
f 405/6/5 403/6/5 404/6/5
f 408/6/5 407/6/5 406/6/5
f 409/6/5 407/6/5 408/6/5
f 410/6/5 407/6/5 409/6/5
f 411/6/5 407/6/5 410/6/5
f 412/6/5 407/6/5 411/6/5
f 413/6/5 407/6/5 412/6/5
f 414/6/5 408/6/5 406/6/5
f 415/6/5 407/6/5 413/6/5
f 416/6/5 414/6/5 406/6/5
f 416/6/5 415/6/5 414/6/5
f 417/6/5 407/6/5 415/6/5
f 417/6/5 415/6/5 416/6/5
f 420/6/5 419/6/5 418/6/5
f 421/6/5 419/6/5 420/6/5
f 422/6/5 419/6/5 421/6/5
f 423/6/5 419/6/5 422/6/5
f 424/6/5 419/6/5 423/6/5
f 425/6/5 419/6/5 424/6/5
f 426/6/5 420/6/5 418/6/5
f 427/6/5 419/6/5 425/6/5
f 428/6/5 426/6/5 418/6/5
f 428/6/5 427/6/5 426/6/5
f 429/6/5 419/6/5 427/6/5
f 429/6/5 427/6/5 428/6/5
f 432/6/5 431/6/5 430/6/5
f 433/6/5 431/6/5 432/6/5
f 434/6/5 432/6/5 430/6/5
f 435/6/5 431/6/5 433/6/5
f 436/6/5 434/6/5 430/6/5
f 436/6/5 435/6/5 434/6/5
f 437/6/5 431/6/5 435/6/5
f 437/6/5 435/6/5 436/6/5
f 440/3/5 439/3/5 438/3/5
f 441/3/5 439/3/5 440/3/5
f 444/6/5 443/6/5 442/6/5
f 445/6/5 443/6/5 444/6/5
f 449/3/5 447/3/5 446/3/5
f 450/6/5 448/6/5 447/6/5
f 450/3/5 447/3/5 449/3/5
f 451/6/5 448/6/5 450/6/5
f 455/6/5 453/6/5 452/6/5
f 456/6/5 455/6/5 454/6/5
f 457/6/5 453/6/5 455/6/5
f 457/6/5 455/6/5 456/6/5
f 458/6/5 444/6/5 442/6/5
f 459/6/5 443/6/5 445/6/5
f 460/6/5 458/6/5 442/6/5
f 460/6/5 459/6/5 458/6/5
f 461/6/5 443/6/5 459/6/5
f 461/6/5 459/6/5 460/6/5
f 462/2/6 463/2/6 467/2/6
f 463/1/6 464/1/6 467/1/6
f 464/2/6 465/2/6 468/2/6
f 467/1/6 464/1/6 468/1/6
f 465/1/6 466/1/6 469/1/6
f 468/2/6 465/2/6 469/2/6
f 469/1/6 466/1/6 470/1/6
f 467/2/6 468/2/6 471/2/6
f 462/2/6 467/2/6 471/2/6
f 469/2/6 470/2/6 471/2/6
f 468/2/6 469/2/6 471/2/6
f 471/2/6 470/2/6 472/2/6
f 470/1/6 466/1/6 473/1/6
f 472/2/6 470/2/6 473/2/6
f 473/1/6 466/1/6 474/1/6
f 462/2/6 471/2/6 475/2/6
f 475/2/6 471/2/6 476/2/6
f 475/1/6 476/1/6 477/1/6
f 476/2/6 471/2/6 478/2/6
f 477/1/6 476/1/6 478/1/6
f 477/2/6 478/2/6 479/2/6
f 478/2/6 471/2/6 479/2/6
f 479/2/6 471/2/6 480/2/6
f 473/2/6 474/2/6 481/2/6
f 472/2/6 473/2/6 481/2/6
f 481/2/6 474/2/6 482/2/6
f 479/1/6 480/1/6 483/1/6
f 477/2/6 479/2/6 483/2/6
f 483/1/6 480/1/6 484/1/6
f 477/2/6 483/2/6 485/2/6
f 483/2/6 484/2/6 485/2/6
f 485/2/6 484/2/6 486/2/6
f 481/1/6 482/1/6 487/1/6
f 472/2/6 481/2/6 487/2/6
f 487/1/6 482/1/6 488/1/6
f 485/1/6 486/1/6 489/1/6
f 486/2/6 484/2/6 490/2/6
f 489/1/6 486/1/6 490/1/6
f 489/2/6 490/2/6 491/2/6
f 490/2/6 484/2/6 491/2/6
f 472/2/6 487/2/6 492/2/6
f 487/2/6 488/2/6 492/2/6
f 492/2/6 488/2/6 493/2/6
f 493/2/6 488/2/6 494/2/6
f 489/2/6 491/2/6 495/2/6
f 491/2/6 492/2/6 495/2/6
f 492/2/6 493/2/6 495/2/6
f 495/2/6 493/2/6 496/2/6
f 496/2/6 493/2/6 497/2/6
f 497/2/6 493/2/6 498/2/6
f 498/2/6 493/2/6 499/2/6
f 493/1/6 494/1/6 500/1/6
f 499/2/6 493/2/6 500/2/6
f 495/1/6 496/1/6 501/1/6
f 496/2/6 497/2/6 502/2/6
f 501/1/6 496/1/6 502/1/6
f 497/1/6 498/1/6 503/1/6
f 502/2/6 497/2/6 503/2/6
f 498/2/6 499/2/6 504/2/6
f 503/1/6 498/1/6 504/1/6
f 499/1/6 500/1/6 505/1/6
f 504/2/6 499/2/6 505/2/6
f 500/1/6 494/1/6 506/1/6
f 505/1/6 500/1/6 506/1/6
f 507/6/6 508/6/6 509/6/6
f 509/6/6 508/6/6 510/6/6
f 510/6/6 508/6/6 511/6/6
f 511/6/6 508/6/6 512/6/6
f 507/6/6 509/6/6 514/6/6
f 507/6/6 514/6/6 515/6/6
f 507/6/6 515/6/6 516/6/6
f 512/6/6 513/6/6 517/6/6
f 507/6/6 516/6/6 518/6/6
f 516/6/6 517/6/6 518/6/6
f 517/6/6 513/6/6 519/6/6
f 518/6/6 517/6/6 519/6/6
f 520/6/6 521/6/6 522/6/6
f 522/6/6 521/6/6 523/6/6
f 523/6/6 521/6/6 524/6/6
f 520/6/6 522/6/6 525/6/6
f 520/6/6 525/6/6 526/6/6
f 520/6/6 526/6/6 527/6/6
f 520/6/6 527/6/6 528/6/6
f 524/6/6 521/6/6 529/6/6
f 520/6/6 528/6/6 530/6/6
f 528/6/6 529/6/6 530/6/6
f 529/6/6 521/6/6 531/6/6
f 530/6/6 529/6/6 531/6/6
f 532/6/6 533/6/6 534/6/6
f 534/6/6 533/6/6 535/6/6
f 532/6/6 534/6/6 536/6/6
f 532/6/6 536/6/6 537/6/6
f 535/6/6 533/6/6 541/6/6
f 539/6/6 540/6/6 542/6/6
f 540/6/6 541/6/6 542/6/6
f 532/6/6 537/6/6 542/6/6
f 537/6/6 538/6/6 542/6/6
f 538/6/6 539/6/6 542/6/6
f 541/6/6 533/6/6 543/6/6
f 542/6/6 541/6/6 543/6/6
f 544/1/6 545/1/6 546/1/6
f 546/1/6 545/1/6 547/1/6
f 548/1/6 549/1/6 550/1/6
f 550/1/6 549/1/6 551/1/6
f 552/1/6 553/1/6 555/1/6
f 554/1/6 555/1/6 556/1/6
f 555/1/6 553/1/6 557/1/6
f 556/1/6 555/1/6 557/1/6
f 558/6/6 559/6/6 560/6/6
f 560/6/6 559/6/6 561/6/6
f 558/6/6 560/6/6 562/6/6
f 560/3/6 561/3/6 563/3/6
f 562/6/6 560/6/6 563/6/6
f 561/6/6 559/6/6 564/6/6
f 563/3/6 561/3/6 564/3/6
f 564/6/6 559/6/6 565/6/6
f 558/6/6 562/6/6 566/6/6
f 562/3/6 563/3/6 567/3/6
f 566/6/6 562/6/6 567/6/6
f 563/3/6 564/3/6 567/3/6
f 564/3/6 565/3/6 567/3/6
f 565/6/6 559/6/6 568/6/6
f 567/3/6 565/3/6 568/3/6
f 568/6/6 559/6/6 569/6/6
f 558/6/6 566/6/6 570/6/6
f 566/3/6 567/3/6 570/3/6
f 568/3/6 569/3/6 570/3/6
f 567/3/6 568/3/6 570/3/6
f 570/3/6 569/3/6 571/3/6
f 571/3/6 569/3/6 572/3/6
f 569/6/6 559/6/6 573/6/6
f 572/3/6 569/3/6 573/3/6
f 571/3/6 572/3/6 574/3/6
f 570/6/6 571/6/6 574/6/6
f 574/3/6 572/3/6 575/3/6
f 575/3/6 572/3/6 576/3/6
f 572/6/6 573/6/6 577/6/6
f 576/3/6 572/3/6 577/3/6
f 575/3/6 576/3/6 578/3/6
f 574/6/6 575/6/6 578/6/6
f 576/6/6 577/6/6 579/6/6
f 578/3/6 576/3/6 579/3/6
f 558/6/6 570/6/6 580/6/6
f 570/6/6 574/6/6 580/6/6
f 578/6/6 579/6/6 580/6/6
f 574/6/6 578/6/6 580/6/6
f 573/6/6 559/6/6 581/6/6
f 580/6/6 579/6/6 581/6/6
f 579/6/6 577/6/6 581/6/6
f 577/6/6 573/6/6 581/6/6
