# MagicaVoxel @ Ephtracy

# material
mtllib goa.mtl
usemtl palette

# normals
vn -1 0 0
vn 1 0 0
vn 0 0 1
vn 0 0 -1
vn 0 -1 0
vn 0 1 0

# texcoords
vt 0.912109 0.5
vt 0.939453 0.5

# verts
v 30 30 48
v 30 30 32
v 30 31 47
v 30 31 45
v 30 31 41
v 30 31 37
v 30 33 47
v 30 33 45
v 30 34 41
v 30 34 37
v 30 36 34
v 30 36 32
v 30 37 44
v 30 37 43
v 30 39 44
v 30 39 43
v 30 39 34
v 30 39 32
v 30 42 41
v 30 42 35
v 30 44 48
v 30 44 41
v 30 44 35
v 30 44 32
v 31 29 49
v 31 29 32
v 31 29 31
v 31 30 48
v 31 30 32
v 31 33 32
v 31 33 31
v 31 36 32
v 31 39 32
v 31 41 32
v 31 41 31
v 31 43 32
v 31 43 31
v 31 44 48
v 31 44 41
v 31 44 35
v 31 44 32
v 31 45 49
v 31 45 41
v 31 45 35
v 31 45 31
v 32 28 50
v 32 28 30
v 32 29 49
v 32 29 32
v 32 29 31
v 32 29 30
v 32 33 31
v 32 33 30
v 32 38 50
v 32 38 49
v 32 41 50
v 32 41 49
v 32 41 31
v 32 41 30
v 32 43 31
v 32 43 30
v 32 45 50
v 32 45 49
v 32 45 44
v 32 45 41
v 32 45 35
v 32 45 31
v 32 46 50
v 32 46 44
v 32 46 41
v 32 46 35
v 32 46 30
v 33 27 51
v 33 27 28
v 33 28 50
v 33 28 30
v 33 29 30
v 33 29 29
v 33 30 30
v 33 30 29
v 33 32 29
v 33 32 28
v 33 33 30
v 33 35 29
v 33 35 28
v 33 38 51
v 33 38 50
v 33 41 51
v 33 41 50
v 33 41 30
v 33 41 29
v 33 43 30
v 33 43 29
v 33 45 50
v 33 46 50
v 33 46 44
v 33 46 41
v 33 46 35
v 33 46 30
v 33 47 51
v 33 47 50
v 33 47 44
v 33 47 28
v 34 47 49
v 34 47 44
v 34 47 35
v 34 47 32
v 34 47 31
v 34 47 30
v 34 48 49
v 34 48 48
v 34 48 44
v 34 48 31
v 34 48 30
v 34 49 48
v 34 49 35
v 34 49 32
v 34 49 31
v 36 49 46
v 36 49 33
v 36 50 46
v 36 50 33
v 38 50 44
v 38 50 39
v 38 50 36
v 38 50 35
v 38 51 44
v 38 51 39
v 38 51 36
v 38 51 35
v 40 51 42
v 40 51 36
v 40 54 42
v 40 54 36
v 55 27 51
v 55 27 28
v 55 41 29
v 55 41 28
v 55 45 51
v 55 45 29
v 55 45 28
v 35 27 51
v 35 27 28
v 35 32 29
v 35 32 28
v 35 35 29
v 35 35 28
v 35 37 29
v 35 37 28
v 35 43 29
v 35 43 28
v 35 45 51
v 35 45 28
v 50 51 42
v 50 51 41
v 50 51 36
v 50 52 41
v 50 52 36
v 50 54 42
v 50 54 36
v 52 50 44
v 52 50 35
v 52 51 44
v 52 51 35
v 54 49 46
v 54 49 43
v 54 49 38
v 54 49 37
v 54 49 33
v 54 50 46
v 54 50 33
v 55 48 48
v 55 48 46
v 55 48 44
v 55 48 43
v 55 48 38
v 55 48 37
v 55 48 33
v 55 48 32
v 55 48 31
v 55 49 48
v 55 49 43
v 55 49 38
v 55 49 37
v 55 49 33
v 55 49 31
v 56 47 49
v 56 47 46
v 56 47 44
v 56 47 40
v 56 47 37
v 56 47 33
v 56 47 32
v 56 47 30
v 56 48 49
v 56 48 46
v 56 48 44
v 56 48 33
v 56 48 32
v 56 48 30
v 57 27 51
v 57 27 28
v 57 29 49
v 57 29 30
v 57 33 30
v 57 34 30
v 57 38 30
v 57 41 30
v 57 46 49
v 57 46 46
v 57 46 44
v 57 46 40
v 57 46 37
v 57 46 33
v 57 46 32
v 57 46 30
v 57 47 51
v 57 47 46
v 57 47 44
v 57 47 40
v 57 47 37
v 57 47 33
v 57 47 32
v 57 47 28
v 58 29 49
v 58 29 30
v 58 31 48
v 58 31 31
v 58 33 31
v 58 33 30
v 58 34 31
v 58 34 30
v 58 35 48
v 58 36 48
v 58 38 31
v 58 38 30
v 58 41 31
v 58 41 30
v 58 45 48
v 58 45 31
v 58 46 49
v 58 46 30
v 59 31 48
v 59 31 31
v 59 33 47
v 59 33 32
v 59 35 48
v 59 35 47
v 59 36 48
v 59 36 47
v 59 44 47
v 59 44 32
v 59 45 48
v 59 45 31
v 60 33 47
v 60 33 32
v 60 44 47
v 60 44 32
v 33 27 51
v 33 38 51
v 33 41 51
v 33 47 51
v 34 38 51
v 34 41 51
v 35 27 51
v 35 45 51
v 55 27 51
v 55 45 51
v 57 27 51
v 57 47 51
v 32 28 50
v 32 38 50
v 32 41 50
v 32 45 50
v 32 46 50
v 33 28 50
v 33 38 50
v 33 41 50
v 33 45 50
v 33 46 50
v 31 29 49
v 31 45 49
v 32 29 49
v 32 38 49
v 32 41 49
v 32 45 49
v 34 47 49
v 34 48 49
v 35 47 49
v 35 48 49
v 56 47 49
v 56 48 49
v 57 29 49
v 57 46 49
v 58 29 49
v 58 46 49
v 30 30 48
v 30 44 48
v 31 30 48
v 31 44 48
v 34 48 48
v 34 49 48
v 35 48 48
v 55 48 48
v 55 49 48
v 58 31 48
v 58 35 48
v 58 36 48
v 58 45 48
v 59 31 48
v 59 35 48
v 59 36 48
v 59 45 48
v 59 33 47
v 59 35 47
v 59 36 47
v 59 44 47
v 60 33 47
v 60 44 47
v 36 49 46
v 36 50 46
v 54 49 46
v 54 50 46
v 38 50 44
v 38 51 44
v 52 50 44
v 52 51 44
v 40 51 42
v 40 54 42
v 50 51 42
v 50 54 42
v 40 51 36
v 40 54 36
v 41 51 36
v 41 52 36
v 50 51 36
v 50 52 36
v 50 54 36
v 38 50 35
v 38 51 35
v 52 50 35
v 52 51 35
v 36 49 33
v 36 50 33
v 40 49 33
v 40 50 33
v 44 49 33
v 44 50 33
v 52 49 33
v 52 50 33
v 53 49 33
v 53 50 33
v 54 49 33
v 54 50 33
v 30 30 32
v 30 36 32
v 30 39 32
v 30 44 32
v 31 30 32
v 31 33 32
v 31 36 32
v 31 39 32
v 31 41 32
v 31 43 32
v 31 44 32
v 59 33 32
v 59 44 32
v 60 33 32
v 60 44 32
v 31 29 31
v 31 33 31
v 31 41 31
v 31 43 31
v 31 45 31
v 32 29 31
v 32 33 31
v 32 41 31
v 32 43 31
v 32 45 31
v 34 48 31
v 34 49 31
v 38 48 31
v 47 48 31
v 47 49 31
v 49 48 31
v 49 49 31
v 55 48 31
v 55 49 31
v 58 31 31
v 58 33 31
v 58 34 31
v 58 38 31
v 58 41 31
v 58 45 31
v 59 31 31
v 59 45 31
v 32 28 30
v 32 29 30
v 32 33 30
v 32 41 30
v 32 43 30
v 32 46 30
v 33 28 30
v 33 29 30
v 33 30 30
v 33 33 30
v 33 41 30
v 33 43 30
v 33 46 30
v 34 47 30
v 34 48 30
v 38 47 30
v 38 48 30
v 47 47 30
v 47 48 30
v 49 47 30
v 49 48 30
v 56 47 30
v 56 48 30
v 57 29 30
v 57 33 30
v 57 34 30
v 57 38 30
v 57 41 30
v 57 46 30
v 58 29 30
v 58 33 30
v 58 34 30
v 58 38 30
v 58 41 30
v 58 46 30
v 33 27 28
v 33 32 28
v 33 35 28
v 33 47 28
v 34 37 28
v 34 43 28
v 35 27 28
v 35 32 28
v 35 35 28
v 35 37 28
v 35 43 28
v 35 45 28
v 53 46 28
v 53 47 28
v 54 45 28
v 54 46 28
v 54 47 28
v 55 27 28
v 55 41 28
v 55 45 28
v 56 41 28
v 56 46 28
v 57 27 28
v 57 47 28
v 33 27 51
v 35 27 51
v 55 27 51
v 57 27 51
v 33 27 28
v 35 27 28
v 55 27 28
v 57 27 28
v 32 28 50
v 33 28 50
v 32 28 30
v 33 28 30
v 31 29 49
v 32 29 49
v 57 29 49
v 58 29 49
v 31 29 32
v 32 29 32
v 31 29 31
v 32 29 31
v 57 29 30
v 58 29 30
v 30 30 48
v 31 30 48
v 30 30 32
v 31 30 32
v 58 31 48
v 59 31 48
v 58 31 31
v 59 31 31
v 59 33 47
v 60 33 47
v 59 33 32
v 60 33 32
v 35 45 51
v 55 45 51
v 54 45 29
v 55 45 29
v 35 45 28
v 54 45 28
v 55 45 28
v 30 44 48
v 31 44 48
v 59 44 47
v 60 44 47
v 30 44 41
v 31 44 41
v 30 44 35
v 31 44 35
v 30 44 32
v 31 44 32
v 59 44 32
v 60 44 32
v 31 45 49
v 32 45 49
v 58 45 48
v 59 45 48
v 32 45 44
v 31 45 41
v 32 45 41
v 31 45 35
v 32 45 35
v 31 45 31
v 32 45 31
v 58 45 31
v 59 45 31
v 32 46 50
v 33 46 50
v 57 46 49
v 58 46 49
v 57 46 46
v 32 46 44
v 33 46 44
v 57 46 44
v 32 46 41
v 33 46 41
v 57 46 40
v 57 46 37
v 32 46 35
v 33 46 35
v 57 46 33
v 57 46 32
v 32 46 30
v 33 46 30
v 57 46 30
v 58 46 30
v 33 47 51
v 57 47 51
v 33 47 50
v 35 47 50
v 34 47 49
v 35 47 49
v 56 47 49
v 56 47 46
v 57 47 46
v 33 47 44
v 34 47 44
v 56 47 44
v 57 47 44
v 56 47 40
v 57 47 40
v 56 47 37
v 57 47 37
v 34 47 35
v 56 47 33
v 57 47 33
v 34 47 32
v 56 47 32
v 57 47 32
v 34 47 31
v 34 47 30
v 38 47 30
v 47 47 30
v 49 47 30
v 56 47 30
v 53 47 29
v 54 47 29
v 33 47 28
v 53 47 28
v 54 47 28
v 57 47 28
v 34 48 49
v 35 48 49
v 56 48 49
v 34 48 48
v 35 48 48
v 55 48 48
v 55 48 46
v 56 48 46
v 55 48 44
v 56 48 44
v 55 48 43
v 55 48 38
v 55 48 37
v 55 48 33
v 56 48 33
v 55 48 32
v 56 48 32
v 34 48 31
v 38 48 31
v 47 48 31
v 49 48 31
v 55 48 31
v 34 48 30
v 38 48 30
v 47 48 30
v 49 48 30
v 56 48 30
v 34 49 48
v 55 49 48
v 36 49 46
v 54 49 46
v 54 49 43
v 55 49 43
v 54 49 38
v 55 49 38
v 54 49 37
v 55 49 37
v 34 49 35
v 35 49 35
v 36 49 33
v 40 49 33
v 44 49 33
v 52 49 33
v 53 49 33
v 54 49 33
v 55 49 33
v 34 49 32
v 35 49 32
v 47 49 32
v 49 49 32
v 34 49 31
v 47 49 31
v 49 49 31
v 55 49 31
v 36 50 46
v 54 50 46
v 38 50 44
v 52 50 44
v 38 50 39
v 38 50 36
v 38 50 35
v 52 50 35
v 40 50 34
v 44 50 34
v 52 50 34
v 53 50 34
v 36 50 33
v 40 50 33
v 44 50 33
v 52 50 33
v 53 50 33
v 54 50 33
v 38 51 44
v 52 51 44
v 40 51 42
v 50 51 42
v 50 51 41
v 38 51 39
v 39 51 39
v 38 51 36
v 39 51 36
v 40 51 36
v 41 51 36
v 50 51 36
v 38 51 35
v 52 51 35
v 40 54 42
v 50 54 42
v 40 54 36
v 50 54 36

# faces
f 3/1/1 2/1/1 1/1/1
f 4/1/1 2/1/1 3/1/1
f 5/1/1 2/1/1 4/1/1
f 6/1/1 2/1/1 5/1/1
f 7/1/1 3/1/1 1/1/1
f 7/2/1 4/2/1 3/2/1
f 8/1/1 5/1/1 4/1/1
f 8/2/1 4/2/1 7/2/1
f 9/2/1 6/2/1 5/2/1
f 9/1/1 5/1/1 8/1/1
f 9/1/1 8/1/1 7/1/1
f 10/1/1 2/1/1 6/1/1
f 10/2/1 6/2/1 9/2/1
f 11/1/1 10/1/1 9/1/1
f 11/1/1 2/1/1 10/1/1
f 12/1/1 2/1/1 11/1/1
f 13/1/1 9/1/1 7/1/1
f 13/1/1 11/1/1 9/1/1
f 14/1/1 11/1/1 13/1/1
f 15/1/1 13/1/1 7/1/1
f 15/2/1 14/2/1 13/2/1
f 16/1/1 11/1/1 14/1/1
f 16/2/1 14/2/1 15/2/1
f 17/2/1 12/2/1 11/2/1
f 17/1/1 11/1/1 16/1/1
f 18/2/1 12/2/1 17/2/1
f 19/1/1 16/1/1 15/1/1
f 19/1/1 17/1/1 16/1/1
f 19/1/1 18/1/1 17/1/1
f 20/1/1 18/1/1 19/1/1
f 21/1/1 7/1/1 1/1/1
f 21/1/1 15/1/1 7/1/1
f 21/1/1 19/1/1 15/1/1
f 22/2/1 20/2/1 19/2/1
f 22/1/1 19/1/1 21/1/1
f 23/1/1 18/1/1 20/1/1
f 23/2/1 20/2/1 22/2/1
f 24/1/1 18/1/1 23/1/1
f 28/1/1 26/1/1 25/1/1
f 29/2/1 27/2/1 26/2/1
f 29/1/1 26/1/1 28/1/1
f 30/2/1 27/2/1 29/2/1
f 31/2/1 27/2/1 30/2/1
f 32/1/1 31/1/1 30/1/1
f 33/1/1 31/1/1 32/1/1
f 34/1/1 31/1/1 33/1/1
f 35/1/1 31/1/1 34/1/1
f 36/2/1 35/2/1 34/2/1
f 37/2/1 35/2/1 36/2/1
f 38/1/1 28/1/1 25/1/1
f 41/1/1 37/1/1 36/1/1
f 42/1/1 38/1/1 25/1/1
f 42/1/1 39/1/1 38/1/1
f 43/2/1 40/2/1 39/2/1
f 43/1/1 39/1/1 42/1/1
f 44/1/1 41/1/1 40/1/1
f 44/2/1 40/2/1 43/2/1
f 45/1/1 37/1/1 41/1/1
f 45/1/1 41/1/1 44/1/1
f 48/1/1 47/1/1 46/1/1
f 49/1/1 47/1/1 48/1/1
f 50/1/1 47/1/1 49/1/1
f 51/1/1 47/1/1 50/1/1
f 52/2/1 51/2/1 50/2/1
f 53/2/1 51/2/1 52/2/1
f 54/1/1 48/1/1 46/1/1
f 55/1/1 48/1/1 54/1/1
f 56/2/1 55/2/1 54/2/1
f 57/2/1 55/2/1 56/2/1
f 58/1/1 53/1/1 52/1/1
f 59/1/1 53/1/1 58/1/1
f 60/2/1 59/2/1 58/2/1
f 61/2/1 59/2/1 60/2/1
f 62/1/1 57/1/1 56/1/1
f 63/1/1 57/1/1 62/1/1
f 67/1/1 61/1/1 60/1/1
f 68/2/1 63/2/1 62/2/1
f 68/2/1 64/2/1 63/2/1
f 69/1/1 65/1/1 64/1/1
f 69/2/1 64/2/1 68/2/1
f 70/2/1 66/2/1 65/2/1
f 70/1/1 65/1/1 69/1/1
f 71/1/1 67/1/1 66/1/1
f 71/2/1 66/2/1 70/2/1
f 72/1/1 61/1/1 67/1/1
f 72/1/1 67/1/1 71/1/1
f 75/1/1 74/1/1 73/1/1
f 76/1/1 74/1/1 75/1/1
f 77/1/1 74/1/1 76/1/1
f 78/1/1 74/1/1 77/1/1
f 79/2/1 78/2/1 77/2/1
f 80/1/1 74/1/1 78/1/1
f 80/2/1 78/2/1 79/2/1
f 81/1/1 80/1/1 79/1/1
f 81/1/1 74/1/1 80/1/1
f 82/1/1 74/1/1 81/1/1
f 83/1/1 81/1/1 79/1/1
f 84/2/1 82/2/1 81/2/1
f 84/1/1 81/1/1 83/1/1
f 85/2/1 82/2/1 84/2/1
f 86/1/1 75/1/1 73/1/1
f 87/1/1 75/1/1 86/1/1
f 88/2/1 87/2/1 86/2/1
f 89/2/1 87/2/1 88/2/1
f 90/1/1 84/1/1 83/1/1
f 90/1/1 85/1/1 84/1/1
f 91/1/1 85/1/1 90/1/1
f 92/2/1 91/2/1 90/2/1
f 93/1/1 85/1/1 91/1/1
f 93/2/1 91/2/1 92/2/1
f 94/1/1 89/1/1 88/1/1
f 95/1/1 94/1/1 88/1/1
f 99/1/1 93/1/1 92/1/1
f 100/1/1 95/1/1 88/1/1
f 101/2/1 96/2/1 95/2/1
f 101/1/1 95/1/1 100/1/1
f 102/1/1 98/1/1 97/1/1
f 102/2/1 96/2/1 101/2/1
f 102/1/1 99/1/1 98/1/1
f 102/1/1 97/1/1 96/1/1
f 103/1/1 85/1/1 93/1/1
f 103/1/1 99/1/1 102/1/1
f 103/1/1 93/1/1 99/1/1
f 110/2/1 105/2/1 104/2/1
f 111/2/1 105/2/1 110/2/1
f 112/1/1 106/1/1 105/1/1
f 112/2/1 105/2/1 111/2/1
f 113/2/1 109/2/1 108/2/1
f 113/1/1 108/1/1 107/1/1
f 114/2/1 109/2/1 113/2/1
f 115/1/1 112/1/1 111/1/1
f 116/1/1 106/1/1 112/1/1
f 116/1/1 112/1/1 115/1/1
f 116/2/1 107/2/1 106/2/1
f 117/1/1 113/1/1 107/1/1
f 117/2/1 107/2/1 116/2/1
f 118/1/1 113/1/1 117/1/1
f 121/1/1 120/1/1 119/1/1
f 122/1/1 120/1/1 121/1/1
f 127/1/1 124/1/1 123/1/1
f 128/2/1 125/2/1 124/2/1
f 128/1/1 124/1/1 127/1/1
f 129/1/1 126/1/1 125/1/1
f 129/2/1 125/2/1 128/2/1
f 130/1/1 126/1/1 129/1/1
f 133/1/1 132/1/1 131/1/1
f 134/1/1 132/1/1 133/1/1
f 137/1/1 136/1/1 135/1/1
f 138/1/1 136/1/1 137/1/1
f 139/1/1 137/1/1 135/1/1
f 140/2/1 138/2/1 137/2/1
f 140/1/1 137/1/1 139/1/1
f 141/2/1 138/2/1 140/2/1
f 142/1/2 143/1/2 144/1/2
f 144/1/2 143/1/2 145/1/2
f 142/1/2 144/1/2 146/1/2
f 144/2/2 145/2/2 146/2/2
f 146/2/2 145/2/2 147/2/2
f 142/1/2 146/1/2 148/1/2
f 146/1/2 147/1/2 148/1/2
f 148/1/2 147/1/2 149/1/2
f 142/1/2 148/1/2 150/1/2
f 148/2/2 149/2/2 150/2/2
f 150/2/2 149/2/2 151/2/2
f 142/1/2 150/1/2 152/1/2
f 150/1/2 151/1/2 152/1/2
f 152/1/2 151/1/2 153/1/2
f 154/1/2 155/1/2 157/1/2
f 155/2/2 156/2/2 157/2/2
f 157/2/2 156/2/2 158/2/2
f 154/1/2 157/1/2 159/1/2
f 157/1/2 158/1/2 159/1/2
f 159/1/2 158/1/2 160/1/2
f 161/1/2 162/1/2 163/1/2
f 163/1/2 162/1/2 164/1/2
f 165/1/2 166/1/2 170/1/2
f 168/1/2 169/1/2 170/1/2
f 167/1/2 168/1/2 170/1/2
f 166/1/2 167/1/2 170/1/2
f 170/1/2 169/1/2 171/1/2
f 172/1/2 173/1/2 181/1/2
f 173/1/2 174/1/2 181/1/2
f 174/1/2 175/1/2 181/1/2
f 175/2/2 176/2/2 182/2/2
f 181/1/2 175/1/2 182/1/2
f 176/1/2 177/1/2 183/1/2
f 182/2/2 176/2/2 183/2/2
f 177/2/2 178/2/2 184/2/2
f 183/1/2 177/1/2 184/1/2
f 179/1/2 180/1/2 185/1/2
f 184/2/2 178/2/2 185/2/2
f 178/1/2 179/1/2 185/1/2
f 185/1/2 180/1/2 186/1/2
f 187/1/2 188/1/2 195/1/2
f 188/2/2 189/2/2 196/2/2
f 195/1/2 188/1/2 196/1/2
f 189/1/2 190/1/2 197/1/2
f 196/2/2 189/2/2 197/2/2
f 190/1/2 191/1/2 197/1/2
f 191/1/2 192/1/2 197/1/2
f 192/2/2 193/2/2 198/2/2
f 197/1/2 192/1/2 198/1/2
f 193/1/2 194/1/2 199/1/2
f 198/2/2 193/2/2 199/2/2
f 199/1/2 194/1/2 200/1/2
f 201/1/2 202/1/2 203/1/2
f 203/1/2 202/1/2 204/1/2
f 204/1/2 202/1/2 205/1/2
f 205/1/2 202/1/2 206/1/2
f 206/1/2 202/1/2 207/1/2
f 207/1/2 202/1/2 208/1/2
f 201/1/2 203/1/2 209/1/2
f 208/1/2 202/1/2 216/1/2
f 201/1/2 209/1/2 217/1/2
f 209/1/2 210/1/2 217/1/2
f 210/2/2 211/2/2 218/2/2
f 217/1/2 210/1/2 218/1/2
f 211/1/2 212/1/2 219/1/2
f 218/2/2 211/2/2 219/2/2
f 212/2/2 213/2/2 220/2/2
f 219/1/2 212/1/2 220/1/2
f 213/1/2 214/1/2 221/1/2
f 220/2/2 213/2/2 221/2/2
f 214/2/2 215/2/2 222/2/2
f 221/1/2 214/1/2 222/1/2
f 215/1/2 216/1/2 223/1/2
f 222/2/2 215/2/2 223/2/2
f 216/1/2 202/1/2 224/1/2
f 223/1/2 216/1/2 224/1/2
f 225/1/2 226/1/2 227/1/2
f 227/1/2 226/1/2 228/1/2
f 228/1/2 226/1/2 229/1/2
f 229/1/2 226/1/2 230/1/2
f 229/2/2 230/2/2 231/2/2
f 231/2/2 230/2/2 232/2/2
f 225/1/2 227/1/2 233/1/2
f 225/1/2 233/1/2 234/1/2
f 231/1/2 232/1/2 235/1/2
f 235/1/2 232/1/2 236/1/2
f 235/2/2 236/2/2 237/2/2
f 237/2/2 236/2/2 238/2/2
f 225/1/2 234/1/2 239/1/2
f 237/1/2 238/1/2 240/1/2
f 225/1/2 239/1/2 241/1/2
f 239/1/2 240/1/2 241/1/2
f 240/1/2 238/1/2 242/1/2
f 241/1/2 240/1/2 242/1/2
f 243/1/2 244/1/2 245/1/2
f 245/1/2 244/1/2 246/1/2
f 243/1/2 245/1/2 247/1/2
f 247/1/2 245/1/2 248/1/2
f 247/2/2 248/2/2 249/2/2
f 249/2/2 248/2/2 250/2/2
f 249/1/2 250/1/2 251/1/2
f 246/1/2 244/1/2 252/1/2
f 249/1/2 251/1/2 253/1/2
f 251/1/2 252/1/2 253/1/2
f 252/1/2 244/1/2 254/1/2
f 253/1/2 252/1/2 254/1/2
f 255/1/2 256/1/2 257/1/2
f 257/1/2 256/1/2 258/1/2
f 263/1/3 260/1/3 259/1/3
f 263/2/3 261/2/3 260/2/3
f 264/1/3 262/1/3 261/1/3
f 264/2/3 261/2/3 263/2/3
f 265/1/3 263/1/3 259/1/3
f 265/1/3 264/1/3 263/1/3
f 266/1/3 262/1/3 264/1/3
f 266/1/3 264/1/3 265/1/3
f 268/1/3 262/1/3 266/1/3
f 269/1/3 268/1/3 267/1/3
f 270/1/3 262/1/3 268/1/3
f 270/1/3 268/1/3 269/1/3
f 276/1/3 272/1/3 271/1/3
f 277/2/3 273/2/3 272/2/3
f 277/1/3 272/1/3 276/1/3
f 278/1/3 274/1/3 273/1/3
f 278/2/3 273/2/3 277/2/3
f 279/2/3 275/2/3 274/2/3
f 279/1/3 274/1/3 278/1/3
f 280/2/3 275/2/3 279/2/3
f 283/1/3 282/1/3 281/1/3
f 284/1/3 282/1/3 283/1/3
f 285/1/3 282/1/3 284/1/3
f 286/1/3 282/1/3 285/1/3
f 289/2/3 288/2/3 287/2/3
f 290/2/3 288/2/3 289/2/3
f 291/1/3 290/1/3 289/1/3
f 292/1/3 290/1/3 291/1/3
f 295/1/3 294/1/3 293/1/3
f 296/1/3 294/1/3 295/1/3
f 299/1/3 298/1/3 297/1/3
f 300/1/3 298/1/3 299/1/3
f 303/1/3 302/1/3 301/1/3
f 304/1/3 302/1/3 303/1/3
f 305/1/3 302/1/3 304/1/3
f 310/1/3 307/1/3 306/1/3
f 311/2/3 308/2/3 307/2/3
f 311/1/3 307/1/3 310/1/3
f 312/1/3 309/1/3 308/1/3
f 312/2/3 308/2/3 311/2/3
f 313/1/3 309/1/3 312/1/3
f 318/1/3 315/1/3 314/1/3
f 318/1/3 317/1/3 316/1/3
f 318/1/3 316/1/3 315/1/3
f 319/1/3 317/1/3 318/1/3
f 322/1/3 321/1/3 320/1/3
f 323/1/3 321/1/3 322/1/3
f 326/1/3 325/1/3 324/1/3
f 327/1/3 325/1/3 326/1/3
f 330/1/3 329/1/3 328/1/3
f 331/1/3 329/1/3 330/1/3
f 332/1/4 333/1/4 334/1/4
f 334/1/4 333/1/4 335/1/4
f 334/2/4 335/2/4 336/2/4
f 335/1/4 333/1/4 337/1/4
f 336/2/4 335/2/4 337/2/4
f 337/1/4 333/1/4 338/1/4
f 339/1/4 340/1/4 341/1/4
f 341/1/4 340/1/4 342/1/4
f 343/1/4 344/1/4 345/1/4
f 345/1/4 344/1/4 346/1/4
f 345/2/4 346/2/4 347/2/4
f 347/2/4 346/2/4 348/2/4
f 347/1/4 348/1/4 349/1/4
f 349/1/4 348/1/4 350/1/4
f 349/2/4 350/2/4 351/2/4
f 351/2/4 350/2/4 352/2/4
f 351/1/4 352/1/4 353/1/4
f 353/1/4 352/1/4 354/1/4
f 355/1/4 356/1/4 359/1/4
f 359/1/4 356/1/4 360/1/4
f 356/2/4 357/2/4 361/2/4
f 360/1/4 356/1/4 361/1/4
f 357/1/4 358/1/4 362/1/4
f 361/2/4 357/2/4 362/2/4
f 362/1/4 358/1/4 363/1/4
f 363/1/4 358/1/4 364/1/4
f 364/1/4 358/1/4 365/1/4
f 366/1/4 367/1/4 368/1/4
f 368/1/4 367/1/4 369/1/4
f 370/2/4 371/2/4 375/2/4
f 371/1/4 372/1/4 376/1/4
f 375/2/4 371/2/4 376/2/4
f 372/2/4 373/2/4 377/2/4
f 376/1/4 372/1/4 377/1/4
f 373/1/4 374/1/4 378/1/4
f 377/2/4 373/2/4 378/2/4
f 378/1/4 374/1/4 379/1/4
f 380/1/4 381/1/4 382/1/4
f 382/1/4 381/1/4 383/1/4
f 383/1/4 381/1/4 384/1/4
f 383/2/4 384/2/4 385/2/4
f 385/2/4 384/2/4 386/2/4
f 385/1/4 386/1/4 387/1/4
f 387/1/4 386/1/4 388/1/4
f 389/1/4 390/1/4 395/1/4
f 393/1/4 394/1/4 395/1/4
f 392/1/4 393/1/4 395/1/4
f 391/1/4 392/1/4 395/1/4
f 390/1/4 391/1/4 395/1/4
f 395/1/4 394/1/4 396/1/4
f 397/1/4 398/1/4 403/1/4
f 398/2/4 399/2/4 404/2/4
f 403/1/4 398/1/4 404/1/4
f 404/2/4 399/2/4 405/2/4
f 399/1/4 400/1/4 406/1/4
f 405/2/4 399/2/4 406/2/4
f 400/2/4 401/2/4 407/2/4
f 406/1/4 400/1/4 407/1/4
f 401/1/4 402/1/4 408/1/4
f 407/2/4 401/2/4 408/2/4
f 408/1/4 402/1/4 409/1/4
f 410/2/4 411/2/4 412/2/4
f 412/2/4 411/2/4 413/2/4
f 412/1/4 413/1/4 414/1/4
f 414/1/4 413/1/4 415/1/4
f 414/2/4 415/2/4 416/2/4
f 416/2/4 415/2/4 417/2/4
f 416/1/4 417/1/4 418/1/4
f 418/1/4 417/1/4 419/1/4
f 420/1/4 421/1/4 426/1/4
f 421/2/4 422/2/4 427/2/4
f 426/1/4 421/1/4 427/1/4
f 422/1/4 423/1/4 428/1/4
f 427/2/4 422/2/4 428/2/4
f 423/2/4 424/2/4 429/2/4
f 428/1/4 423/1/4 429/1/4
f 424/1/4 425/1/4 430/1/4
f 429/2/4 424/2/4 430/2/4
f 430/1/4 425/1/4 431/1/4
f 434/1/4 435/1/4 436/1/4
f 436/1/4 435/1/4 437/1/4
f 432/1/4 433/1/4 438/1/4
f 433/2/4 434/2/4 439/2/4
f 438/1/4 433/1/4 439/1/4
f 434/1/4 436/1/4 440/1/4
f 439/2/4 434/2/4 440/2/4
f 436/2/4 437/2/4 441/2/4
f 440/1/4 436/1/4 441/1/4
f 437/1/4 435/1/4 442/1/4
f 441/2/4 437/2/4 442/2/4
f 442/1/4 435/1/4 443/1/4
f 443/1/4 435/1/4 444/1/4
f 444/1/4 435/1/4 445/1/4
f 443/1/4 444/1/4 446/1/4
f 444/2/4 445/2/4 447/2/4
f 446/1/4 444/1/4 447/1/4
f 447/2/4 445/2/4 448/2/4
f 446/2/4 447/2/4 451/2/4
f 449/1/4 450/1/4 452/1/4
f 450/2/4 451/2/4 452/2/4
f 451/2/4 447/2/4 453/2/4
f 452/2/4 451/2/4 453/2/4
f 447/1/4 448/1/4 453/1/4
f 449/1/4 452/1/4 454/1/4
f 452/1/4 453/1/4 454/1/4
f 453/1/4 448/1/4 455/1/4
f 454/1/4 453/1/4 455/1/4
f 460/1/5 457/1/5 456/1/5
f 461/1/5 457/1/5 460/1/5
f 462/1/5 459/1/5 458/1/5
f 463/1/5 459/1/5 462/1/5
f 466/1/5 465/1/5 464/1/5
f 467/1/5 465/1/5 466/1/5
f 472/1/5 469/1/5 468/1/5
f 473/1/5 469/1/5 472/1/5
f 474/2/5 473/2/5 472/2/5
f 475/2/5 473/2/5 474/2/5
f 476/1/5 471/1/5 470/1/5
f 477/1/5 471/1/5 476/1/5
f 480/1/5 479/1/5 478/1/5
f 481/1/5 479/1/5 480/1/5
f 484/1/5 483/1/5 482/1/5
f 485/1/5 483/1/5 484/1/5
f 488/1/5 487/1/5 486/1/5
f 489/1/5 487/1/5 488/1/5
f 492/1/5 491/1/5 490/1/5
f 493/1/5 491/1/5 492/1/5
f 494/1/5 492/1/5 490/1/5
f 495/2/5 493/2/5 492/2/5
f 495/1/5 492/1/5 494/1/5
f 496/2/5 493/2/5 495/2/5
f 497/1/6 498/1/6 501/1/6
f 501/1/6 498/1/6 502/1/6
f 501/2/6 502/2/6 503/2/6
f 503/2/6 502/2/6 504/2/6
f 503/1/6 504/1/6 505/1/6
f 505/1/6 504/1/6 506/1/6
f 499/1/6 500/1/6 507/1/6
f 507/1/6 500/1/6 508/1/6
f 509/1/6 510/1/6 513/1/6
f 509/1/6 513/1/6 514/1/6
f 514/1/6 513/1/6 515/1/6
f 514/2/6 515/2/6 516/2/6
f 516/2/6 515/2/6 517/2/6
f 516/1/6 517/1/6 518/1/6
f 518/1/6 517/1/6 519/1/6
f 511/1/6 512/1/6 520/1/6
f 520/1/6 512/1/6 521/1/6
f 524/1/6 525/1/6 526/1/6
f 522/2/6 523/2/6 527/2/6
f 527/2/6 523/2/6 528/2/6
f 526/1/6 525/1/6 529/1/6
f 527/1/6 528/1/6 530/1/6
f 530/1/6 528/1/6 531/1/6
f 529/1/6 525/1/6 532/1/6
f 532/1/6 525/1/6 533/1/6
f 530/2/6 531/2/6 534/2/6
f 534/2/6 531/2/6 535/2/6
f 533/1/6 525/1/6 536/1/6
f 536/1/6 525/1/6 537/1/6
f 534/1/6 535/1/6 538/1/6
f 538/1/6 535/1/6 539/1/6
f 537/1/6 525/1/6 540/1/6
f 540/1/6 525/1/6 541/1/6
f 542/1/6 543/1/6 544/1/6
f 544/1/6 543/1/6 545/1/6
f 544/2/6 545/2/6 546/2/6
f 545/1/6 543/1/6 547/1/6
f 546/2/6 545/2/6 547/2/6
f 547/1/6 543/1/6 548/1/6
f 548/1/6 543/1/6 549/1/6
f 549/1/6 543/1/6 550/1/6
f 544/2/6 546/2/6 551/2/6
f 551/2/6 546/2/6 552/2/6
f 549/2/6 550/2/6 553/2/6
f 553/2/6 550/2/6 554/2/6
f 553/1/6 554/1/6 555/1/6
f 555/1/6 554/1/6 556/1/6
f 555/2/6 556/2/6 557/2/6
f 557/2/6 556/2/6 558/2/6
f 551/1/6 552/1/6 559/1/6
f 557/1/6 558/1/6 560/1/6
f 560/1/6 558/1/6 561/1/6
f 551/1/6 559/1/6 562/1/6
f 560/2/6 561/2/6 563/2/6
f 563/2/6 561/2/6 564/2/6
f 551/1/6 562/1/6 565/1/6
f 551/1/6 565/1/6 566/1/6
f 563/1/6 564/1/6 570/1/6
f 568/1/6 569/1/6 571/1/6
f 569/1/6 570/1/6 571/1/6
f 566/1/6 567/1/6 571/1/6
f 567/1/6 568/1/6 571/1/6
f 571/1/6 570/1/6 572/1/6
f 551/1/6 566/1/6 573/1/6
f 566/1/6 571/1/6 573/1/6
f 571/2/6 572/2/6 574/2/6
f 573/1/6 571/1/6 574/1/6
f 572/1/6 570/1/6 575/1/6
f 574/2/6 572/2/6 575/2/6
f 570/1/6 564/1/6 576/1/6
f 575/1/6 570/1/6 576/1/6
f 577/2/6 578/2/6 580/2/6
f 578/1/6 579/1/6 581/1/6
f 580/2/6 578/2/6 581/2/6
f 581/1/6 579/1/6 582/1/6
f 582/1/6 579/1/6 583/1/6
f 583/1/6 579/1/6 584/1/6
f 583/2/6 584/2/6 585/2/6
f 585/2/6 584/2/6 586/2/6
f 585/1/6 586/1/6 587/1/6
f 587/1/6 586/1/6 588/1/6
f 588/1/6 586/1/6 589/1/6
f 589/1/6 586/1/6 590/1/6
f 590/1/6 586/1/6 591/1/6
f 590/2/6 591/2/6 592/2/6
f 592/2/6 591/2/6 593/2/6
f 592/1/6 593/1/6 598/1/6
f 594/2/6 595/2/6 599/2/6
f 595/1/6 596/1/6 600/1/6
f 599/2/6 595/2/6 600/2/6
f 596/2/6 597/2/6 601/2/6
f 600/1/6 596/1/6 601/1/6
f 597/1/6 598/1/6 602/1/6
f 601/2/6 597/2/6 602/2/6
f 598/1/6 593/1/6 603/1/6
f 602/1/6 598/1/6 603/1/6
f 604/1/6 605/1/6 606/1/6
f 606/1/6 605/1/6 607/1/6
f 607/1/6 605/1/6 608/1/6
f 608/1/6 605/1/6 609/1/6
f 608/2/6 609/2/6 610/2/6
f 610/2/6 609/2/6 611/2/6
f 610/1/6 611/1/6 612/1/6
f 612/1/6 611/1/6 613/1/6
f 604/1/6 606/1/6 614/1/6
f 614/1/6 606/1/6 615/1/6
f 615/1/6 606/1/6 616/1/6
f 612/2/6 613/2/6 621/2/6
f 621/2/6 613/2/6 622/2/6
f 614/2/6 615/2/6 623/2/6
f 619/1/6 620/1/6 624/1/6
f 623/2/6 615/2/6 624/2/6
f 615/1/6 616/1/6 624/1/6
f 621/1/6 622/1/6 624/1/6
f 620/1/6 621/1/6 624/1/6
f 616/1/6 617/1/6 624/1/6
f 618/1/6 619/1/6 624/1/6
f 617/1/6 618/1/6 624/1/6
f 624/1/6 622/1/6 625/1/6
f 625/1/6 622/1/6 626/1/6
f 623/1/6 624/1/6 627/1/6
f 624/1/6 625/1/6 627/1/6
f 625/2/6 626/2/6 628/2/6
f 627/1/6 625/1/6 628/1/6
f 626/1/6 622/1/6 629/1/6
f 628/2/6 626/2/6 629/2/6
f 629/1/6 622/1/6 630/1/6
f 631/1/6 632/1/6 633/1/6
f 633/1/6 632/1/6 634/1/6
f 631/1/6 633/1/6 635/1/6
f 631/1/6 635/1/6 636/1/6
f 631/1/6 636/1/6 637/1/6
f 634/1/6 632/1/6 638/1/6
f 637/1/6 638/1/6 639/1/6
f 639/1/6 638/1/6 640/1/6
f 638/1/6 632/1/6 641/1/6
f 640/1/6 638/1/6 641/1/6
f 641/1/6 632/1/6 642/1/6
f 631/1/6 637/1/6 643/1/6
f 637/1/6 639/1/6 643/1/6
f 639/2/6 640/2/6 644/2/6
f 643/1/6 639/1/6 644/1/6
f 640/1/6 641/1/6 645/1/6
f 644/2/6 640/2/6 645/2/6
f 641/2/6 642/2/6 646/2/6
f 645/1/6 641/1/6 646/1/6
f 642/1/6 632/1/6 647/1/6
f 646/2/6 642/2/6 647/2/6
f 647/1/6 632/1/6 648/1/6
f 649/1/6 650/1/6 651/1/6
f 651/1/6 650/1/6 652/1/6
f 652/1/6 650/1/6 653/1/6
f 649/1/6 651/1/6 654/1/6
f 654/1/6 651/1/6 655/1/6
f 654/2/6 655/2/6 656/2/6
f 655/1/6 651/1/6 657/1/6
f 656/2/6 655/2/6 657/2/6
f 657/1/6 651/1/6 658/1/6
f 653/1/6 650/1/6 660/1/6
f 658/1/6 659/1/6 661/1/6
f 659/1/6 660/1/6 661/1/6
f 656/1/6 657/1/6 661/1/6
f 657/1/6 658/1/6 661/1/6
f 660/1/6 650/1/6 662/1/6
f 661/1/6 660/1/6 662/1/6
f 663/1/6 664/1/6 665/1/6
f 665/1/6 664/1/6 666/1/6
