# MagicaVoxel @ Ephtracy

# material
mtllib tapak1 ijo polos.mtl
usemtl palette

# normals
vn -1 0 0
vn 1 0 0
vn 0 0 1
vn 0 0 -1
vn 0 -1 0
vn 0 1 0

# texcoords
vt 0.943359 0.5
vt 0.970703 0.5
vt 0.974609 0.5

# verts
v -37 0 -24
v -37 0 -47
v -37 6 -24
v -37 6 -36
v -37 6 -38
v -37 6 -42
v -37 6 -44
v -37 6 -47
v -37 7 -24
v -37 7 -25
v -37 7 -27
v -37 7 -28
v -37 7 -30
v -37 7 -32
v -37 7 -44
v -37 7 -47
v -37 9 -24
v -37 9 -25
v -37 9 -32
v -37 9 -34
v -37 9 -38
v -37 9 -39
v -37 10 -25
v -37 10 -27
v -37 10 -36
v -37 10 -39
v -37 10 -44
v -37 10 -47
v -37 11 -25
v -37 11 -28
v -37 11 -32
v -37 11 -34
v -37 12 -45
v -37 12 -47
v -37 13 -30
v -37 13 -32
v -37 13 -35
v -37 13 -39
v -37 13 -42
v -37 13 -44
v -37 15 -26
v -37 15 -29
v -37 17 -24
v -37 17 -25
v -37 17 -26
v -37 17 -29
v -37 17 -37
v -37 17 -39
v -37 18 -24
v -37 18 -25
v -37 18 -45
v -37 18 -47
v -37 19 -35
v -37 19 -37
v -37 24 -24
v -37 24 -47
v -37 27 -24
v -37 27 -47
v -13 0 -24
v -13 0 -47
v -13 1 -36
v -13 1 -38
v -13 2 -44
v -13 2 -46
v -13 3 -27
v -13 3 -31
v -13 4 -27
v -13 4 -31
v -13 4 -36
v -13 4 -38
v -13 5 -44
v -13 5 -46
v -13 6 -24
v -13 6 -25
v -13 6 -27
v -13 6 -34
v -13 6 -37
v -13 6 -44
v -13 9 -30
v -13 9 -33
v -13 9 -34
v -13 9 -37
v -13 9 -39
v -13 9 -42
v -13 9 -44
v -13 9 -47
v -13 10 -25
v -13 10 -27
v -13 11 -30
v -13 11 -33
v -13 11 -39
v -13 11 -42
v -13 13 -25
v -13 13 -31
v -13 13 -42
v -13 13 -44
v -13 14 -25
v -13 14 -31
v -13 14 -36
v -13 14 -38
v -13 15 -42
v -13 15 -44
v -13 16 -37
v -13 16 -38
v -13 17 -37
v -13 17 -38
v -13 19 -36
v -13 19 -38
v -13 24 -24
v -13 24 -47
v -13 27 -24
v -13 27 -47
v -37 0 -24
v -37 6 -24
v -37 7 -24
v -37 9 -24
v -37 17 -24
v -37 18 -24
v -37 24 -24
v -37 27 -24
v -36 13 -24
v -36 14 -24
v -35 7 -24
v -35 9 -24
v -35 17 -24
v -35 18 -24
v -33 8 -24
v -33 11 -24
v -32 13 -24
v -32 14 -24
v -31 3 -24
v -31 4 -24
v -30 8 -24
v -30 11 -24
v -30 17 -24
v -30 21 -24
v -29 3 -24
v -29 4 -24
v -29 14 -24
v -29 16 -24
v -29 17 -24
v -29 21 -24
v -28 14 -24
v -28 16 -24
v -27 2 -24
v -27 3 -24
v -27 6 -24
v -27 10 -24
v -27 12 -24
v -27 16 -24
v -26 10 -24
v -26 11 -24
v -25 10 -24
v -25 11 -24
v -25 12 -24
v -25 16 -24
v -24 2 -24
v -24 3 -24
v -23 6 -24
v -23 10 -24
v -23 13 -24
v -23 16 -24
v -20 9 -24
v -20 11 -24
v -20 13 -24
v -20 16 -24
v -18 6 -24
v -18 9 -24
v -18 11 -24
v -18 14 -24
v -17 17 -24
v -17 18 -24
v -15 6 -24
v -15 14 -24
v -14 17 -24
v -14 18 -24
v -13 0 -24
v -13 6 -24
v -13 24 -24
v -13 27 -24
v -37 0 -47
v -37 6 -47
v -37 7 -47
v -37 10 -47
v -37 12 -47
v -37 18 -47
v -37 24 -47
v -37 27 -47
v -36 6 -47
v -36 7 -47
v -36 12 -47
v -36 18 -47
v -34 6 -47
v -34 10 -47
v -33 13 -47
v -33 15 -47
v -32 6 -47
v -32 10 -47
v -32 16 -47
v -32 19 -47
v -30 6 -47
v -30 10 -47
v -30 16 -47
v -30 19 -47
v -29 13 -47
v -29 15 -47
v -27 6 -47
v -27 8 -47
v -27 11 -47
v -27 13 -47
v -27 15 -47
v -27 17 -47
v -26 6 -47
v -26 8 -47
v -25 8 -47
v -25 10 -47
v -22 1 -47
v -22 3 -47
v -22 15 -47
v -22 17 -47
v -21 8 -47
v -21 10 -47
v -21 11 -47
v -21 13 -47
v -20 1 -47
v -20 3 -47
v -20 6 -47
v -20 9 -47
v -19 6 -47
v -19 9 -47
v -17 11 -47
v -17 13 -47
v -17 15 -47
v -17 17 -47
v -16 15 -47
v -16 17 -47
v -15 6 -47
v -15 9 -47
v -15 11 -47
v -15 13 -47
v -13 0 -47
v -13 9 -47
v -13 24 -47
v -13 27 -47
v -37 0 -24
v -13 0 -24
v -36 0 -25
v -14 0 -25
v -36 0 -46
v -14 0 -46
v -37 0 -47
v -13 0 -47
v -37 27 -24
v -13 27 -24
v -37 27 -47
v -13 27 -47

# faces
f 3/1/1 2/1/1 1/1/1
f 4/1/1 2/1/1 3/1/1
f 5/1/1 2/1/1 4/1/1
f 6/1/1 2/1/1 5/1/1
f 7/1/1 2/1/1 6/1/1
f 8/1/1 2/1/1 7/1/1
f 9/3/1 4/3/1 3/3/1
f 10/3/1 4/3/1 9/3/1
f 11/3/1 4/3/1 10/3/1
f 12/3/1 4/3/1 11/3/1
f 13/3/1 4/3/1 12/3/1
f 14/3/1 4/3/1 13/3/1
f 15/1/1 7/1/1 6/1/1
f 15/3/1 8/3/1 7/3/1
f 16/3/1 8/3/1 15/3/1
f 17/1/1 10/1/1 9/1/1
f 18/3/1 11/3/1 10/3/1
f 18/1/1 10/1/1 17/1/1
f 19/3/1 4/3/1 14/3/1
f 19/1/1 14/1/1 13/1/1
f 20/3/1 4/3/1 19/3/1
f 21/1/1 5/1/1 4/1/1
f 21/3/1 6/3/1 5/3/1
f 22/3/1 6/3/1 21/3/1
f 23/3/1 11/3/1 18/3/1
f 23/3/1 18/3/1 17/3/1
f 24/1/1 12/1/1 11/1/1
f 24/3/1 11/3/1 23/3/1
f 25/3/1 4/3/1 20/3/1
f 25/1/1 22/1/1 21/1/1
f 25/1/1 21/1/1 4/1/1
f 26/3/1 6/3/1 22/3/1
f 26/1/1 22/1/1 25/1/1
f 27/1/1 15/1/1 6/1/1
f 27/1/1 16/1/1 15/1/1
f 28/1/1 16/1/1 27/1/1
f 29/1/1 24/1/1 23/1/1
f 29/3/1 23/3/1 17/3/1
f 30/1/1 12/1/1 24/1/1
f 30/1/1 24/1/1 29/1/1
f 30/3/1 13/3/1 12/3/1
f 31/1/1 20/1/1 19/1/1
f 31/1/1 19/1/1 13/1/1
f 32/3/1 25/3/1 20/3/1
f 32/1/1 20/1/1 31/1/1
f 32/3/1 26/3/1 25/3/1
f 33/3/1 28/3/1 27/3/1
f 34/3/1 28/3/1 33/3/1
f 35/3/1 13/3/1 30/3/1
f 35/1/1 31/1/1 13/1/1
f 35/3/1 30/3/1 29/3/1
f 36/3/1 32/3/1 31/3/1
f 36/1/1 31/1/1 35/1/1
f 37/3/1 26/3/1 32/3/1
f 37/3/1 32/3/1 36/3/1
f 38/3/1 6/3/1 26/3/1
f 38/3/1 26/3/1 37/3/1
f 39/1/1 27/1/1 6/1/1
f 39/3/1 6/3/1 38/3/1
f 40/3/1 33/3/1 27/3/1
f 40/1/1 27/1/1 39/1/1
f 41/3/1 36/3/1 35/3/1
f 41/3/1 37/3/1 36/3/1
f 41/3/1 35/3/1 29/3/1
f 42/3/1 37/3/1 41/3/1
f 43/3/1 29/3/1 17/3/1
f 43/3/1 41/3/1 29/3/1
f 44/3/1 41/3/1 43/3/1
f 45/1/1 42/1/1 41/1/1
f 45/3/1 41/3/1 44/3/1
f 46/3/1 37/3/1 42/3/1
f 46/1/1 42/1/1 45/1/1
f 47/1/1 38/1/1 37/1/1
f 48/3/1 40/3/1 39/3/1
f 48/1/1 38/1/1 47/1/1
f 48/3/1 39/3/1 38/3/1
f 49/1/1 44/1/1 43/1/1
f 50/3/1 45/3/1 44/3/1
f 50/1/1 44/1/1 49/1/1
f 50/3/1 46/3/1 45/3/1
f 51/1/1 34/1/1 33/1/1
f 51/3/1 33/3/1 40/3/1
f 51/3/1 48/3/1 47/3/1
f 51/3/1 40/3/1 48/3/1
f 52/1/1 34/1/1 51/1/1
f 53/3/1 46/3/1 50/3/1
f 53/3/1 50/3/1 49/3/1
f 53/3/1 37/3/1 46/3/1
f 53/1/1 47/1/1 37/1/1
f 54/3/1 52/3/1 51/3/1
f 54/1/1 47/1/1 53/1/1
f 54/3/1 51/3/1 47/3/1
f 55/3/1 53/3/1 49/3/1
f 55/3/1 54/3/1 53/3/1
f 56/3/1 52/3/1 54/3/1
f 56/3/1 54/3/1 55/3/1
f 57/2/1 56/2/1 55/2/1
f 58/2/1 56/2/1 57/2/1
f 59/1/2 60/1/2 61/1/2
f 61/1/2 60/1/2 62/1/2
f 62/1/2 60/1/2 63/1/2
f 63/1/2 60/1/2 64/1/2
f 59/1/2 61/1/2 65/1/2
f 65/1/2 61/1/2 66/1/2
f 59/1/2 65/1/2 67/1/2
f 65/3/2 66/3/2 67/3/2
f 66/1/2 61/1/2 68/1/2
f 67/3/2 66/3/2 68/3/2
f 61/3/2 62/3/2 69/3/2
f 68/1/2 61/1/2 69/1/2
f 62/1/2 63/1/2 70/1/2
f 69/3/2 62/3/2 70/3/2
f 67/1/2 68/1/2 71/1/2
f 70/1/2 63/1/2 71/1/2
f 69/1/2 70/1/2 71/1/2
f 68/1/2 69/1/2 71/1/2
f 63/3/2 64/3/2 71/3/2
f 64/1/2 60/1/2 72/1/2
f 71/3/2 64/3/2 72/3/2
f 67/1/2 71/1/2 73/1/2
f 59/1/2 67/1/2 73/1/2
f 71/1/2 72/1/2 73/1/2
f 73/1/2 72/1/2 74/1/2
f 74/1/2 72/1/2 75/1/2
f 75/1/2 72/1/2 76/1/2
f 76/1/2 72/1/2 77/1/2
f 77/1/2 72/1/2 78/1/2
f 75/3/2 76/3/2 79/3/2
f 79/3/2 76/3/2 80/3/2
f 76/1/2 77/1/2 81/1/2
f 80/3/2 76/3/2 81/3/2
f 77/3/2 78/3/2 82/3/2
f 81/1/2 77/1/2 82/1/2
f 82/3/2 78/3/2 83/3/2
f 83/3/2 78/3/2 84/3/2
f 78/1/2 72/1/2 85/1/2
f 84/3/2 78/3/2 85/3/2
f 72/1/2 60/1/2 86/1/2
f 85/1/2 72/1/2 86/1/2
f 73/3/2 74/3/2 87/3/2
f 74/1/2 75/1/2 87/1/2
f 75/3/2 79/3/2 88/3/2
f 87/1/2 75/1/2 88/1/2
f 79/1/2 80/1/2 89/1/2
f 88/3/2 79/3/2 89/3/2
f 87/3/2 88/3/2 89/3/2
f 82/3/2 83/3/2 90/3/2
f 89/1/2 80/1/2 90/1/2
f 80/3/2 81/3/2 90/3/2
f 81/3/2 82/3/2 90/3/2
f 83/1/2 84/1/2 91/1/2
f 90/3/2 83/3/2 91/3/2
f 84/3/2 85/3/2 92/3/2
f 91/1/2 84/1/2 92/1/2
f 85/3/2 86/3/2 92/3/2
f 90/3/2 91/3/2 93/3/2
f 73/3/2 87/3/2 93/3/2
f 91/3/2 92/3/2 93/3/2
f 87/3/2 89/3/2 93/3/2
f 89/3/2 90/3/2 93/3/2
f 93/3/2 92/3/2 94/3/2
f 92/3/2 86/3/2 95/3/2
f 94/3/2 92/3/2 95/3/2
f 95/3/2 86/3/2 96/3/2
f 93/1/2 94/1/2 97/1/2
f 73/3/2 93/3/2 97/3/2
f 94/3/2 95/3/2 98/3/2
f 97/1/2 94/1/2 98/1/2
f 98/3/2 95/3/2 99/3/2
f 99/3/2 95/3/2 100/3/2
f 95/1/2 96/1/2 101/1/2
f 100/3/2 95/3/2 101/3/2
f 96/3/2 86/3/2 102/3/2
f 101/1/2 96/1/2 102/1/2
f 99/1/2 100/1/2 103/1/2
f 100/3/2 101/3/2 104/3/2
f 103/1/2 100/1/2 104/1/2
f 101/3/2 102/3/2 104/3/2
f 99/1/2 103/1/2 105/1/2
f 103/3/2 104/3/2 105/3/2
f 104/3/2 102/3/2 106/3/2
f 105/3/2 104/3/2 106/3/2
f 99/1/2 105/1/2 107/1/2
f 97/3/2 98/3/2 107/3/2
f 105/1/2 106/1/2 107/1/2
f 98/3/2 99/3/2 107/3/2
f 106/3/2 102/3/2 108/3/2
f 107/1/2 106/1/2 108/1/2
f 97/3/2 107/3/2 109/3/2
f 73/3/2 97/3/2 109/3/2
f 107/3/2 108/3/2 109/3/2
f 108/3/2 102/3/2 110/3/2
f 109/3/2 108/3/2 110/3/2
f 102/3/2 86/3/2 110/3/2
f 109/2/2 110/2/2 111/2/2
f 111/2/2 110/2/2 112/2/2
f 121/3/3 117/3/3 116/3/3
f 122/3/3 117/3/3 121/3/3
f 123/3/3 115/3/3 114/3/3
f 123/1/3 116/1/3 115/1/3
f 124/3/3 121/3/3 116/3/3
f 124/1/3 116/1/3 123/1/3
f 125/3/3 117/3/3 122/3/3
f 125/1/3 118/1/3 117/1/3
f 126/3/3 119/3/3 118/3/3
f 126/1/3 118/1/3 125/1/3
f 127/3/3 124/3/3 123/3/3
f 128/3/3 121/3/3 124/3/3
f 128/3/3 124/3/3 127/3/3
f 129/1/3 122/1/3 121/1/3
f 129/3/3 121/3/3 128/3/3
f 130/3/3 125/3/3 122/3/3
f 130/1/3 122/1/3 129/1/3
f 130/3/3 126/3/3 125/3/3
f 131/1/3 114/1/3 113/1/3
f 132/1/3 114/1/3 131/1/3
f 133/3/3 127/3/3 123/3/3
f 133/1/3 128/1/3 127/1/3
f 134/3/3 129/3/3 128/3/3
f 134/1/3 128/1/3 133/1/3
f 134/3/3 130/3/3 129/3/3
f 135/3/3 126/3/3 130/3/3
f 135/3/3 130/3/3 134/3/3
f 136/3/3 119/3/3 126/3/3
f 136/3/3 126/3/3 135/3/3
f 137/3/3 132/3/3 131/3/3
f 137/1/3 131/1/3 113/1/3
f 138/1/3 114/1/3 132/1/3
f 138/3/3 132/3/3 137/3/3
f 139/3/3 134/3/3 133/3/3
f 139/3/3 135/3/3 134/3/3
f 140/3/3 135/3/3 139/3/3
f 141/1/3 136/1/3 135/1/3
f 141/3/3 135/3/3 140/3/3
f 142/3/3 119/3/3 136/3/3
f 142/1/3 136/1/3 141/1/3
f 143/1/3 140/1/3 139/1/3
f 143/3/3 139/3/3 133/3/3
f 144/3/3 141/3/3 140/3/3
f 144/1/3 140/1/3 143/1/3
f 144/3/3 142/3/3 141/3/3
f 145/1/3 137/1/3 113/1/3
f 145/1/3 138/1/3 137/1/3
f 146/1/3 138/1/3 145/1/3
f 147/1/3 114/1/3 138/1/3
f 147/1/3 138/1/3 146/1/3
f 147/3/3 143/3/3 133/3/3
f 147/3/3 144/3/3 143/3/3
f 147/3/3 133/3/3 123/3/3
f 147/3/3 123/3/3 114/3/3
f 148/3/3 144/3/3 147/3/3
f 149/3/3 144/3/3 148/3/3
f 150/3/3 142/3/3 144/3/3
f 150/3/3 144/3/3 149/3/3
f 151/3/3 149/3/3 148/3/3
f 151/1/3 147/1/3 146/1/3
f 151/1/3 148/1/3 147/1/3
f 152/3/3 149/3/3 151/3/3
f 153/1/3 151/1/3 146/1/3
f 153/1/3 152/1/3 151/1/3
f 154/3/3 149/3/3 152/3/3
f 154/1/3 152/1/3 153/1/3
f 155/1/3 150/1/3 149/1/3
f 155/3/3 149/3/3 154/3/3
f 156/3/3 142/3/3 150/3/3
f 156/1/3 150/1/3 155/1/3
f 157/3/3 146/3/3 145/3/3
f 157/1/3 145/1/3 113/1/3
f 158/1/3 153/1/3 146/1/3
f 158/3/3 146/3/3 157/3/3
f 159/1/3 158/1/3 157/1/3
f 159/1/3 153/1/3 158/1/3
f 160/3/3 155/3/3 154/3/3
f 160/1/3 153/1/3 159/1/3
f 160/3/3 156/3/3 155/3/3
f 160/3/3 154/3/3 153/3/3
f 161/3/3 156/3/3 160/3/3
f 162/3/3 142/3/3 156/3/3
f 162/3/3 156/3/3 161/3/3
f 163/3/3 161/3/3 160/3/3
f 163/3/3 160/3/3 159/3/3
f 164/3/3 161/3/3 163/3/3
f 165/1/3 162/1/3 161/1/3
f 165/3/3 161/3/3 164/3/3
f 166/3/3 142/3/3 162/3/3
f 166/1/3 162/1/3 165/1/3
f 167/1/3 159/1/3 157/1/3
f 167/3/3 163/3/3 159/3/3
f 168/1/3 164/1/3 163/1/3
f 168/3/3 163/3/3 167/3/3
f 169/3/3 165/3/3 164/3/3
f 169/1/3 164/1/3 168/1/3
f 169/3/3 166/3/3 165/3/3
f 170/3/3 166/3/3 169/3/3
f 171/3/3 142/3/3 166/3/3
f 171/3/3 166/3/3 170/3/3
f 172/3/3 142/3/3 171/3/3
f 173/1/3 168/1/3 167/1/3
f 173/1/3 170/1/3 169/1/3
f 173/1/3 167/1/3 157/1/3
f 173/1/3 169/1/3 168/1/3
f 174/3/3 171/3/3 170/3/3
f 174/1/3 170/1/3 173/1/3
f 175/1/3 172/1/3 171/1/3
f 175/3/3 171/3/3 174/3/3
f 175/3/3 174/3/3 173/3/3
f 176/3/3 142/3/3 172/3/3
f 176/1/3 172/1/3 175/1/3
f 177/1/3 173/1/3 157/1/3
f 177/1/3 157/1/3 113/1/3
f 178/3/3 175/3/3 173/3/3
f 178/1/3 173/1/3 177/1/3
f 178/3/3 176/3/3 175/3/3
f 179/3/3 142/3/3 176/3/3
f 179/3/3 176/3/3 178/3/3
f 179/3/3 119/3/3 142/3/3
f 179/2/3 120/2/3 119/2/3
f 180/2/3 120/2/3 179/2/3
f 181/1/4 182/1/4 189/1/4
f 182/3/4 183/3/4 189/3/4
f 183/1/4 184/1/4 190/1/4
f 189/3/4 183/3/4 190/3/4
f 184/3/4 185/3/4 191/3/4
f 185/1/4 186/1/4 191/1/4
f 186/3/4 187/3/4 192/3/4
f 191/1/4 186/1/4 192/1/4
f 181/1/4 189/1/4 193/1/4
f 189/1/4 190/1/4 193/1/4
f 184/3/4 191/3/4 194/3/4
f 193/1/4 190/1/4 194/1/4
f 190/1/4 184/1/4 194/1/4
f 191/3/4 192/3/4 194/3/4
f 193/3/4 194/3/4 195/3/4
f 194/3/4 192/3/4 195/3/4
f 195/3/4 192/3/4 196/3/4
f 181/1/4 193/1/4 197/1/4
f 193/3/4 195/3/4 197/3/4
f 197/3/4 195/3/4 198/3/4
f 196/3/4 192/3/4 199/3/4
f 192/3/4 187/3/4 200/3/4
f 199/3/4 192/3/4 200/3/4
f 181/1/4 197/1/4 201/1/4
f 197/1/4 198/1/4 201/1/4
f 198/3/4 195/3/4 202/3/4
f 201/1/4 198/1/4 202/1/4
f 196/3/4 199/3/4 203/3/4
f 199/1/4 200/1/4 203/1/4
f 200/3/4 187/3/4 204/3/4
f 203/1/4 200/1/4 204/1/4
f 202/3/4 195/3/4 205/3/4
f 195/1/4 196/1/4 205/1/4
f 201/3/4 202/3/4 205/3/4
f 203/3/4 204/3/4 206/3/4
f 205/1/4 196/1/4 206/1/4
f 196/3/4 203/3/4 206/3/4
f 181/1/4 201/1/4 207/1/4
f 201/3/4 205/3/4 207/3/4
f 205/3/4 206/3/4 207/3/4
f 207/3/4 206/3/4 208/3/4
f 208/3/4 206/3/4 209/3/4
f 209/3/4 206/3/4 210/3/4
f 206/3/4 204/3/4 211/3/4
f 210/3/4 206/3/4 211/3/4
f 211/3/4 204/3/4 212/3/4
f 181/1/4 207/1/4 213/1/4
f 207/1/4 208/1/4 213/1/4
f 208/3/4 209/3/4 214/3/4
f 213/1/4 208/1/4 214/1/4
f 213/3/4 214/3/4 215/3/4
f 214/3/4 209/3/4 215/3/4
f 215/3/4 209/3/4 216/3/4
f 181/1/4 213/1/4 217/1/4
f 217/1/4 213/1/4 218/1/4
f 211/1/4 212/1/4 219/1/4
f 210/3/4 211/3/4 219/3/4
f 212/3/4 204/3/4 220/3/4
f 219/1/4 212/1/4 220/1/4
f 213/3/4 215/3/4 221/3/4
f 215/1/4 216/1/4 221/1/4
f 216/3/4 209/3/4 222/3/4
f 221/1/4 216/1/4 222/1/4
f 209/1/4 210/1/4 223/1/4
f 222/3/4 209/3/4 223/3/4
f 210/3/4 219/3/4 224/3/4
f 223/1/4 210/1/4 224/1/4
f 219/3/4 220/3/4 224/3/4
f 217/3/4 218/3/4 225/3/4
f 181/1/4 217/1/4 225/1/4
f 218/1/4 213/1/4 226/1/4
f 225/3/4 218/3/4 226/3/4
f 221/3/4 222/3/4 227/3/4
f 226/1/4 213/1/4 227/1/4
f 222/3/4 223/3/4 227/3/4
f 223/3/4 224/3/4 227/3/4
f 213/3/4 221/3/4 227/3/4
f 227/3/4 224/3/4 228/3/4
f 225/1/4 226/1/4 229/1/4
f 226/1/4 227/1/4 229/1/4
f 227/1/4 228/1/4 229/1/4
f 228/3/4 224/3/4 230/3/4
f 229/1/4 228/1/4 230/1/4
f 229/3/4 230/3/4 231/3/4
f 230/3/4 224/3/4 231/3/4
f 224/3/4 220/3/4 232/3/4
f 231/3/4 224/3/4 232/3/4
f 232/3/4 220/3/4 233/3/4
f 220/3/4 204/3/4 234/3/4
f 233/3/4 220/3/4 234/3/4
f 232/3/4 233/3/4 235/3/4
f 233/1/4 234/1/4 235/1/4
f 234/3/4 204/3/4 236/3/4
f 235/1/4 234/1/4 236/1/4
f 225/1/4 229/1/4 237/1/4
f 229/3/4 231/3/4 237/3/4
f 237/3/4 231/3/4 238/3/4
f 231/1/4 232/1/4 239/1/4
f 238/3/4 231/3/4 239/3/4
f 232/3/4 235/3/4 240/3/4
f 239/1/4 232/1/4 240/1/4
f 235/3/4 236/3/4 240/3/4
f 181/1/4 225/1/4 241/1/4
f 225/1/4 237/1/4 241/1/4
f 237/1/4 238/1/4 241/1/4
f 238/3/4 239/3/4 242/3/4
f 241/1/4 238/1/4 242/1/4
f 239/3/4 240/3/4 242/3/4
f 187/2/4 188/2/4 243/2/4
f 242/3/4 240/3/4 243/3/4
f 236/3/4 204/3/4 243/3/4
f 240/3/4 236/3/4 243/3/4
f 204/3/4 187/3/4 243/3/4
f 243/2/4 188/2/4 244/2/4
f 247/1/5 246/1/5 245/1/5
f 248/1/5 246/1/5 247/1/5
f 249/1/5 247/1/5 245/1/5
f 249/3/5 248/3/5 247/3/5
f 250/1/5 246/1/5 248/1/5
f 250/3/5 248/3/5 249/3/5
f 251/1/5 249/1/5 245/1/5
f 251/1/5 250/1/5 249/1/5
f 252/1/5 246/1/5 250/1/5
f 252/1/5 250/1/5 251/1/5
f 253/2/6 254/2/6 255/2/6
f 255/2/6 254/2/6 256/2/6
