# MagicaVoxel @ Ephtracy

# material
mtllib tapak4 jalan.mtl
usemtl palette

# normals
vn -1 0 0
vn 1 0 0
vn 0 0 1
vn 0 0 -1
vn 0 -1 0
vn 0 1 0

# texcoords
vt 0.908203 0.5
vt 0.939453 0.5
vt 0.943359 0.5
vt 0.974609 0.5

# verts
v -36 0 15
v -36 0 -8
v -36 6 15
v -36 6 3
v -36 6 1
v -36 6 -3
v -36 6 -5
v -36 6 -8
v -36 7 15
v -36 7 14
v -36 7 12
v -36 7 11
v -36 7 9
v -36 7 7
v -36 7 -5
v -36 7 -8
v -36 9 15
v -36 9 14
v -36 9 7
v -36 9 5
v -36 9 1
v -36 9 -0
v -36 10 14
v -36 10 12
v -36 10 3
v -36 10 -0
v -36 10 -5
v -36 10 -8
v -36 11 14
v -36 11 11
v -36 11 7
v -36 11 5
v -36 12 -6
v -36 12 -8
v -36 13 9
v -36 13 7
v -36 13 4
v -36 13 -0
v -36 13 -3
v -36 13 -5
v -36 15 13
v -36 15 10
v -36 17 15
v -36 17 14
v -36 17 13
v -36 17 10
v -36 17 2
v -36 17 -0
v -36 18 15
v -36 18 14
v -36 18 -6
v -36 18 -8
v -36 19 4
v -36 19 2
v -36 23 15
v -36 23 -8
v -36 27 15
v -36 27 -8
v -35 27 13
v -35 27 10
v -35 27 -4
v -35 27 -6
v -35 28 13
v -35 28 10
v -35 28 -4
v -35 28 -6
v -34 27 4
v -34 27 -1
v -34 28 4
v -34 28 -1
v -32 27 10
v -32 27 7
v -32 28 10
v -32 28 7
v -29 27 -3
v -29 27 -6
v -29 28 -3
v -29 28 -6
v -26 27 13
v -26 27 8
v -26 27 5
v -26 27 -1
v -26 28 13
v -26 28 8
v -26 28 5
v -26 28 -1
v -22 27 14
v -22 27 12
v -22 27 10
v -22 27 7
v -22 28 14
v -22 28 12
v -22 28 10
v -22 28 7
v -21 27 4
v -21 27 -2
v -21 27 -4
v -21 27 -6
v -21 28 4
v -21 28 -2
v -21 28 -4
v -21 28 -6
v -15 27 12
v -15 27 7
v -15 27 4
v -15 27 -1
v -15 28 12
v -15 28 7
v -15 28 4
v -15 28 -1
v -33 27 13
v -33 27 10
v -33 27 -4
v -33 27 -6
v -33 28 13
v -33 28 10
v -33 28 -4
v -33 28 -6
v -29 27 4
v -29 27 -1
v -29 28 4
v -29 28 -1
v -28 27 10
v -28 27 7
v -28 28 10
v -28 28 7
v -24 27 13
v -24 27 8
v -24 28 13
v -24 28 8
v -23 27 5
v -23 27 -1
v -23 27 -3
v -23 27 -6
v -23 28 5
v -23 28 -1
v -23 28 -3
v -23 28 -6
v -19 27 14
v -19 27 12
v -19 28 14
v -19 28 12
v -17 27 10
v -17 27 7
v -17 27 4
v -17 27 -2
v -17 28 10
v -17 28 7
v -17 28 4
v -17 28 -2
v -14 27 4
v -14 27 -1
v -14 27 -4
v -14 27 -6
v -14 28 4
v -14 28 -1
v -14 28 -4
v -14 28 -6
v -13 27 12
v -13 27 7
v -13 28 12
v -13 28 7
v -12 0 15
v -12 0 -8
v -12 1 3
v -12 1 1
v -12 2 -5
v -12 2 -7
v -12 3 12
v -12 3 8
v -12 4 12
v -12 4 8
v -12 4 3
v -12 4 1
v -12 5 -5
v -12 5 -7
v -12 6 15
v -12 6 14
v -12 6 12
v -12 6 5
v -12 6 2
v -12 6 -5
v -12 9 9
v -12 9 6
v -12 9 5
v -12 9 2
v -12 9 -0
v -12 9 -3
v -12 9 -5
v -12 9 -8
v -12 10 14
v -12 10 12
v -12 11 9
v -12 11 6
v -12 11 -0
v -12 11 -3
v -12 13 14
v -12 13 8
v -12 13 -3
v -12 13 -5
v -12 14 14
v -12 14 8
v -12 14 3
v -12 14 1
v -12 15 -3
v -12 15 -5
v -12 16 3
v -12 16 2
v -12 17 3
v -12 17 2
v -12 19 3
v -12 19 1
v -12 23 15
v -12 23 -8
v -12 27 15
v -12 27 -8
v -36 0 15
v -36 6 15
v -36 7 15
v -36 9 15
v -36 17 15
v -36 18 15
v -36 23 15
v -36 27 15
v -35 13 15
v -35 14 15
v -34 7 15
v -34 9 15
v -34 17 15
v -34 18 15
v -32 8 15
v -32 11 15
v -31 13 15
v -31 14 15
v -30 3 15
v -30 4 15
v -29 8 15
v -29 11 15
v -29 17 15
v -29 21 15
v -28 3 15
v -28 4 15
v -28 14 15
v -28 16 15
v -28 17 15
v -28 21 15
v -27 14 15
v -27 16 15
v -26 2 15
v -26 3 15
v -26 6 15
v -26 10 15
v -26 12 15
v -26 16 15
v -25 10 15
v -25 11 15
v -24 10 15
v -24 11 15
v -24 12 15
v -24 16 15
v -23 2 15
v -23 3 15
v -22 6 15
v -22 10 15
v -22 13 15
v -22 16 15
v -19 9 15
v -19 11 15
v -19 13 15
v -19 16 15
v -17 6 15
v -17 9 15
v -17 11 15
v -17 14 15
v -16 17 15
v -16 18 15
v -14 6 15
v -14 14 15
v -13 17 15
v -13 18 15
v -12 0 15
v -12 6 15
v -12 23 15
v -12 27 15
v -22 27 14
v -22 28 14
v -19 27 14
v -19 28 14
v -35 27 13
v -35 28 13
v -33 27 13
v -33 28 13
v -26 27 13
v -26 28 13
v -24 27 13
v -24 28 13
v -15 27 12
v -15 28 12
v -13 27 12
v -13 28 12
v -32 27 10
v -32 28 10
v -28 27 10
v -28 28 10
v -22 27 10
v -22 28 10
v -17 27 10
v -17 28 10
v -26 27 5
v -26 28 5
v -23 27 5
v -23 28 5
v -34 27 4
v -34 28 4
v -29 27 4
v -29 28 4
v -21 27 4
v -21 28 4
v -17 27 4
v -17 28 4
v -15 27 4
v -15 28 4
v -14 27 4
v -14 28 4
v -29 27 -3
v -29 28 -3
v -23 27 -3
v -23 28 -3
v -35 27 -4
v -35 28 -4
v -33 27 -4
v -33 28 -4
v -21 27 -4
v -21 28 -4
v -14 27 -4
v -14 28 -4
v -22 27 12
v -22 28 12
v -19 27 12
v -19 28 12
v -35 27 10
v -35 28 10
v -33 27 10
v -33 28 10
v -26 27 8
v -26 28 8
v -24 27 8
v -24 28 8
v -32 27 7
v -32 28 7
v -28 27 7
v -28 28 7
v -22 27 7
v -22 28 7
v -17 27 7
v -17 28 7
v -15 27 7
v -15 28 7
v -13 27 7
v -13 28 7
v -34 27 -1
v -34 28 -1
v -29 27 -1
v -29 28 -1
v -26 27 -1
v -26 28 -1
v -23 27 -1
v -23 28 -1
v -15 27 -1
v -15 28 -1
v -14 27 -1
v -14 28 -1
v -21 27 -2
v -21 28 -2
v -17 27 -2
v -17 28 -2
v -35 27 -6
v -35 28 -6
v -33 27 -6
v -33 28 -6
v -29 27 -6
v -29 28 -6
v -23 27 -6
v -23 28 -6
v -21 27 -6
v -21 28 -6
v -14 27 -6
v -14 28 -6
v -36 0 -8
v -36 6 -8
v -36 7 -8
v -36 10 -8
v -36 12 -8
v -36 18 -8
v -36 23 -8
v -36 27 -8
v -35 6 -8
v -35 7 -8
v -35 12 -8
v -35 18 -8
v -33 6 -8
v -33 10 -8
v -32 13 -8
v -32 15 -8
v -31 6 -8
v -31 10 -8
v -31 16 -8
v -31 19 -8
v -29 6 -8
v -29 10 -8
v -29 16 -8
v -29 19 -8
v -28 13 -8
v -28 15 -8
v -26 6 -8
v -26 8 -8
v -26 11 -8
v -26 13 -8
v -26 15 -8
v -26 17 -8
v -25 6 -8
v -25 8 -8
v -24 8 -8
v -24 10 -8
v -21 1 -8
v -21 3 -8
v -21 15 -8
v -21 17 -8
v -20 8 -8
v -20 10 -8
v -20 11 -8
v -20 13 -8
v -19 1 -8
v -19 3 -8
v -19 6 -8
v -19 9 -8
v -18 6 -8
v -18 9 -8
v -16 11 -8
v -16 13 -8
v -16 15 -8
v -16 17 -8
v -15 15 -8
v -15 17 -8
v -14 6 -8
v -14 9 -8
v -14 11 -8
v -14 13 -8
v -12 0 -8
v -12 9 -8
v -12 23 -8
v -12 27 -8
v -36 0 15
v -12 0 15
v -35 0 14
v -13 0 14
v -35 0 -7
v -13 0 -7
v -36 0 -8
v -12 0 -8
v -36 27 15
v -12 27 15
v -22 27 14
v -19 27 14
v -35 27 13
v -33 27 13
v -26 27 13
v -24 27 13
v -22 27 12
v -19 27 12
v -15 27 12
v -13 27 12
v -35 27 10
v -33 27 10
v -32 27 10
v -28 27 10
v -22 27 10
v -17 27 10
v -26 27 8
v -24 27 8
v -32 27 7
v -28 27 7
v -22 27 7
v -17 27 7
v -15 27 7
v -13 27 7
v -26 27 5
v -23 27 5
v -34 27 4
v -29 27 4
v -21 27 4
v -17 27 4
v -15 27 4
v -14 27 4
v -34 27 -1
v -29 27 -1
v -26 27 -1
v -23 27 -1
v -15 27 -1
v -14 27 -1
v -21 27 -2
v -17 27 -2
v -29 27 -3
v -23 27 -3
v -35 27 -4
v -33 27 -4
v -21 27 -4
v -14 27 -4
v -35 27 -6
v -33 27 -6
v -29 27 -6
v -23 27 -6
v -21 27 -6
v -14 27 -6
v -36 27 -8
v -12 27 -8
v -22 28 14
v -19 28 14
v -35 28 13
v -33 28 13
v -26 28 13
v -24 28 13
v -22 28 12
v -19 28 12
v -15 28 12
v -13 28 12
v -35 28 10
v -33 28 10
v -32 28 10
v -28 28 10
v -22 28 10
v -17 28 10
v -26 28 8
v -24 28 8
v -32 28 7
v -28 28 7
v -22 28 7
v -17 28 7
v -15 28 7
v -13 28 7
v -26 28 5
v -23 28 5
v -34 28 4
v -29 28 4
v -21 28 4
v -17 28 4
v -15 28 4
v -14 28 4
v -34 28 -1
v -29 28 -1
v -26 28 -1
v -23 28 -1
v -15 28 -1
v -14 28 -1
v -21 28 -2
v -17 28 -2
v -29 28 -3
v -23 28 -3
v -35 28 -4
v -33 28 -4
v -21 28 -4
v -14 28 -4
v -35 28 -6
v -33 28 -6
v -29 28 -6
v -23 28 -6
v -21 28 -6
v -14 28 -6

# faces
f 3/3/1 2/3/1 1/3/1
f 4/3/1 2/3/1 3/3/1
f 5/3/1 2/3/1 4/3/1
f 6/3/1 2/3/1 5/3/1
f 7/3/1 2/3/1 6/3/1
f 8/3/1 2/3/1 7/3/1
f 9/4/1 4/4/1 3/4/1
f 10/4/1 4/4/1 9/4/1
f 11/4/1 4/4/1 10/4/1
f 12/4/1 4/4/1 11/4/1
f 13/4/1 4/4/1 12/4/1
f 14/4/1 4/4/1 13/4/1
f 15/3/1 7/3/1 6/3/1
f 15/4/1 8/4/1 7/4/1
f 16/4/1 8/4/1 15/4/1
f 17/3/1 10/3/1 9/3/1
f 18/4/1 11/4/1 10/4/1
f 18/3/1 10/3/1 17/3/1
f 19/4/1 4/4/1 14/4/1
f 19/3/1 14/3/1 13/3/1
f 20/4/1 4/4/1 19/4/1
f 21/3/1 5/3/1 4/3/1
f 21/4/1 6/4/1 5/4/1
f 22/4/1 6/4/1 21/4/1
f 23/4/1 11/4/1 18/4/1
f 23/4/1 18/4/1 17/4/1
f 24/3/1 12/3/1 11/3/1
f 24/4/1 11/4/1 23/4/1
f 25/4/1 4/4/1 20/4/1
f 25/3/1 22/3/1 21/3/1
f 25/3/1 21/3/1 4/3/1
f 26/4/1 6/4/1 22/4/1
f 26/3/1 22/3/1 25/3/1
f 27/3/1 15/3/1 6/3/1
f 27/3/1 16/3/1 15/3/1
f 28/3/1 16/3/1 27/3/1
f 29/3/1 24/3/1 23/3/1
f 29/4/1 23/4/1 17/4/1
f 30/3/1 12/3/1 24/3/1
f 30/3/1 24/3/1 29/3/1
f 30/4/1 13/4/1 12/4/1
f 31/3/1 20/3/1 19/3/1
f 31/3/1 19/3/1 13/3/1
f 32/4/1 25/4/1 20/4/1
f 32/3/1 20/3/1 31/3/1
f 32/4/1 26/4/1 25/4/1
f 33/4/1 28/4/1 27/4/1
f 34/4/1 28/4/1 33/4/1
f 35/4/1 13/4/1 30/4/1
f 35/3/1 31/3/1 13/3/1
f 35/4/1 30/4/1 29/4/1
f 36/4/1 32/4/1 31/4/1
f 36/3/1 31/3/1 35/3/1
f 37/4/1 26/4/1 32/4/1
f 37/4/1 32/4/1 36/4/1
f 38/4/1 6/4/1 26/4/1
f 38/4/1 26/4/1 37/4/1
f 39/3/1 27/3/1 6/3/1
f 39/4/1 6/4/1 38/4/1
f 40/4/1 33/4/1 27/4/1
f 40/3/1 27/3/1 39/3/1
f 41/4/1 36/4/1 35/4/1
f 41/4/1 37/4/1 36/4/1
f 41/4/1 35/4/1 29/4/1
f 42/4/1 37/4/1 41/4/1
f 43/4/1 29/4/1 17/4/1
f 43/4/1 41/4/1 29/4/1
f 44/4/1 41/4/1 43/4/1
f 45/3/1 42/3/1 41/3/1
f 45/4/1 41/4/1 44/4/1
f 46/4/1 37/4/1 42/4/1
f 46/3/1 42/3/1 45/3/1
f 47/3/1 38/3/1 37/3/1
f 48/4/1 40/4/1 39/4/1
f 48/3/1 38/3/1 47/3/1
f 48/4/1 39/4/1 38/4/1
f 49/3/1 44/3/1 43/3/1
f 50/4/1 45/4/1 44/4/1
f 50/3/1 44/3/1 49/3/1
f 50/4/1 46/4/1 45/4/1
f 51/3/1 34/3/1 33/3/1
f 51/4/1 33/4/1 40/4/1
f 51/4/1 48/4/1 47/4/1
f 51/4/1 40/4/1 48/4/1
f 52/3/1 34/3/1 51/3/1
f 53/4/1 46/4/1 50/4/1
f 53/4/1 50/4/1 49/4/1
f 53/4/1 37/4/1 46/4/1
f 53/3/1 47/3/1 37/3/1
f 54/4/1 52/4/1 51/4/1
f 54/3/1 47/3/1 53/3/1
f 54/4/1 51/4/1 47/4/1
f 55/4/1 53/4/1 49/4/1
f 55/4/1 54/4/1 53/4/1
f 56/4/1 52/4/1 54/4/1
f 56/4/1 54/4/1 55/4/1
f 57/1/1 56/1/1 55/1/1
f 58/1/1 56/1/1 57/1/1
f 63/2/1 60/2/1 59/2/1
f 64/2/1 60/2/1 63/2/1
f 65/2/1 62/2/1 61/2/1
f 66/2/1 62/2/1 65/2/1
f 69/2/1 68/2/1 67/2/1
f 70/2/1 68/2/1 69/2/1
f 73/2/1 72/2/1 71/2/1
f 74/2/1 72/2/1 73/2/1
f 77/2/1 76/2/1 75/2/1
f 78/2/1 76/2/1 77/2/1
f 83/2/1 80/2/1 79/2/1
f 84/2/1 80/2/1 83/2/1
f 85/2/1 82/2/1 81/2/1
f 86/2/1 82/2/1 85/2/1
f 91/2/1 88/2/1 87/2/1
f 92/2/1 88/2/1 91/2/1
f 93/2/1 90/2/1 89/2/1
f 94/2/1 90/2/1 93/2/1
f 99/2/1 96/2/1 95/2/1
f 100/2/1 96/2/1 99/2/1
f 101/2/1 98/2/1 97/2/1
f 102/2/1 98/2/1 101/2/1
f 107/2/1 104/2/1 103/2/1
f 108/2/1 104/2/1 107/2/1
f 109/2/1 106/2/1 105/2/1
f 110/2/1 106/2/1 109/2/1
f 111/2/2 112/2/2 115/2/2
f 115/2/2 112/2/2 116/2/2
f 113/2/2 114/2/2 117/2/2
f 117/2/2 114/2/2 118/2/2
f 119/2/2 120/2/2 121/2/2
f 121/2/2 120/2/2 122/2/2
f 123/2/2 124/2/2 125/2/2
f 125/2/2 124/2/2 126/2/2
f 127/2/2 128/2/2 129/2/2
f 129/2/2 128/2/2 130/2/2
f 131/2/2 132/2/2 135/2/2
f 135/2/2 132/2/2 136/2/2
f 133/2/2 134/2/2 137/2/2
f 137/2/2 134/2/2 138/2/2
f 139/2/2 140/2/2 141/2/2
f 141/2/2 140/2/2 142/2/2
f 143/2/2 144/2/2 147/2/2
f 147/2/2 144/2/2 148/2/2
f 145/2/2 146/2/2 149/2/2
f 149/2/2 146/2/2 150/2/2
f 151/2/2 152/2/2 155/2/2
f 155/2/2 152/2/2 156/2/2
f 153/2/2 154/2/2 157/2/2
f 157/2/2 154/2/2 158/2/2
f 159/2/2 160/2/2 161/2/2
f 161/2/2 160/2/2 162/2/2
f 163/3/2 164/3/2 165/3/2
f 165/3/2 164/3/2 166/3/2
f 166/3/2 164/3/2 167/3/2
f 167/3/2 164/3/2 168/3/2
f 163/3/2 165/3/2 169/3/2
f 169/3/2 165/3/2 170/3/2
f 163/3/2 169/3/2 171/3/2
f 169/4/2 170/4/2 171/4/2
f 170/3/2 165/3/2 172/3/2
f 171/4/2 170/4/2 172/4/2
f 165/4/2 166/4/2 173/4/2
f 172/3/2 165/3/2 173/3/2
f 166/3/2 167/3/2 174/3/2
f 173/4/2 166/4/2 174/4/2
f 171/3/2 172/3/2 175/3/2
f 174/3/2 167/3/2 175/3/2
f 173/3/2 174/3/2 175/3/2
f 172/3/2 173/3/2 175/3/2
f 167/4/2 168/4/2 175/4/2
f 168/3/2 164/3/2 176/3/2
f 175/4/2 168/4/2 176/4/2
f 171/3/2 175/3/2 177/3/2
f 163/3/2 171/3/2 177/3/2
f 175/3/2 176/3/2 177/3/2
f 177/3/2 176/3/2 178/3/2
f 178/3/2 176/3/2 179/3/2
f 179/3/2 176/3/2 180/3/2
f 180/3/2 176/3/2 181/3/2
f 181/3/2 176/3/2 182/3/2
f 179/4/2 180/4/2 183/4/2
f 183/4/2 180/4/2 184/4/2
f 180/3/2 181/3/2 185/3/2
f 184/4/2 180/4/2 185/4/2
f 181/4/2 182/4/2 186/4/2
f 185/3/2 181/3/2 186/3/2
f 186/4/2 182/4/2 187/4/2
f 187/4/2 182/4/2 188/4/2
f 182/3/2 176/3/2 189/3/2
f 188/4/2 182/4/2 189/4/2
f 176/3/2 164/3/2 190/3/2
f 189/3/2 176/3/2 190/3/2
f 177/4/2 178/4/2 191/4/2
f 178/3/2 179/3/2 191/3/2
f 179/4/2 183/4/2 192/4/2
f 191/3/2 179/3/2 192/3/2
f 183/3/2 184/3/2 193/3/2
f 192/4/2 183/4/2 193/4/2
f 191/4/2 192/4/2 193/4/2
f 186/4/2 187/4/2 194/4/2
f 193/3/2 184/3/2 194/3/2
f 184/4/2 185/4/2 194/4/2
f 185/4/2 186/4/2 194/4/2
f 187/3/2 188/3/2 195/3/2
f 194/4/2 187/4/2 195/4/2
f 188/4/2 189/4/2 196/4/2
f 195/3/2 188/3/2 196/3/2
f 189/4/2 190/4/2 196/4/2
f 194/4/2 195/4/2 197/4/2
f 177/4/2 191/4/2 197/4/2
f 195/4/2 196/4/2 197/4/2
f 191/4/2 193/4/2 197/4/2
f 193/4/2 194/4/2 197/4/2
f 197/4/2 196/4/2 198/4/2
f 196/4/2 190/4/2 199/4/2
f 198/4/2 196/4/2 199/4/2
f 199/4/2 190/4/2 200/4/2
f 197/3/2 198/3/2 201/3/2
f 177/4/2 197/4/2 201/4/2
f 198/4/2 199/4/2 202/4/2
f 201/3/2 198/3/2 202/3/2
f 202/4/2 199/4/2 203/4/2
f 203/4/2 199/4/2 204/4/2
f 199/3/2 200/3/2 205/3/2
f 204/4/2 199/4/2 205/4/2
f 200/4/2 190/4/2 206/4/2
f 205/3/2 200/3/2 206/3/2
f 203/3/2 204/3/2 207/3/2
f 201/4/2 202/4/2 207/4/2
f 202/4/2 203/4/2 207/4/2
f 207/3/2 204/3/2 208/3/2
f 201/4/2 207/4/2 209/4/2
f 207/4/2 208/4/2 209/4/2
f 208/3/2 204/3/2 210/3/2
f 209/4/2 208/4/2 210/4/2
f 201/4/2 209/4/2 211/4/2
f 209/3/2 210/3/2 211/3/2
f 204/4/2 205/4/2 212/4/2
f 211/3/2 210/3/2 212/3/2
f 205/4/2 206/4/2 212/4/2
f 210/3/2 204/3/2 212/3/2
f 201/4/2 211/4/2 213/4/2
f 177/4/2 201/4/2 213/4/2
f 211/4/2 212/4/2 213/4/2
f 212/4/2 206/4/2 214/4/2
f 213/4/2 212/4/2 214/4/2
f 206/4/2 190/4/2 214/4/2
f 213/1/2 214/1/2 215/1/2
f 215/1/2 214/1/2 216/1/2
f 225/4/3 221/4/3 220/4/3
f 226/4/3 221/4/3 225/4/3
f 227/4/3 219/4/3 218/4/3
f 227/3/3 220/3/3 219/3/3
f 228/4/3 225/4/3 220/4/3
f 228/3/3 220/3/3 227/3/3
f 229/4/3 221/4/3 226/4/3
f 229/3/3 222/3/3 221/3/3
f 230/4/3 223/4/3 222/4/3
f 230/3/3 222/3/3 229/3/3
f 231/4/3 228/4/3 227/4/3
f 232/4/3 225/4/3 228/4/3
f 232/4/3 228/4/3 231/4/3
f 233/3/3 226/3/3 225/3/3
f 233/4/3 225/4/3 232/4/3
f 234/4/3 229/4/3 226/4/3
f 234/3/3 226/3/3 233/3/3
f 234/4/3 230/4/3 229/4/3
f 235/3/3 218/3/3 217/3/3
f 236/3/3 218/3/3 235/3/3
f 237/4/3 231/4/3 227/4/3
f 237/3/3 232/3/3 231/3/3
f 238/4/3 233/4/3 232/4/3
f 238/3/3 232/3/3 237/3/3
f 238/4/3 234/4/3 233/4/3
f 239/4/3 230/4/3 234/4/3
f 239/4/3 234/4/3 238/4/3
f 240/4/3 223/4/3 230/4/3
f 240/4/3 230/4/3 239/4/3
f 241/4/3 236/4/3 235/4/3
f 241/3/3 235/3/3 217/3/3
f 242/3/3 218/3/3 236/3/3
f 242/4/3 236/4/3 241/4/3
f 243/4/3 238/4/3 237/4/3
f 243/4/3 239/4/3 238/4/3
f 244/4/3 239/4/3 243/4/3
f 245/3/3 240/3/3 239/3/3
f 245/4/3 239/4/3 244/4/3
f 246/4/3 223/4/3 240/4/3
f 246/3/3 240/3/3 245/3/3
f 247/3/3 244/3/3 243/3/3
f 247/4/3 243/4/3 237/4/3
f 248/4/3 245/4/3 244/4/3
f 248/3/3 244/3/3 247/3/3
f 248/4/3 246/4/3 245/4/3
f 249/3/3 241/3/3 217/3/3
f 249/3/3 242/3/3 241/3/3
f 250/3/3 242/3/3 249/3/3
f 251/3/3 218/3/3 242/3/3
f 251/3/3 242/3/3 250/3/3
f 251/4/3 247/4/3 237/4/3
f 251/4/3 248/4/3 247/4/3
f 251/4/3 237/4/3 227/4/3
f 251/4/3 227/4/3 218/4/3
f 252/4/3 248/4/3 251/4/3
f 253/4/3 248/4/3 252/4/3
f 254/4/3 246/4/3 248/4/3
f 254/4/3 248/4/3 253/4/3
f 255/4/3 253/4/3 252/4/3
f 255/3/3 251/3/3 250/3/3
f 255/3/3 252/3/3 251/3/3
f 256/4/3 253/4/3 255/4/3
f 257/3/3 255/3/3 250/3/3
f 257/3/3 256/3/3 255/3/3
f 258/4/3 253/4/3 256/4/3
f 258/3/3 256/3/3 257/3/3
f 259/3/3 254/3/3 253/3/3
f 259/4/3 253/4/3 258/4/3
f 260/4/3 246/4/3 254/4/3
f 260/3/3 254/3/3 259/3/3
f 261/4/3 250/4/3 249/4/3
f 261/3/3 249/3/3 217/3/3
f 262/3/3 257/3/3 250/3/3
f 262/4/3 250/4/3 261/4/3
f 263/3/3 262/3/3 261/3/3
f 263/3/3 257/3/3 262/3/3
f 264/4/3 259/4/3 258/4/3
f 264/3/3 257/3/3 263/3/3
f 264/4/3 260/4/3 259/4/3
f 264/4/3 258/4/3 257/4/3
f 265/4/3 260/4/3 264/4/3
f 266/4/3 246/4/3 260/4/3
f 266/4/3 260/4/3 265/4/3
f 267/4/3 265/4/3 264/4/3
f 267/4/3 264/4/3 263/4/3
f 268/4/3 265/4/3 267/4/3
f 269/3/3 266/3/3 265/3/3
f 269/4/3 265/4/3 268/4/3
f 270/4/3 246/4/3 266/4/3
f 270/3/3 266/3/3 269/3/3
f 271/3/3 263/3/3 261/3/3
f 271/4/3 267/4/3 263/4/3
f 272/3/3 268/3/3 267/3/3
f 272/4/3 267/4/3 271/4/3
f 273/4/3 269/4/3 268/4/3
f 273/3/3 268/3/3 272/3/3
f 273/4/3 270/4/3 269/4/3
f 274/4/3 270/4/3 273/4/3
f 275/4/3 246/4/3 270/4/3
f 275/4/3 270/4/3 274/4/3
f 276/4/3 246/4/3 275/4/3
f 277/3/3 272/3/3 271/3/3
f 277/3/3 274/3/3 273/3/3
f 277/3/3 271/3/3 261/3/3
f 277/3/3 273/3/3 272/3/3
f 278/4/3 275/4/3 274/4/3
f 278/3/3 274/3/3 277/3/3
f 279/3/3 276/3/3 275/3/3
f 279/4/3 275/4/3 278/4/3
f 279/4/3 278/4/3 277/4/3
f 280/4/3 246/4/3 276/4/3
f 280/3/3 276/3/3 279/3/3
f 281/3/3 277/3/3 261/3/3
f 281/3/3 261/3/3 217/3/3
f 282/4/3 279/4/3 277/4/3
f 282/3/3 277/3/3 281/3/3
f 282/4/3 280/4/3 279/4/3
f 283/4/3 246/4/3 280/4/3
f 283/4/3 280/4/3 282/4/3
f 283/4/3 223/4/3 246/4/3
f 283/1/3 224/1/3 223/1/3
f 284/1/3 224/1/3 283/1/3
f 287/2/3 286/2/3 285/2/3
f 288/2/3 286/2/3 287/2/3
f 291/2/3 290/2/3 289/2/3
f 292/2/3 290/2/3 291/2/3
f 295/2/3 294/2/3 293/2/3
f 296/2/3 294/2/3 295/2/3
f 299/2/3 298/2/3 297/2/3
f 300/2/3 298/2/3 299/2/3
f 303/2/3 302/2/3 301/2/3
f 304/2/3 302/2/3 303/2/3
f 307/2/3 306/2/3 305/2/3
f 308/2/3 306/2/3 307/2/3
f 311/2/3 310/2/3 309/2/3
f 312/2/3 310/2/3 311/2/3
f 315/2/3 314/2/3 313/2/3
f 316/2/3 314/2/3 315/2/3
f 319/2/3 318/2/3 317/2/3
f 320/2/3 318/2/3 319/2/3
f 323/2/3 322/2/3 321/2/3
f 324/2/3 322/2/3 323/2/3
f 327/2/3 326/2/3 325/2/3
f 328/2/3 326/2/3 327/2/3
f 331/2/3 330/2/3 329/2/3
f 332/2/3 330/2/3 331/2/3
f 335/2/3 334/2/3 333/2/3
f 336/2/3 334/2/3 335/2/3
f 337/2/4 338/2/4 339/2/4
f 339/2/4 338/2/4 340/2/4
f 341/2/4 342/2/4 343/2/4
f 343/2/4 342/2/4 344/2/4
f 345/2/4 346/2/4 347/2/4
f 347/2/4 346/2/4 348/2/4
f 349/2/4 350/2/4 351/2/4
f 351/2/4 350/2/4 352/2/4
f 353/2/4 354/2/4 355/2/4
f 355/2/4 354/2/4 356/2/4
f 357/2/4 358/2/4 359/2/4
f 359/2/4 358/2/4 360/2/4
f 361/2/4 362/2/4 363/2/4
f 363/2/4 362/2/4 364/2/4
f 365/2/4 366/2/4 367/2/4
f 367/2/4 366/2/4 368/2/4
f 369/2/4 370/2/4 371/2/4
f 371/2/4 370/2/4 372/2/4
f 373/2/4 374/2/4 375/2/4
f 375/2/4 374/2/4 376/2/4
f 377/2/4 378/2/4 379/2/4
f 379/2/4 378/2/4 380/2/4
f 381/2/4 382/2/4 383/2/4
f 383/2/4 382/2/4 384/2/4
f 385/2/4 386/2/4 387/2/4
f 387/2/4 386/2/4 388/2/4
f 389/3/4 390/3/4 397/3/4
f 390/4/4 391/4/4 397/4/4
f 391/3/4 392/3/4 398/3/4
f 397/4/4 391/4/4 398/4/4
f 392/4/4 393/4/4 399/4/4
f 393/3/4 394/3/4 399/3/4
f 394/4/4 395/4/4 400/4/4
f 399/3/4 394/3/4 400/3/4
f 389/3/4 397/3/4 401/3/4
f 397/3/4 398/3/4 401/3/4
f 392/4/4 399/4/4 402/4/4
f 401/3/4 398/3/4 402/3/4
f 398/3/4 392/3/4 402/3/4
f 399/4/4 400/4/4 402/4/4
f 401/4/4 402/4/4 403/4/4
f 402/4/4 400/4/4 403/4/4
f 403/4/4 400/4/4 404/4/4
f 389/3/4 401/3/4 405/3/4
f 401/4/4 403/4/4 405/4/4
f 405/4/4 403/4/4 406/4/4
f 404/4/4 400/4/4 407/4/4
f 400/4/4 395/4/4 408/4/4
f 407/4/4 400/4/4 408/4/4
f 389/3/4 405/3/4 409/3/4
f 405/3/4 406/3/4 409/3/4
f 406/4/4 403/4/4 410/4/4
f 409/3/4 406/3/4 410/3/4
f 404/4/4 407/4/4 411/4/4
f 407/3/4 408/3/4 411/3/4
f 408/4/4 395/4/4 412/4/4
f 411/3/4 408/3/4 412/3/4
f 410/4/4 403/4/4 413/4/4
f 403/3/4 404/3/4 413/3/4
f 409/4/4 410/4/4 413/4/4
f 411/4/4 412/4/4 414/4/4
f 413/3/4 404/3/4 414/3/4
f 404/4/4 411/4/4 414/4/4
f 389/3/4 409/3/4 415/3/4
f 409/4/4 413/4/4 415/4/4
f 413/4/4 414/4/4 415/4/4
f 415/4/4 414/4/4 416/4/4
f 416/4/4 414/4/4 417/4/4
f 417/4/4 414/4/4 418/4/4
f 414/4/4 412/4/4 419/4/4
f 418/4/4 414/4/4 419/4/4
f 419/4/4 412/4/4 420/4/4
f 389/3/4 415/3/4 421/3/4
f 415/3/4 416/3/4 421/3/4
f 416/4/4 417/4/4 422/4/4
f 421/3/4 416/3/4 422/3/4
f 421/4/4 422/4/4 423/4/4
f 422/4/4 417/4/4 423/4/4
f 423/4/4 417/4/4 424/4/4
f 389/3/4 421/3/4 425/3/4
f 425/3/4 421/3/4 426/3/4
f 419/3/4 420/3/4 427/3/4
f 418/4/4 419/4/4 427/4/4
f 420/4/4 412/4/4 428/4/4
f 427/3/4 420/3/4 428/3/4
f 421/4/4 423/4/4 429/4/4
f 423/3/4 424/3/4 429/3/4
f 424/4/4 417/4/4 430/4/4
f 429/3/4 424/3/4 430/3/4
f 417/3/4 418/3/4 431/3/4
f 430/4/4 417/4/4 431/4/4
f 418/4/4 427/4/4 432/4/4
f 431/3/4 418/3/4 432/3/4
f 427/4/4 428/4/4 432/4/4
f 425/4/4 426/4/4 433/4/4
f 389/3/4 425/3/4 433/3/4
f 426/3/4 421/3/4 434/3/4
f 433/4/4 426/4/4 434/4/4
f 429/4/4 430/4/4 435/4/4
f 434/3/4 421/3/4 435/3/4
f 430/4/4 431/4/4 435/4/4
f 431/4/4 432/4/4 435/4/4
f 421/4/4 429/4/4 435/4/4
f 435/4/4 432/4/4 436/4/4
f 433/3/4 434/3/4 437/3/4
f 434/3/4 435/3/4 437/3/4
f 435/3/4 436/3/4 437/3/4
f 436/4/4 432/4/4 438/4/4
f 437/3/4 436/3/4 438/3/4
f 437/4/4 438/4/4 439/4/4
f 438/4/4 432/4/4 439/4/4
f 432/4/4 428/4/4 440/4/4
f 439/4/4 432/4/4 440/4/4
f 440/4/4 428/4/4 441/4/4
f 428/4/4 412/4/4 442/4/4
f 441/4/4 428/4/4 442/4/4
f 440/4/4 441/4/4 443/4/4
f 441/3/4 442/3/4 443/3/4
f 442/4/4 412/4/4 444/4/4
f 443/3/4 442/3/4 444/3/4
f 433/3/4 437/3/4 445/3/4
f 437/4/4 439/4/4 445/4/4
f 445/4/4 439/4/4 446/4/4
f 439/3/4 440/3/4 447/3/4
f 446/4/4 439/4/4 447/4/4
f 440/4/4 443/4/4 448/4/4
f 447/3/4 440/3/4 448/3/4
f 443/4/4 444/4/4 448/4/4
f 389/3/4 433/3/4 449/3/4
f 433/3/4 445/3/4 449/3/4
f 445/3/4 446/3/4 449/3/4
f 446/4/4 447/4/4 450/4/4
f 449/3/4 446/3/4 450/3/4
f 447/4/4 448/4/4 450/4/4
f 395/1/4 396/1/4 451/1/4
f 450/4/4 448/4/4 451/4/4
f 444/4/4 412/4/4 451/4/4
f 448/4/4 444/4/4 451/4/4
f 412/4/4 395/4/4 451/4/4
f 451/1/4 396/1/4 452/1/4
f 455/3/5 454/3/5 453/3/5
f 456/3/5 454/3/5 455/3/5
f 457/3/5 455/3/5 453/3/5
f 457/4/5 456/4/5 455/4/5
f 458/3/5 454/3/5 456/3/5
f 458/4/5 456/4/5 457/4/5
f 459/3/5 457/3/5 453/3/5
f 459/3/5 458/3/5 457/3/5
f 460/3/5 454/3/5 458/3/5
f 460/3/5 458/3/5 459/3/5
f 461/1/6 462/1/6 463/1/6
f 463/1/6 462/1/6 464/1/6
f 461/1/6 463/1/6 465/1/6
f 465/1/6 463/1/6 466/1/6
f 466/1/6 463/1/6 467/1/6
f 467/1/6 463/1/6 468/1/6
f 468/1/6 463/1/6 469/1/6
f 464/1/6 462/1/6 470/1/6
f 470/1/6 462/1/6 471/1/6
f 471/1/6 462/1/6 472/1/6
f 461/1/6 465/1/6 473/1/6
f 466/1/6 467/1/6 474/1/6
f 474/1/6 467/1/6 475/1/6
f 475/1/6 467/1/6 476/1/6
f 468/1/6 469/1/6 477/1/6
f 469/1/6 470/1/6 477/1/6
f 470/1/6 471/1/6 477/1/6
f 477/1/6 471/1/6 478/1/6
f 476/1/6 467/1/6 479/1/6
f 468/1/6 477/1/6 480/1/6
f 474/1/6 475/1/6 481/1/6
f 473/1/6 474/1/6 481/1/6
f 476/1/6 479/1/6 482/1/6
f 479/1/6 480/1/6 482/1/6
f 480/1/6 477/1/6 483/1/6
f 482/1/6 480/1/6 483/1/6
f 478/1/6 471/1/6 484/1/6
f 484/1/6 471/1/6 485/1/6
f 472/1/6 462/1/6 486/1/6
f 482/1/6 483/1/6 487/1/6
f 485/1/6 486/1/6 487/1/6
f 484/1/6 485/1/6 487/1/6
f 481/1/6 482/1/6 487/1/6
f 483/1/6 484/1/6 487/1/6
f 487/1/6 486/1/6 488/1/6
f 473/1/6 481/1/6 489/1/6
f 481/1/6 487/1/6 489/1/6
f 489/1/6 487/1/6 490/1/6
f 488/1/6 486/1/6 491/1/6
f 491/1/6 486/1/6 492/1/6
f 492/1/6 486/1/6 493/1/6
f 493/1/6 486/1/6 494/1/6
f 473/1/6 489/1/6 495/1/6
f 490/1/6 487/1/6 496/1/6
f 496/1/6 487/1/6 497/1/6
f 488/1/6 491/1/6 498/1/6
f 492/1/6 493/1/6 499/1/6
f 494/1/6 486/1/6 500/1/6
f 497/1/6 498/1/6 501/1/6
f 496/1/6 497/1/6 501/1/6
f 495/1/6 496/1/6 501/1/6
f 498/1/6 491/1/6 501/1/6
f 492/1/6 499/1/6 502/1/6
f 499/1/6 500/1/6 502/1/6
f 495/1/6 501/1/6 503/1/6
f 501/1/6 502/1/6 503/1/6
f 503/1/6 502/1/6 504/1/6
f 461/1/6 473/1/6 505/1/6
f 473/1/6 495/1/6 505/1/6
f 495/1/6 503/1/6 505/1/6
f 505/1/6 503/1/6 506/1/6
f 504/1/6 502/1/6 507/1/6
f 502/1/6 500/1/6 508/1/6
f 507/1/6 502/1/6 508/1/6
f 500/1/6 486/1/6 508/1/6
f 461/1/6 505/1/6 509/1/6
f 506/1/6 503/1/6 510/1/6
f 510/1/6 503/1/6 511/1/6
f 504/1/6 507/1/6 512/1/6
f 512/1/6 507/1/6 513/1/6
f 508/1/6 486/1/6 514/1/6
f 461/1/6 509/1/6 515/1/6
f 513/1/6 514/1/6 515/1/6
f 510/1/6 511/1/6 515/1/6
f 512/1/6 513/1/6 515/1/6
f 511/1/6 512/1/6 515/1/6
f 509/1/6 510/1/6 515/1/6
f 486/1/6 462/1/6 516/1/6
f 515/1/6 514/1/6 516/1/6
f 514/1/6 486/1/6 516/1/6
f 517/2/6 518/2/6 523/2/6
f 523/2/6 518/2/6 524/2/6
f 519/2/6 520/2/6 527/2/6
f 527/2/6 520/2/6 528/2/6
f 521/2/6 522/2/6 533/2/6
f 533/2/6 522/2/6 534/2/6
f 529/2/6 530/2/6 535/2/6
f 535/2/6 530/2/6 536/2/6
f 531/2/6 532/2/6 537/2/6
f 537/2/6 532/2/6 538/2/6
f 525/2/6 526/2/6 539/2/6
f 539/2/6 526/2/6 540/2/6
f 543/2/6 544/2/6 549/2/6
f 549/2/6 544/2/6 550/2/6
f 541/2/6 542/2/6 551/2/6
f 551/2/6 542/2/6 552/2/6
f 547/2/6 548/2/6 553/2/6
f 553/2/6 548/2/6 554/2/6
f 545/2/6 546/2/6 555/2/6
f 555/2/6 546/2/6 556/2/6
f 559/2/6 560/2/6 563/2/6
f 563/2/6 560/2/6 564/2/6
f 557/2/6 558/2/6 565/2/6
f 565/2/6 558/2/6 566/2/6
f 561/2/6 562/2/6 567/2/6
f 567/2/6 562/2/6 568/2/6
