# MagicaVoxel @ Ephtracy

# material
mtllib tower badan level 1.mtl
usemtl palette

# normals
vn -1 0 0
vn 1 0 0
vn 0 0 1
vn 0 0 -1
vn 0 -1 0
vn 0 1 0

# texcoords
vt 0.912109 0.5
vt 0.982422 0.5

# verts
v 16 28 -10
v 16 28 -14
v 16 28 -22
v 16 28 -26
v 16 29 -10
v 16 29 -14
v 16 29 -22
v 16 29 -26
v 16 41 -11
v 16 41 -13
v 16 41 -23
v 16 41 -25
v 16 42 -10
v 16 42 -11
v 16 42 -13
v 16 42 -22
v 16 42 -23
v 16 42 -25
v 16 43 -10
v 16 43 -22
v 17 29 -11
v 17 29 -13
v 17 29 -23
v 17 29 -25
v 17 41 -11
v 17 41 -13
v 17 41 -23
v 17 41 -25
v 20 42 -10
v 20 42 -11
v 20 42 -13
v 20 42 -22
v 20 43 -10
v 20 43 -22
v 24 42 -10
v 24 42 -11
v 24 42 -13
v 24 42 -22
v 24 43 -10
v 24 43 -22
v 28 28 -10
v 28 28 -14
v 28 28 -22
v 28 28 -26
v 28 29 -10
v 28 29 -14
v 28 29 -22
v 28 29 -26
v 29 29 -11
v 29 29 -12
v 29 29 -24
v 29 29 -25
v 29 41 -11
v 29 41 -12
v 29 41 -24
v 29 41 -25
v 29 42 -10
v 29 42 -11
v 29 42 -13
v 29 42 -22
v 29 43 -10
v 29 43 -22
v 30 29 -12
v 30 29 -13
v 30 29 -23
v 30 29 -24
v 30 41 -12
v 30 41 -13
v 30 41 -23
v 30 41 -24
v 18 29 -12
v 18 29 -13
v 18 29 -23
v 18 29 -24
v 18 41 -12
v 18 41 -13
v 18 41 -23
v 18 41 -24
v 19 29 -11
v 19 29 -12
v 19 29 -24
v 19 29 -25
v 19 41 -11
v 19 41 -12
v 19 41 -24
v 19 41 -25
v 19 42 -10
v 19 42 -11
v 19 42 -13
v 19 42 -22
v 19 43 -10
v 19 43 -22
v 20 28 -10
v 20 28 -14
v 20 28 -22
v 20 28 -26
v 20 29 -10
v 20 29 -14
v 20 29 -22
v 20 29 -26
v 23 42 -10
v 23 42 -11
v 23 42 -13
v 23 42 -22
v 23 43 -10
v 23 43 -22
v 28 42 -10
v 28 42 -11
v 28 42 -13
v 28 42 -22
v 28 43 -10
v 28 43 -22
v 31 29 -11
v 31 29 -13
v 31 29 -23
v 31 29 -25
v 31 41 -11
v 31 41 -13
v 31 41 -23
v 31 41 -25
v 32 28 -10
v 32 28 -14
v 32 28 -22
v 32 28 -26
v 32 29 -10
v 32 29 -14
v 32 29 -22
v 32 29 -26
v 32 41 -11
v 32 41 -13
v 32 41 -23
v 32 41 -25
v 32 42 -10
v 32 42 -11
v 32 42 -13
v 32 42 -22
v 32 42 -23
v 32 42 -25
v 32 43 -10
v 32 43 -22
v 16 28 -10
v 16 29 -10
v 16 42 -10
v 16 43 -10
v 19 42 -10
v 19 43 -10
v 20 28 -10
v 20 29 -10
v 20 42 -10
v 20 43 -10
v 23 42 -10
v 23 43 -10
v 24 42 -10
v 24 43 -10
v 28 28 -10
v 28 29 -10
v 28 42 -10
v 28 43 -10
v 29 42 -10
v 29 43 -10
v 32 28 -10
v 32 29 -10
v 32 42 -10
v 32 43 -10
v 16 41 -11
v 16 42 -11
v 17 29 -11
v 17 41 -11
v 19 29 -11
v 19 41 -11
v 19 42 -11
v 20 42 -11
v 23 42 -11
v 24 42 -11
v 28 42 -11
v 29 29 -11
v 29 41 -11
v 29 42 -11
v 31 29 -11
v 31 41 -11
v 32 41 -11
v 32 42 -11
v 16 28 -22
v 16 29 -22
v 20 28 -22
v 20 29 -22
v 28 28 -22
v 28 29 -22
v 32 28 -22
v 32 29 -22
v 16 41 -23
v 16 42 -23
v 17 29 -23
v 17 41 -23
v 18 29 -23
v 18 41 -23
v 30 29 -23
v 30 41 -23
v 31 29 -23
v 31 41 -23
v 32 41 -23
v 32 42 -23
v 18 29 -24
v 18 41 -24
v 19 29 -24
v 19 41 -24
v 29 29 -24
v 29 41 -24
v 30 29 -24
v 30 41 -24
v 18 29 -12
v 18 41 -12
v 19 29 -12
v 19 41 -12
v 29 29 -12
v 29 41 -12
v 30 29 -12
v 30 41 -12
v 16 41 -13
v 16 42 -13
v 17 29 -13
v 17 41 -13
v 18 29 -13
v 18 41 -13
v 19 42 -13
v 20 42 -13
v 23 42 -13
v 24 42 -13
v 28 42 -13
v 29 42 -13
v 30 29 -13
v 30 41 -13
v 31 29 -13
v 31 41 -13
v 32 41 -13
v 32 42 -13
v 16 28 -14
v 16 29 -14
v 20 28 -14
v 20 29 -14
v 28 28 -14
v 28 29 -14
v 32 28 -14
v 32 29 -14
v 16 42 -22
v 16 43 -22
v 19 42 -22
v 19 43 -22
v 20 42 -22
v 20 43 -22
v 23 42 -22
v 23 43 -22
v 24 42 -22
v 24 43 -22
v 28 42 -22
v 28 43 -22
v 29 42 -22
v 29 43 -22
v 32 42 -22
v 32 43 -22
v 16 41 -25
v 16 42 -25
v 17 29 -25
v 17 41 -25
v 19 29 -25
v 19 41 -25
v 29 29 -25
v 29 41 -25
v 31 29 -25
v 31 41 -25
v 32 41 -25
v 32 42 -25
v 16 28 -26
v 16 29 -26
v 20 28 -26
v 20 29 -26
v 28 28 -26
v 28 29 -26
v 32 28 -26
v 32 29 -26
v 16 28 -10
v 20 28 -10
v 28 28 -10
v 32 28 -10
v 17 28 -11
v 19 28 -11
v 29 28 -11
v 31 28 -11
v 18 28 -12
v 19 28 -12
v 29 28 -12
v 30 28 -12
v 17 28 -13
v 18 28 -13
v 30 28 -13
v 31 28 -13
v 16 28 -14
v 20 28 -14
v 28 28 -14
v 32 28 -14
v 16 28 -22
v 20 28 -22
v 28 28 -22
v 32 28 -22
v 17 28 -23
v 18 28 -23
v 30 28 -23
v 31 28 -23
v 18 28 -24
v 19 28 -24
v 29 28 -24
v 30 28 -24
v 17 28 -25
v 19 28 -25
v 29 28 -25
v 31 28 -25
v 16 28 -26
v 20 28 -26
v 28 28 -26
v 32 28 -26
v 16 41 -11
v 17 41 -11
v 19 41 -11
v 29 41 -11
v 31 41 -11
v 32 41 -11
v 18 41 -12
v 19 41 -12
v 29 41 -12
v 30 41 -12
v 16 41 -13
v 17 41 -13
v 18 41 -13
v 30 41 -13
v 31 41 -13
v 32 41 -13
v 16 41 -23
v 17 41 -23
v 18 41 -23
v 30 41 -23
v 31 41 -23
v 32 41 -23
v 18 41 -24
v 19 41 -24
v 29 41 -24
v 30 41 -24
v 16 41 -25
v 17 41 -25
v 19 41 -25
v 29 41 -25
v 31 41 -25
v 32 41 -25
v 16 42 -10
v 19 42 -10
v 20 42 -10
v 23 42 -10
v 24 42 -10
v 28 42 -10
v 29 42 -10
v 32 42 -10
v 16 42 -11
v 19 42 -11
v 20 42 -11
v 23 42 -11
v 24 42 -11
v 28 42 -11
v 29 42 -11
v 32 42 -11
v 16 42 -13
v 19 42 -13
v 20 42 -13
v 23 42 -13
v 24 42 -13
v 28 42 -13
v 29 42 -13
v 32 42 -13
v 16 42 -22
v 19 42 -22
v 20 42 -22
v 23 42 -22
v 24 42 -22
v 28 42 -22
v 29 42 -22
v 32 42 -22
v 16 29 -10
v 20 29 -10
v 28 29 -10
v 32 29 -10
v 17 29 -11
v 19 29 -11
v 29 29 -11
v 31 29 -11
v 18 29 -12
v 19 29 -12
v 29 29 -12
v 30 29 -12
v 17 29 -13
v 18 29 -13
v 30 29 -13
v 31 29 -13
v 16 29 -14
v 20 29 -14
v 28 29 -14
v 32 29 -14
v 16 29 -22
v 20 29 -22
v 28 29 -22
v 32 29 -22
v 17 29 -23
v 18 29 -23
v 30 29 -23
v 31 29 -23
v 18 29 -24
v 19 29 -24
v 29 29 -24
v 30 29 -24
v 17 29 -25
v 19 29 -25
v 29 29 -25
v 31 29 -25
v 16 29 -26
v 20 29 -26
v 28 29 -26
v 32 29 -26
v 19 42 -11
v 20 42 -11
v 23 42 -11
v 24 42 -11
v 28 42 -11
v 29 42 -11
v 19 42 -13
v 20 42 -13
v 23 42 -13
v 24 42 -13
v 28 42 -13
v 29 42 -13
v 16 42 -23
v 32 42 -23
v 16 42 -25
v 32 42 -25
v 16 43 -10
v 19 43 -10
v 20 43 -10
v 23 43 -10
v 24 43 -10
v 28 43 -10
v 29 43 -10
v 32 43 -10
v 16 43 -22
v 19 43 -22
v 20 43 -22
v 23 43 -22
v 24 43 -22
v 28 43 -22
v 29 43 -22
v 32 43 -22

# faces
f 5/1/1 2/1/1 1/1/1
f 6/1/1 2/1/1 5/1/1
f 7/1/1 4/1/1 3/1/1
f 8/1/1 4/1/1 7/1/1
f 14/2/1 10/2/1 9/2/1
f 15/2/1 10/2/1 14/2/1
f 17/2/1 12/2/1 11/2/1
f 18/2/1 12/2/1 17/2/1
f 19/2/1 16/2/1 15/2/1
f 19/2/1 14/2/1 13/2/1
f 19/2/1 15/2/1 14/2/1
f 20/2/1 16/2/1 19/2/1
f 25/2/1 22/2/1 21/2/1
f 26/2/1 22/2/1 25/2/1
f 27/2/1 24/2/1 23/2/1
f 28/2/1 24/2/1 27/2/1
f 33/2/1 30/2/1 29/2/1
f 33/2/1 32/2/1 31/2/1
f 33/2/1 31/2/1 30/2/1
f 34/2/1 32/2/1 33/2/1
f 39/2/1 36/2/1 35/2/1
f 39/2/1 38/2/1 37/2/1
f 39/2/1 37/2/1 36/2/1
f 40/2/1 38/2/1 39/2/1
f 45/1/1 42/1/1 41/1/1
f 46/1/1 42/1/1 45/1/1
f 47/1/1 44/1/1 43/1/1
f 48/1/1 44/1/1 47/1/1
f 53/2/1 50/2/1 49/2/1
f 54/2/1 50/2/1 53/2/1
f 55/2/1 52/2/1 51/2/1
f 56/2/1 52/2/1 55/2/1
f 61/2/1 58/2/1 57/2/1
f 61/2/1 60/2/1 59/2/1
f 61/2/1 59/2/1 58/2/1
f 62/2/1 60/2/1 61/2/1
f 67/2/1 64/2/1 63/2/1
f 68/2/1 64/2/1 67/2/1
f 69/2/1 66/2/1 65/2/1
f 70/2/1 66/2/1 69/2/1
f 71/2/2 72/2/2 75/2/2
f 75/2/2 72/2/2 76/2/2
f 73/2/2 74/2/2 77/2/2
f 77/2/2 74/2/2 78/2/2
f 79/2/2 80/2/2 83/2/2
f 83/2/2 80/2/2 84/2/2
f 81/2/2 82/2/2 85/2/2
f 85/2/2 82/2/2 86/2/2
f 87/2/2 88/2/2 91/2/2
f 89/2/2 90/2/2 91/2/2
f 88/2/2 89/2/2 91/2/2
f 91/2/2 90/2/2 92/2/2
f 93/1/2 94/1/2 97/1/2
f 97/1/2 94/1/2 98/1/2
f 95/1/2 96/1/2 99/1/2
f 99/1/2 96/1/2 100/1/2
f 101/2/2 102/2/2 105/2/2
f 103/2/2 104/2/2 105/2/2
f 102/2/2 103/2/2 105/2/2
f 105/2/2 104/2/2 106/2/2
f 107/2/2 108/2/2 111/2/2
f 109/2/2 110/2/2 111/2/2
f 108/2/2 109/2/2 111/2/2
f 111/2/2 110/2/2 112/2/2
f 113/2/2 114/2/2 117/2/2
f 117/2/2 114/2/2 118/2/2
f 115/2/2 116/2/2 119/2/2
f 119/2/2 116/2/2 120/2/2
f 121/1/2 122/1/2 125/1/2
f 125/1/2 122/1/2 126/1/2
f 123/1/2 124/1/2 127/1/2
f 127/1/2 124/1/2 128/1/2
f 129/2/2 130/2/2 134/2/2
f 134/2/2 130/2/2 135/2/2
f 131/2/2 132/2/2 137/2/2
f 137/2/2 132/2/2 138/2/2
f 135/2/2 136/2/2 139/2/2
f 133/2/2 134/2/2 139/2/2
f 134/2/2 135/2/2 139/2/2
f 139/2/2 136/2/2 140/2/2
f 145/2/3 144/2/3 143/2/3
f 146/2/3 144/2/3 145/2/3
f 147/1/3 142/1/3 141/1/3
f 148/1/3 142/1/3 147/1/3
f 151/2/3 150/2/3 149/2/3
f 152/2/3 150/2/3 151/2/3
f 157/2/3 154/2/3 153/2/3
f 158/2/3 154/2/3 157/2/3
f 161/1/3 156/1/3 155/1/3
f 162/1/3 156/1/3 161/1/3
f 163/2/3 160/2/3 159/2/3
f 164/2/3 160/2/3 163/2/3
f 168/2/3 166/2/3 165/2/3
f 169/2/3 168/2/3 167/2/3
f 170/2/3 166/2/3 168/2/3
f 170/2/3 168/2/3 169/2/3
f 171/2/3 166/2/3 170/2/3
f 172/2/3 171/2/3 170/2/3
f 173/2/3 172/2/3 170/2/3
f 174/2/3 173/2/3 170/2/3
f 175/2/3 174/2/3 170/2/3
f 177/2/3 175/2/3 170/2/3
f 178/2/3 175/2/3 177/2/3
f 179/2/3 177/2/3 176/2/3
f 179/2/3 178/2/3 177/2/3
f 180/2/3 178/2/3 179/2/3
f 181/2/3 178/2/3 180/2/3
f 182/2/3 178/2/3 181/2/3
f 185/1/3 184/1/3 183/1/3
f 186/1/3 184/1/3 185/1/3
f 189/1/3 188/1/3 187/1/3
f 190/1/3 188/1/3 189/1/3
f 194/2/3 192/2/3 191/2/3
f 195/2/3 194/2/3 193/2/3
f 196/2/3 192/2/3 194/2/3
f 196/2/3 194/2/3 195/2/3
f 198/2/3 192/2/3 196/2/3
f 199/2/3 198/2/3 197/2/3
f 200/2/3 192/2/3 198/2/3
f 200/2/3 198/2/3 199/2/3
f 201/2/3 192/2/3 200/2/3
f 202/2/3 192/2/3 201/2/3
f 205/2/3 204/2/3 203/2/3
f 206/2/3 204/2/3 205/2/3
f 209/2/3 208/2/3 207/2/3
f 210/2/3 208/2/3 209/2/3
f 211/2/4 212/2/4 213/2/4
f 213/2/4 212/2/4 214/2/4
f 215/2/4 216/2/4 217/2/4
f 217/2/4 216/2/4 218/2/4
f 219/2/4 220/2/4 222/2/4
f 221/2/4 222/2/4 223/2/4
f 222/2/4 220/2/4 224/2/4
f 223/2/4 222/2/4 224/2/4
f 224/2/4 220/2/4 225/2/4
f 224/2/4 225/2/4 226/2/4
f 224/2/4 226/2/4 227/2/4
f 224/2/4 227/2/4 228/2/4
f 224/2/4 228/2/4 229/2/4
f 224/2/4 229/2/4 230/2/4
f 224/2/4 230/2/4 232/2/4
f 231/2/4 232/2/4 233/2/4
f 232/2/4 230/2/4 234/2/4
f 233/2/4 232/2/4 234/2/4
f 234/2/4 230/2/4 235/2/4
f 235/2/4 230/2/4 236/2/4
f 237/1/4 238/1/4 239/1/4
f 239/1/4 238/1/4 240/1/4
f 241/1/4 242/1/4 243/1/4
f 243/1/4 242/1/4 244/1/4
f 245/2/4 246/2/4 247/2/4
f 247/2/4 246/2/4 248/2/4
f 249/2/4 250/2/4 251/2/4
f 251/2/4 250/2/4 252/2/4
f 253/2/4 254/2/4 255/2/4
f 255/2/4 254/2/4 256/2/4
f 257/2/4 258/2/4 259/2/4
f 259/2/4 258/2/4 260/2/4
f 261/2/4 262/2/4 264/2/4
f 263/2/4 264/2/4 265/2/4
f 264/2/4 262/2/4 266/2/4
f 265/2/4 264/2/4 266/2/4
f 266/2/4 262/2/4 268/2/4
f 267/2/4 268/2/4 269/2/4
f 268/2/4 262/2/4 270/2/4
f 269/2/4 268/2/4 270/2/4
f 270/2/4 262/2/4 271/2/4
f 271/2/4 262/2/4 272/2/4
f 273/1/4 274/1/4 275/1/4
f 275/1/4 274/1/4 276/1/4
f 277/1/4 278/1/4 279/1/4
f 279/1/4 278/1/4 280/1/4
f 285/1/5 282/1/5 281/1/5
f 286/1/5 282/1/5 285/1/5
f 287/1/5 284/1/5 283/1/5
f 288/1/5 284/1/5 287/1/5
f 289/2/5 286/2/5 285/2/5
f 290/1/5 282/1/5 286/1/5
f 290/2/5 286/2/5 289/2/5
f 291/1/5 287/1/5 283/1/5
f 291/2/5 288/2/5 287/2/5
f 292/2/5 288/2/5 291/2/5
f 293/2/5 289/2/5 285/2/5
f 293/1/5 285/1/5 281/1/5
f 294/1/5 290/1/5 289/1/5
f 294/2/5 289/2/5 293/2/5
f 295/2/5 288/2/5 292/2/5
f 295/1/5 292/1/5 291/1/5
f 296/1/5 284/1/5 288/1/5
f 296/2/5 288/2/5 295/2/5
f 297/1/5 294/1/5 293/1/5
f 297/1/5 293/1/5 281/1/5
f 298/1/5 290/1/5 294/1/5
f 298/1/5 294/1/5 297/1/5
f 298/1/5 282/1/5 290/1/5
f 299/1/5 295/1/5 291/1/5
f 299/1/5 291/1/5 283/1/5
f 299/1/5 296/1/5 295/1/5
f 300/1/5 284/1/5 296/1/5
f 300/1/5 296/1/5 299/1/5
f 305/1/5 302/1/5 301/1/5
f 306/1/5 302/1/5 305/1/5
f 307/1/5 304/1/5 303/1/5
f 308/1/5 304/1/5 307/1/5
f 309/1/5 302/1/5 306/1/5
f 309/2/5 306/2/5 305/2/5
f 310/1/5 302/1/5 309/1/5
f 311/1/5 307/1/5 303/1/5
f 312/2/5 308/2/5 307/2/5
f 312/1/5 307/1/5 311/1/5
f 313/1/5 305/1/5 301/1/5
f 313/2/5 309/2/5 305/2/5
f 313/2/5 310/2/5 309/2/5
f 314/1/5 302/1/5 310/1/5
f 314/2/5 310/2/5 313/2/5
f 315/1/5 311/1/5 303/1/5
f 315/2/5 312/2/5 311/2/5
f 316/1/5 304/1/5 308/1/5
f 316/2/5 312/2/5 315/2/5
f 316/2/5 308/2/5 312/2/5
f 317/1/5 314/1/5 313/1/5
f 317/1/5 313/1/5 301/1/5
f 318/1/5 302/1/5 314/1/5
f 318/1/5 314/1/5 317/1/5
f 319/1/5 315/1/5 303/1/5
f 319/1/5 316/1/5 315/1/5
f 320/1/5 304/1/5 316/1/5
f 320/1/5 316/1/5 319/1/5
f 328/2/5 324/2/5 323/2/5
f 329/2/5 324/2/5 328/2/5
f 331/2/5 322/2/5 321/2/5
f 332/2/5 322/2/5 331/2/5
f 333/2/5 330/2/5 329/2/5
f 333/2/5 328/2/5 327/2/5
f 333/2/5 329/2/5 328/2/5
f 334/2/5 330/2/5 333/2/5
f 335/2/5 326/2/5 325/2/5
f 336/2/5 326/2/5 335/2/5
f 343/2/5 340/2/5 339/2/5
f 344/2/5 340/2/5 343/2/5
f 345/2/5 340/2/5 344/2/5
f 346/2/5 340/2/5 345/2/5
f 347/2/5 338/2/5 337/2/5
f 348/2/5 338/2/5 347/2/5
f 349/2/5 345/2/5 344/2/5
f 350/2/5 345/2/5 349/2/5
f 351/2/5 342/2/5 341/2/5
f 352/2/5 342/2/5 351/2/5
f 361/2/5 354/2/5 353/2/5
f 362/2/5 354/2/5 361/2/5
f 363/2/5 356/2/5 355/2/5
f 364/2/5 356/2/5 363/2/5
f 365/2/5 358/2/5 357/2/5
f 366/2/5 358/2/5 365/2/5
f 367/2/5 360/2/5 359/2/5
f 368/2/5 360/2/5 367/2/5
f 377/2/5 370/2/5 369/2/5
f 378/2/5 370/2/5 377/2/5
f 379/2/5 372/2/5 371/2/5
f 380/2/5 372/2/5 379/2/5
f 381/2/5 374/2/5 373/2/5
f 382/2/5 374/2/5 381/2/5
f 383/2/5 376/2/5 375/2/5
f 384/2/5 376/2/5 383/2/5
f 385/1/6 386/1/6 389/1/6
f 389/1/6 386/1/6 390/1/6
f 387/1/6 388/1/6 391/1/6
f 391/1/6 388/1/6 392/1/6
f 390/1/6 386/1/6 394/1/6
f 387/1/6 391/1/6 395/1/6
f 385/1/6 389/1/6 397/1/6
f 393/1/6 394/1/6 398/1/6
f 395/1/6 396/1/6 399/1/6
f 392/1/6 388/1/6 400/1/6
f 385/1/6 397/1/6 401/1/6
f 397/1/6 398/1/6 401/1/6
f 394/1/6 386/1/6 402/1/6
f 401/1/6 398/1/6 402/1/6
f 398/1/6 394/1/6 402/1/6
f 399/1/6 400/1/6 403/1/6
f 395/1/6 399/1/6 403/1/6
f 387/1/6 395/1/6 403/1/6
f 400/1/6 388/1/6 404/1/6
f 403/1/6 400/1/6 404/1/6
f 405/1/6 406/1/6 409/1/6
f 409/1/6 406/1/6 410/1/6
f 407/1/6 408/1/6 411/1/6
f 411/1/6 408/1/6 412/1/6
f 410/1/6 406/1/6 413/1/6
f 413/1/6 406/1/6 414/1/6
f 407/1/6 411/1/6 415/1/6
f 415/1/6 411/1/6 416/1/6
f 405/1/6 409/1/6 417/1/6
f 414/1/6 406/1/6 418/1/6
f 407/1/6 415/1/6 419/1/6
f 412/1/6 408/1/6 420/1/6
f 405/1/6 417/1/6 421/1/6
f 417/1/6 418/1/6 421/1/6
f 418/1/6 406/1/6 422/1/6
f 421/1/6 418/1/6 422/1/6
f 407/1/6 419/1/6 423/1/6
f 419/1/6 420/1/6 423/1/6
f 420/1/6 408/1/6 424/1/6
f 423/1/6 420/1/6 424/1/6
f 425/2/6 426/2/6 431/2/6
f 431/2/6 426/2/6 432/2/6
f 427/2/6 428/2/6 433/2/6
f 433/2/6 428/2/6 434/2/6
f 429/2/6 430/2/6 435/2/6
f 435/2/6 430/2/6 436/2/6
f 437/2/6 438/2/6 439/2/6
f 439/2/6 438/2/6 440/2/6
f 441/2/6 442/2/6 449/2/6
f 449/2/6 442/2/6 450/2/6
f 443/2/6 444/2/6 451/2/6
f 451/2/6 444/2/6 452/2/6
f 445/2/6 446/2/6 453/2/6
f 453/2/6 446/2/6 454/2/6
f 447/2/6 448/2/6 455/2/6
f 455/2/6 448/2/6 456/2/6
