# MagicaVoxel @ Ephtracy

# material
mtllib pohon.mtl
usemtl palette

# normals
vn -1 0 0
vn 1 0 0
vn 0 0 1
vn 0 0 -1
vn 0 -1 0
vn 0 1 0

# texcoords
vt 0.943359 0.5
vt 0.970703 0.5

# verts
v 3 47 45
v 3 47 41
v 3 49 45
v 3 49 41
v 4 57 47
v 4 57 45
v 4 59 47
v 4 59 45
v 5 57 45
v 5 57 44
v 5 59 47
v 5 59 45
v 5 60 47
v 5 60 44
v 6 50 45
v 6 50 44
v 6 52 45
v 6 52 44
v 6 55 48
v 6 55 43
v 6 57 47
v 6 57 44
v 6 60 47
v 6 60 44
v 6 61 48
v 6 61 43
v 7 46 45
v 7 46 41
v 7 47 45
v 7 47 41
v 7 49 38
v 7 49 36
v 7 50 46
v 7 50 45
v 7 50 44
v 7 50 43
v 7 51 38
v 7 51 36
v 7 52 46
v 7 52 45
v 7 52 44
v 7 52 43
v 8 44 45
v 8 44 41
v 8 46 45
v 8 46 41
v 8 48 39
v 8 48 36
v 8 49 38
v 8 49 36
v 8 51 43
v 8 51 42
v 8 51 39
v 8 51 38
v 8 52 46
v 8 52 43
v 8 53 46
v 8 53 42
v 9 27 43
v 9 27 42
v 9 29 43
v 9 29 42
v 9 43 45
v 9 43 41
v 9 44 45
v 9 44 41
v 9 46 41
v 9 46 35
v 9 48 39
v 9 48 36
v 9 49 46
v 9 49 45
v 9 49 41
v 9 50 46
v 9 50 43
v 9 51 43
v 9 51 42
v 9 51 39
v 9 51 36
v 9 52 40
v 9 52 35
v 9 53 46
v 9 53 42
v 9 55 46
v 9 55 43
v 9 58 43
v 9 58 40
v 10 27 42
v 10 27 38
v 10 28 45
v 10 28 43
v 10 28 41
v 10 28 38
v 10 29 43
v 10 29 42
v 10 39 47
v 10 39 45
v 10 41 52
v 10 41 47
v 10 43 50
v 10 43 45
v 10 43 41
v 10 46 52
v 10 46 50
v 11 47 35
v 11 47 32
v 11 51 35
v 11 51 32
v 12 27 41
v 12 27 40
v 12 28 41
v 12 28 40
v 12 52 52
v 12 52 46
v 12 56 52
v 12 56 46
v 13 53 53
v 13 53 52
v 13 55 53
v 13 55 52
v 13 56 50
v 13 56 48
v 13 59 50
v 13 59 48
v 14 58 45
v 14 58 41
v 14 62 45
v 14 62 41
v 15 53 40
v 15 53 37
v 15 56 40
v 15 56 37
v 9 55 48
v 9 55 46
v 9 58 46
v 9 58 43
v 9 61 48
v 9 61 43
v 11 27 41
v 11 27 38
v 11 28 41
v 11 28 38
v 11 36 42
v 11 36 41
v 11 39 42
v 11 39 41
v 13 47 35
v 13 47 32
v 13 51 35
v 13 51 32
v 14 27 42
v 14 27 41
v 14 28 45
v 14 28 43
v 14 28 42
v 14 28 41
v 14 36 42
v 14 36 41
v 14 39 47
v 14 39 45
v 14 39 42
v 14 39 41
v 14 41 52
v 14 41 47
v 14 43 50
v 14 43 45
v 14 46 52
v 14 46 50
v 14 46 41
v 14 49 45
v 14 49 41
v 15 53 53
v 15 53 52
v 15 55 53
v 15 55 52
v 16 27 43
v 16 27 42
v 16 27 41
v 16 27 40
v 16 28 43
v 16 28 42
v 16 28 41
v 16 28 40
v 16 46 41
v 16 46 35
v 16 49 41
v 16 49 40
v 16 52 40
v 16 52 35
v 16 56 50
v 16 56 48
v 16 59 50
v 16 59 48
v 17 52 52
v 17 52 46
v 17 56 52
v 17 56 46
v 17 58 45
v 17 58 41
v 17 62 45
v 17 62 41
v 18 53 40
v 18 53 37
v 18 56 40
v 18 56 37
v 20 49 46
v 20 49 40
v 20 50 46
v 20 50 43
v 20 55 46
v 20 55 43
v 20 58 46
v 20 58 40
v 22 50 46
v 22 50 43
v 22 51 46
v 22 51 43
v 23 51 46
v 23 51 43
v 23 55 46
v 23 55 43
v 13 53 53
v 13 55 53
v 15 53 53
v 15 55 53
v 10 41 52
v 10 46 52
v 12 52 52
v 12 56 52
v 13 53 52
v 13 55 52
v 14 41 52
v 14 46 52
v 15 53 52
v 15 55 52
v 17 52 52
v 17 56 52
v 13 56 50
v 13 59 50
v 16 56 50
v 16 59 50
v 6 55 48
v 6 61 48
v 9 55 48
v 9 61 48
v 4 57 47
v 4 59 47
v 5 59 47
v 5 60 47
v 6 57 47
v 6 60 47
v 10 39 47
v 10 41 47
v 14 39 47
v 14 41 47
v 7 50 46
v 7 52 46
v 8 52 46
v 8 53 46
v 9 49 46
v 9 50 46
v 9 53 46
v 9 55 46
v 9 58 46
v 12 52 46
v 12 56 46
v 17 52 46
v 17 56 46
v 20 49 46
v 20 50 46
v 20 55 46
v 20 58 46
v 22 50 46
v 22 51 46
v 23 51 46
v 23 55 46
v 3 47 45
v 3 49 45
v 6 50 45
v 6 52 45
v 7 46 45
v 7 47 45
v 7 50 45
v 7 52 45
v 8 44 45
v 8 46 45
v 9 43 45
v 9 44 45
v 9 49 45
v 10 28 45
v 10 39 45
v 10 43 45
v 10 49 45
v 14 28 45
v 14 39 45
v 14 43 45
v 14 49 45
v 14 58 45
v 14 62 45
v 17 58 45
v 17 62 45
v 9 27 43
v 9 29 43
v 10 28 43
v 10 29 43
v 14 28 43
v 16 27 43
v 16 28 43
v 14 27 41
v 14 28 41
v 14 46 41
v 14 49 41
v 16 27 41
v 16 28 41
v 16 46 41
v 16 49 41
v 8 48 39
v 8 51 39
v 9 48 39
v 9 51 39
v 7 49 38
v 7 51 38
v 8 49 38
v 8 51 38
v 10 43 50
v 10 46 50
v 14 43 50
v 14 46 50
v 13 56 48
v 13 59 48
v 16 56 48
v 16 59 48
v 4 57 45
v 4 59 45
v 5 57 45
v 5 59 45
v 5 57 44
v 5 60 44
v 6 50 44
v 6 52 44
v 6 57 44
v 6 60 44
v 7 50 44
v 7 52 44
v 6 55 43
v 6 61 43
v 7 50 43
v 7 52 43
v 8 51 43
v 8 52 43
v 9 50 43
v 9 51 43
v 9 55 43
v 9 58 43
v 9 61 43
v 20 50 43
v 20 55 43
v 22 50 43
v 22 51 43
v 23 51 43
v 23 55 43
v 8 51 42
v 8 53 42
v 9 27 42
v 9 29 42
v 9 51 42
v 9 53 42
v 10 27 42
v 10 29 42
v 11 36 42
v 11 39 42
v 14 27 42
v 14 28 42
v 14 36 42
v 14 39 42
v 16 27 42
v 16 28 42
v 3 47 41
v 3 49 41
v 7 46 41
v 7 47 41
v 8 44 41
v 8 46 41
v 9 43 41
v 9 44 41
v 9 46 41
v 9 49 41
v 10 28 41
v 10 43 41
v 10 46 41
v 11 27 41
v 11 28 41
v 11 36 41
v 11 39 41
v 12 27 41
v 12 28 41
v 14 28 41
v 14 36 41
v 14 39 41
v 14 46 41
v 14 58 41
v 14 62 41
v 17 58 41
v 17 62 41
v 9 52 40
v 9 58 40
v 12 27 40
v 12 28 40
v 15 53 40
v 15 56 40
v 16 27 40
v 16 28 40
v 16 49 40
v 16 52 40
v 18 53 40
v 18 56 40
v 20 49 40
v 20 58 40
v 10 27 38
v 10 28 38
v 11 27 38
v 11 28 38
v 15 53 37
v 15 56 37
v 18 53 37
v 18 56 37
v 7 49 36
v 7 51 36
v 8 48 36
v 8 49 36
v 9 48 36
v 9 51 36
v 9 46 35
v 9 52 35
v 11 47 35
v 11 51 35
v 13 47 35
v 13 51 35
v 16 46 35
v 16 52 35
v 11 47 32
v 11 51 32
v 13 47 32
v 13 51 32
v 9 27 43
v 16 27 43
v 9 27 42
v 10 27 42
v 14 27 42
v 16 27 42
v 11 27 41
v 12 27 41
v 14 27 41
v 16 27 41
v 12 27 40
v 16 27 40
v 10 27 38
v 11 27 38
v 10 28 45
v 14 28 45
v 10 28 43
v 14 28 43
v 10 39 47
v 14 39 47
v 10 39 45
v 14 39 45
v 11 39 42
v 14 39 42
v 11 39 41
v 14 39 41
v 10 41 52
v 14 41 52
v 10 41 47
v 14 41 47
v 9 43 45
v 10 43 45
v 9 43 41
v 10 43 41
v 8 44 45
v 9 44 45
v 8 44 41
v 9 44 41
v 7 46 45
v 8 46 45
v 7 46 41
v 8 46 41
v 9 46 41
v 10 46 41
v 14 46 41
v 16 46 41
v 9 46 35
v 16 46 35
v 3 47 45
v 7 47 45
v 3 47 41
v 7 47 41
v 11 47 35
v 13 47 35
v 11 47 32
v 13 47 32
v 8 48 39
v 9 48 39
v 8 48 36
v 9 48 36
v 9 49 46
v 20 49 46
v 9 49 45
v 10 49 45
v 14 49 45
v 14 49 41
v 16 49 41
v 16 49 40
v 20 49 40
v 7 49 38
v 8 49 38
v 7 49 36
v 8 49 36
v 7 50 46
v 9 50 46
v 20 50 46
v 22 50 46
v 6 50 45
v 7 50 45
v 6 50 44
v 7 50 44
v 7 50 43
v 9 50 43
v 20 50 43
v 22 50 43
v 22 51 46
v 23 51 46
v 8 51 43
v 9 51 43
v 22 51 43
v 23 51 43
v 8 51 42
v 9 51 42
v 12 52 52
v 17 52 52
v 12 52 46
v 17 52 46
v 13 53 53
v 15 53 53
v 13 53 52
v 15 53 52
v 15 53 40
v 18 53 40
v 15 53 37
v 18 53 37
v 6 55 48
v 9 55 48
v 9 55 46
v 6 55 43
v 9 55 43
v 4 57 47
v 6 57 47
v 4 57 45
v 5 57 45
v 5 57 44
v 6 57 44
v 14 28 43
v 16 28 43
v 14 28 42
v 16 28 42
v 10 28 41
v 11 28 41
v 12 28 41
v 14 28 41
v 16 28 41
v 12 28 40
v 16 28 40
v 10 28 38
v 11 28 38
v 9 29 43
v 10 29 43
v 9 29 42
v 10 29 42
v 11 36 42
v 14 36 42
v 11 36 41
v 14 36 41
v 10 43 50
v 14 43 50
v 10 43 45
v 14 43 45
v 10 46 52
v 14 46 52
v 10 46 50
v 14 46 50
v 3 49 45
v 9 49 45
v 3 49 41
v 9 49 41
v 8 51 39
v 9 51 39
v 7 51 38
v 8 51 38
v 7 51 36
v 9 51 36
v 11 51 35
v 13 51 35
v 11 51 32
v 13 51 32
v 7 52 46
v 8 52 46
v 6 52 45
v 7 52 45
v 6 52 44
v 7 52 44
v 7 52 43
v 8 52 43
v 9 52 40
v 16 52 40
v 9 52 35
v 16 52 35
v 8 53 46
v 9 53 46
v 8 53 42
v 9 53 42
v 13 55 53
v 15 55 53
v 13 55 52
v 15 55 52
v 20 55 46
v 23 55 46
v 20 55 43
v 23 55 43
v 12 56 52
v 17 56 52
v 13 56 50
v 16 56 50
v 13 56 48
v 16 56 48
v 12 56 46
v 17 56 46
v 15 56 40
v 18 56 40
v 15 56 37
v 18 56 37
v 9 58 46
v 20 58 46
v 14 58 45
v 17 58 45
v 9 58 43
v 14 58 41
v 17 58 41
v 9 58 40
v 20 58 40
v 13 59 50
v 16 59 50
v 13 59 48
v 16 59 48
v 4 59 47
v 5 59 47
v 4 59 45
v 5 59 45
v 5 60 47
v 6 60 47
v 5 60 44
v 6 60 44
v 6 61 48
v 9 61 48
v 6 61 43
v 9 61 43
v 14 62 45
v 17 62 45
v 14 62 41
v 17 62 41

# faces
f 3/2/1 2/2/1 1/2/1
f 4/2/1 2/2/1 3/2/1
f 7/2/1 6/2/1 5/2/1
f 8/2/1 6/2/1 7/2/1
f 12/2/1 10/2/1 9/2/1
f 13/2/1 12/2/1 11/2/1
f 14/2/1 10/2/1 12/2/1
f 14/2/1 12/2/1 13/2/1
f 17/2/1 16/2/1 15/2/1
f 18/2/1 16/2/1 17/2/1
f 21/2/1 20/2/1 19/2/1
f 22/2/1 20/2/1 21/2/1
f 23/2/1 21/2/1 19/2/1
f 24/2/1 20/2/1 22/2/1
f 25/2/1 23/2/1 19/2/1
f 25/2/1 24/2/1 23/2/1
f 26/2/1 20/2/1 24/2/1
f 26/2/1 24/2/1 25/2/1
f 29/2/1 28/2/1 27/2/1
f 30/2/1 28/2/1 29/2/1
f 37/2/1 32/2/1 31/2/1
f 38/2/1 32/2/1 37/2/1
f 39/2/1 34/2/1 33/2/1
f 40/2/1 34/2/1 39/2/1
f 41/2/1 36/2/1 35/2/1
f 42/2/1 36/2/1 41/2/1
f 45/2/1 44/2/1 43/2/1
f 46/2/1 44/2/1 45/2/1
f 49/2/1 48/2/1 47/2/1
f 50/2/1 48/2/1 49/2/1
f 53/2/1 49/2/1 47/2/1
f 54/2/1 49/2/1 53/2/1
f 56/2/1 52/2/1 51/2/1
f 57/2/1 56/2/1 55/2/1
f 58/2/1 52/2/1 56/2/1
f 58/2/1 56/2/1 57/2/1
f 61/1/1 60/1/1 59/1/1
f 62/1/1 60/1/1 61/1/1
f 65/2/1 64/2/1 63/2/1
f 66/2/1 64/2/1 65/2/1
f 69/2/1 68/2/1 67/2/1
f 70/2/1 68/2/1 69/2/1
f 73/2/1 69/2/1 67/2/1
f 74/2/1 72/2/1 71/2/1
f 74/2/1 73/2/1 72/2/1
f 75/2/1 73/2/1 74/2/1
f 76/2/1 73/2/1 75/2/1
f 77/2/1 73/2/1 76/2/1
f 78/2/1 69/2/1 73/2/1
f 78/2/1 73/2/1 77/2/1
f 79/2/1 68/2/1 70/2/1
f 80/2/1 79/2/1 78/2/1
f 80/2/1 78/2/1 77/2/1
f 81/2/1 68/2/1 79/2/1
f 81/2/1 79/2/1 80/2/1
f 83/2/1 80/2/1 77/2/1
f 84/2/1 83/2/1 82/2/1
f 85/2/1 83/2/1 84/2/1
f 86/2/1 83/2/1 85/2/1
f 87/2/1 80/2/1 83/2/1
f 87/2/1 83/2/1 86/2/1
f 92/1/1 89/1/1 88/1/1
f 93/1/1 89/1/1 92/1/1
f 94/1/1 91/1/1 90/1/1
f 95/1/1 92/1/1 88/1/1
f 97/1/1 94/1/1 90/1/1
f 97/1/1 95/1/1 94/1/1
f 99/1/1 97/1/1 96/1/1
f 100/1/1 99/1/1 98/1/1
f 101/1/1 95/1/1 97/1/1
f 101/1/1 99/1/1 100/1/1
f 101/1/1 97/1/1 99/1/1
f 102/1/1 92/1/1 95/1/1
f 102/1/1 95/1/1 101/1/1
f 103/1/1 100/1/1 98/1/1
f 104/1/1 100/1/1 103/1/1
f 107/2/1 106/2/1 105/2/1
f 108/2/1 106/2/1 107/2/1
f 111/1/1 110/1/1 109/1/1
f 112/1/1 110/1/1 111/1/1
f 115/2/1 114/2/1 113/2/1
f 116/2/1 114/2/1 115/2/1
f 119/2/1 118/2/1 117/2/1
f 120/2/1 118/2/1 119/2/1
f 123/2/1 122/2/1 121/2/1
f 124/2/1 122/2/1 123/2/1
f 127/2/1 126/2/1 125/2/1
f 128/2/1 126/2/1 127/2/1
f 131/2/1 130/2/1 129/2/1
f 132/2/1 130/2/1 131/2/1
f 133/2/2 134/2/2 135/2/2
f 133/2/2 135/2/2 137/2/2
f 135/2/2 136/2/2 137/2/2
f 137/2/2 136/2/2 138/2/2
f 139/1/2 140/1/2 141/1/2
f 141/1/2 140/1/2 142/1/2
f 143/1/2 144/1/2 145/1/2
f 145/1/2 144/1/2 146/1/2
f 147/2/2 148/2/2 149/2/2
f 149/2/2 148/2/2 150/2/2
f 151/1/2 152/1/2 155/1/2
f 155/1/2 152/1/2 156/1/2
f 153/1/2 154/1/2 157/1/2
f 154/1/2 155/1/2 157/1/2
f 155/1/2 156/1/2 157/1/2
f 157/1/2 156/1/2 158/1/2
f 153/1/2 157/1/2 160/1/2
f 160/1/2 157/1/2 161/1/2
f 159/1/2 160/1/2 164/1/2
f 161/1/2 162/1/2 164/1/2
f 160/1/2 161/1/2 164/1/2
f 163/1/2 164/1/2 165/1/2
f 164/1/2 162/1/2 166/1/2
f 165/1/2 164/1/2 166/1/2
f 163/1/2 165/1/2 167/1/2
f 167/1/2 165/1/2 168/1/2
f 166/1/2 162/1/2 169/1/2
f 166/1/2 169/1/2 170/1/2
f 170/1/2 169/1/2 171/1/2
f 172/2/2 173/2/2 174/2/2
f 174/2/2 173/2/2 175/2/2
f 176/1/2 177/1/2 180/1/2
f 180/1/2 177/1/2 181/1/2
f 178/1/2 179/1/2 182/1/2
f 182/1/2 179/1/2 183/1/2
f 184/2/2 185/2/2 186/2/2
f 186/2/2 185/2/2 187/2/2
f 187/2/2 185/2/2 188/2/2
f 188/2/2 185/2/2 189/2/2
f 190/2/2 191/2/2 192/2/2
f 192/2/2 191/2/2 193/2/2
f 194/2/2 195/2/2 196/2/2
f 196/2/2 195/2/2 197/2/2
f 198/2/2 199/2/2 200/2/2
f 200/2/2 199/2/2 201/2/2
f 202/2/2 203/2/2 204/2/2
f 204/2/2 203/2/2 205/2/2
f 206/2/2 207/2/2 208/2/2
f 208/2/2 207/2/2 209/2/2
f 209/2/2 207/2/2 211/2/2
f 210/2/2 211/2/2 212/2/2
f 211/2/2 207/2/2 213/2/2
f 212/2/2 211/2/2 213/2/2
f 214/2/2 215/2/2 216/2/2
f 216/2/2 215/2/2 217/2/2
f 218/2/2 219/2/2 220/2/2
f 220/2/2 219/2/2 221/2/2
f 224/2/3 223/2/3 222/2/3
f 225/2/3 223/2/3 224/2/3
f 230/2/3 229/2/3 228/2/3
f 231/2/3 229/2/3 230/2/3
f 232/1/3 227/1/3 226/1/3
f 233/1/3 227/1/3 232/1/3
f 234/2/3 230/2/3 228/2/3
f 235/2/3 229/2/3 231/2/3
f 236/2/3 234/2/3 228/2/3
f 236/2/3 235/2/3 234/2/3
f 237/2/3 229/2/3 235/2/3
f 237/2/3 235/2/3 236/2/3
f 240/2/3 239/2/3 238/2/3
f 241/2/3 239/2/3 240/2/3
f 244/2/3 243/2/3 242/2/3
f 245/2/3 243/2/3 244/2/3
f 248/2/3 247/2/3 246/2/3
f 250/2/3 248/2/3 246/2/3
f 250/2/3 249/2/3 248/2/3
f 251/2/3 249/2/3 250/2/3
f 254/1/3 253/1/3 252/1/3
f 255/1/3 253/1/3 254/1/3
f 258/2/3 257/2/3 256/2/3
f 261/2/3 258/2/3 256/2/3
f 261/2/3 259/2/3 258/2/3
f 262/2/3 259/2/3 261/2/3
f 265/2/3 261/2/3 260/2/3
f 265/2/3 264/2/3 263/2/3
f 265/2/3 263/2/3 262/2/3
f 265/2/3 262/2/3 261/2/3
f 266/2/3 264/2/3 265/2/3
f 267/2/3 265/2/3 260/2/3
f 268/2/3 264/2/3 266/2/3
f 269/2/3 267/2/3 260/2/3
f 269/2/3 268/2/3 267/2/3
f 270/2/3 268/2/3 269/2/3
f 271/2/3 268/2/3 270/2/3
f 272/2/3 264/2/3 268/2/3
f 272/2/3 268/2/3 271/2/3
f 273/2/3 271/2/3 270/2/3
f 274/2/3 271/2/3 273/2/3
f 275/2/3 271/2/3 274/2/3
f 276/2/3 271/2/3 275/2/3
f 282/2/3 278/2/3 277/2/3
f 283/2/3 280/2/3 279/2/3
f 284/2/3 280/2/3 283/2/3
f 286/2/3 282/2/3 281/2/3
f 288/2/3 286/2/3 285/2/3
f 289/2/3 278/2/3 282/2/3
f 289/2/3 282/2/3 286/2/3
f 289/2/3 286/2/3 288/2/3
f 292/2/3 288/2/3 287/2/3
f 292/2/3 289/2/3 288/2/3
f 293/2/3 289/2/3 292/2/3
f 294/1/3 291/1/3 290/1/3
f 295/1/3 291/1/3 294/1/3
f 296/1/3 293/1/3 292/1/3
f 297/1/3 293/1/3 296/1/3
f 300/2/3 299/2/3 298/2/3
f 301/2/3 299/2/3 300/2/3
f 304/1/3 303/1/3 302/1/3
f 305/1/3 303/1/3 304/1/3
f 306/1/3 304/1/3 302/1/3
f 307/1/3 306/1/3 302/1/3
f 308/1/3 306/1/3 307/1/3
f 313/1/3 310/1/3 309/1/3
f 314/1/3 310/1/3 313/1/3
f 315/2/3 312/2/3 311/2/3
f 316/2/3 312/2/3 315/2/3
f 319/2/3 318/2/3 317/2/3
f 320/2/3 318/2/3 319/2/3
f 323/2/3 322/2/3 321/2/3
f 324/2/3 322/2/3 323/2/3
f 325/1/4 326/1/4 327/1/4
f 327/1/4 326/1/4 328/1/4
f 329/2/4 330/2/4 331/2/4
f 331/2/4 330/2/4 332/2/4
f 333/2/4 334/2/4 335/2/4
f 335/2/4 334/2/4 336/2/4
f 337/2/4 338/2/4 341/2/4
f 341/2/4 338/2/4 342/2/4
f 339/2/4 340/2/4 343/2/4
f 343/2/4 340/2/4 344/2/4
f 347/2/4 348/2/4 349/2/4
f 349/2/4 348/2/4 350/2/4
f 347/2/4 349/2/4 351/2/4
f 351/2/4 349/2/4 352/2/4
f 345/2/4 346/2/4 353/2/4
f 353/2/4 346/2/4 354/2/4
f 354/2/4 346/2/4 355/2/4
f 356/2/4 357/2/4 358/2/4
f 358/2/4 357/2/4 359/2/4
f 359/2/4 357/2/4 360/2/4
f 360/2/4 357/2/4 361/2/4
f 362/2/4 363/2/4 366/2/4
f 366/2/4 363/2/4 367/2/4
f 364/1/4 365/1/4 368/1/4
f 368/1/4 365/1/4 369/1/4
f 370/1/4 371/1/4 374/1/4
f 374/1/4 371/1/4 375/1/4
f 372/1/4 373/1/4 376/1/4
f 376/1/4 373/1/4 377/1/4
f 378/2/4 379/2/4 381/2/4
f 380/2/4 381/2/4 383/2/4
f 382/2/4 383/2/4 385/2/4
f 383/2/4 381/2/4 386/2/4
f 385/2/4 383/2/4 386/2/4
f 381/2/4 379/2/4 387/2/4
f 386/2/4 381/2/4 387/2/4
f 385/2/4 386/2/4 389/2/4
f 384/2/4 385/2/4 389/2/4
f 389/2/4 386/2/4 390/2/4
f 388/1/4 389/1/4 392/1/4
f 389/1/4 390/1/4 392/1/4
f 392/1/4 390/1/4 393/1/4
f 393/1/4 390/1/4 394/1/4
f 391/1/4 392/1/4 395/1/4
f 392/1/4 393/1/4 395/1/4
f 395/1/4 393/1/4 396/1/4
f 396/1/4 393/1/4 397/1/4
f 397/1/4 393/1/4 398/1/4
f 394/1/4 390/1/4 399/1/4
f 399/1/4 390/1/4 400/1/4
f 401/2/4 402/2/4 403/2/4
f 403/2/4 402/2/4 404/2/4
f 405/2/4 406/2/4 409/2/4
f 409/2/4 406/2/4 410/2/4
f 407/1/4 408/1/4 411/1/4
f 411/1/4 408/1/4 412/1/4
f 405/2/4 409/2/4 414/2/4
f 413/2/4 414/2/4 415/2/4
f 414/2/4 409/2/4 415/2/4
f 410/2/4 406/2/4 416/2/4
f 413/2/4 415/2/4 417/2/4
f 415/2/4 416/2/4 417/2/4
f 416/2/4 406/2/4 418/2/4
f 417/2/4 416/2/4 418/2/4
f 419/1/4 420/1/4 421/1/4
f 421/1/4 420/1/4 422/1/4
f 423/2/4 424/2/4 425/2/4
f 425/2/4 424/2/4 426/2/4
f 427/2/4 428/2/4 430/2/4
f 429/2/4 430/2/4 431/2/4
f 430/2/4 428/2/4 432/2/4
f 431/2/4 430/2/4 432/2/4
f 433/2/4 434/2/4 435/2/4
f 435/2/4 434/2/4 436/2/4
f 433/2/4 435/2/4 437/2/4
f 436/2/4 434/2/4 438/2/4
f 433/2/4 437/2/4 439/2/4
f 437/2/4 438/2/4 439/2/4
f 438/2/4 434/2/4 440/2/4
f 439/2/4 438/2/4 440/2/4
f 441/2/4 442/2/4 443/2/4
f 443/2/4 442/2/4 444/2/4
f 447/1/5 446/1/5 445/1/5
f 448/1/5 446/1/5 447/1/5
f 449/1/5 446/1/5 448/1/5
f 450/1/5 446/1/5 449/1/5
f 451/1/5 449/1/5 448/1/5
f 452/1/5 449/1/5 451/1/5
f 453/1/5 449/1/5 452/1/5
f 455/1/5 454/1/5 453/1/5
f 455/1/5 453/1/5 452/1/5
f 456/1/5 454/1/5 455/1/5
f 457/1/5 451/1/5 448/1/5
f 458/1/5 451/1/5 457/1/5
f 461/1/5 460/1/5 459/1/5
f 462/1/5 460/1/5 461/1/5
f 465/1/5 464/1/5 463/1/5
f 466/1/5 464/1/5 465/1/5
f 469/1/5 468/1/5 467/1/5
f 470/1/5 468/1/5 469/1/5
f 473/1/5 472/1/5 471/1/5
f 474/1/5 472/1/5 473/1/5
f 477/2/5 476/2/5 475/2/5
f 478/2/5 476/2/5 477/2/5
f 481/2/5 480/2/5 479/2/5
f 482/2/5 480/2/5 481/2/5
f 485/2/5 484/2/5 483/2/5
f 486/2/5 484/2/5 485/2/5
f 491/2/5 490/2/5 489/2/5
f 491/2/5 489/2/5 488/2/5
f 491/2/5 488/2/5 487/2/5
f 492/2/5 490/2/5 491/2/5
f 495/2/5 494/2/5 493/2/5
f 496/2/5 494/2/5 495/2/5
f 499/2/5 498/2/5 497/2/5
f 500/2/5 498/2/5 499/2/5
f 503/2/5 502/2/5 501/2/5
f 504/2/5 502/2/5 503/2/5
f 507/2/5 506/2/5 505/2/5
f 508/2/5 506/2/5 507/2/5
f 509/2/5 506/2/5 508/2/5
f 510/2/5 506/2/5 509/2/5
f 511/2/5 506/2/5 510/2/5
f 512/2/5 506/2/5 511/2/5
f 513/2/5 506/2/5 512/2/5
f 516/2/5 515/2/5 514/2/5
f 517/2/5 515/2/5 516/2/5
f 523/2/5 519/2/5 518/2/5
f 524/2/5 523/2/5 522/2/5
f 525/2/5 519/2/5 523/2/5
f 525/2/5 523/2/5 524/2/5
f 526/2/5 519/2/5 525/2/5
f 527/2/5 519/2/5 526/2/5
f 528/2/5 521/2/5 520/2/5
f 529/2/5 521/2/5 528/2/5
f 534/2/5 531/2/5 530/2/5
f 535/2/5 531/2/5 534/2/5
f 536/2/5 533/2/5 532/2/5
f 537/2/5 533/2/5 536/2/5
f 540/2/5 539/2/5 538/2/5
f 541/2/5 539/2/5 540/2/5
f 544/2/5 543/2/5 542/2/5
f 545/2/5 543/2/5 544/2/5
f 548/2/5 547/2/5 546/2/5
f 549/2/5 547/2/5 548/2/5
f 552/2/5 551/2/5 550/2/5
f 553/2/5 552/2/5 550/2/5
f 554/2/5 552/2/5 553/2/5
f 557/2/5 556/2/5 555/2/5
f 558/2/5 556/2/5 557/2/5
f 559/2/5 556/2/5 558/2/5
f 560/2/5 556/2/5 559/2/5
f 561/1/6 562/1/6 563/1/6
f 563/1/6 562/1/6 564/1/6
f 567/1/6 568/1/6 570/1/6
f 568/1/6 569/1/6 570/1/6
f 570/1/6 569/1/6 571/1/6
f 565/1/6 566/1/6 572/1/6
f 572/1/6 566/1/6 573/1/6
f 574/1/6 575/1/6 576/1/6
f 576/1/6 575/1/6 577/1/6
f 578/1/6 579/1/6 580/1/6
f 580/1/6 579/1/6 581/1/6
f 582/1/6 583/1/6 584/1/6
f 584/1/6 583/1/6 585/1/6
f 586/1/6 587/1/6 588/1/6
f 588/1/6 587/1/6 589/1/6
f 590/2/6 591/2/6 592/2/6
f 592/2/6 591/2/6 593/2/6
f 594/2/6 595/2/6 597/2/6
f 596/2/6 597/2/6 598/2/6
f 597/2/6 595/2/6 599/2/6
f 598/2/6 597/2/6 599/2/6
f 600/2/6 601/2/6 602/2/6
f 602/2/6 601/2/6 603/2/6
f 604/2/6 605/2/6 607/2/6
f 606/2/6 607/2/6 608/2/6
f 607/2/6 605/2/6 609/2/6
f 608/2/6 607/2/6 609/2/6
f 609/2/6 605/2/6 610/2/6
f 610/2/6 605/2/6 611/2/6
f 612/2/6 613/2/6 614/2/6
f 614/2/6 613/2/6 615/2/6
f 616/2/6 617/2/6 618/2/6
f 618/2/6 617/2/6 619/2/6
f 620/2/6 621/2/6 622/2/6
f 622/2/6 621/2/6 623/2/6
f 624/2/6 625/2/6 626/2/6
f 626/2/6 625/2/6 627/2/6
f 628/2/6 629/2/6 630/2/6
f 630/2/6 629/2/6 631/2/6
f 628/2/6 630/2/6 632/2/6
f 631/2/6 629/2/6 633/2/6
f 628/2/6 632/2/6 634/2/6
f 632/2/6 633/2/6 634/2/6
f 633/2/6 629/2/6 635/2/6
f 634/2/6 633/2/6 635/2/6
f 636/2/6 637/2/6 638/2/6
f 638/2/6 637/2/6 639/2/6
f 640/2/6 641/2/6 642/2/6
f 642/2/6 641/2/6 643/2/6
f 640/2/6 642/2/6 644/2/6
f 644/2/6 642/2/6 645/2/6
f 643/2/6 641/2/6 646/2/6
f 644/2/6 645/2/6 647/2/6
f 645/2/6 646/2/6 647/2/6
f 646/2/6 641/2/6 648/2/6
f 647/2/6 646/2/6 648/2/6
f 649/2/6 650/2/6 651/2/6
f 651/2/6 650/2/6 652/2/6
f 653/2/6 654/2/6 655/2/6
f 655/2/6 654/2/6 656/2/6
f 657/2/6 658/2/6 659/2/6
f 659/2/6 658/2/6 660/2/6
f 661/2/6 662/2/6 663/2/6
f 663/2/6 662/2/6 664/2/6
f 665/2/6 666/2/6 667/2/6
f 667/2/6 666/2/6 668/2/6
